M48
; DRILL file {KiCad 9.0.5} date 2025-11-16T23:31:36+0100
; FORMAT={-:-/ absolute / metric / decimal}
; #@! TF.CreationDate,2025-11-16T23:31:36+01:00
; #@! TF.GenerationSoftware,Kicad,Pcbnew,9.0.5
; #@! TF.FileFunction,Plated,1,2,PTH
FMAT,2
METRIC
; #@! TA.AperFunction,Plated,PTH,ViaDrill
T1C0.300
; #@! TA.AperFunction,Plated,PTH,ComponentDrill
T2C0.700
; #@! TA.AperFunction,Plated,PTH,ComponentDrill
T3C1.000
; #@! TA.AperFunction,Plated,PTH,ComponentDrill
T4C1.524
; #@! TA.AperFunction,Plated,PTH,ComponentDrill
T5C2.300
; #@! TA.AperFunction,Plated,PTH,ViaDrill
T6C3.100
; #@! TA.AperFunction,Plated,PTH,ComponentDrill
T7C3.302
%
G90
G05
T1
X130.81Y-55.88
X130.81Y-63.5
X130.81Y-73.66
X130.81Y-81.28
X130.81Y-90.17
X130.81Y-97.79
X139.7Y-46.99
X139.7Y-66.04
X139.7Y-90.17
X139.7Y-97.79
X139.7Y-107.95
X147.192Y-57.126
X149.5Y-78.25
X151.003Y-46.99
X151.13Y-107.95
X154.559Y-88.265
X154.686Y-72.644
X156.147Y-96.203
X156.718Y-51.943
X158.876Y-52.554
X162.56Y-46.99
X162.56Y-107.95
X164.973Y-86.233
X165.608Y-74.422
X167.681Y-99.014
X168.656Y-79.502
X168.783Y-70.358
X172.72Y-46.99
X172.72Y-56.515
X172.72Y-62.738
X172.72Y-94.742
X172.72Y-107.95
X185.42Y-66.04
X185.42Y-73.66
X185.42Y-81.28
X185.42Y-88.9
T2
X141.502Y-73.938
X141.502Y-76.438
X141.502Y-78.438
X141.502Y-80.938
X143.002Y-73.438
X143.002Y-75.438
X143.002Y-77.438
X143.002Y-79.438
X143.002Y-81.438
T3
X141.935Y-53.975
X141.935Y-56.515
X152.273Y-63.754
X152.273Y-66.294
X152.273Y-68.834
X152.273Y-71.374
X152.273Y-73.914
X152.273Y-76.454
X152.273Y-80.01
X152.273Y-82.55
X152.273Y-85.09
X152.273Y-87.63
X152.273Y-90.17
X152.273Y-92.71
X162.433Y-63.754
X162.433Y-66.294
X162.433Y-68.834
X162.433Y-71.374
X162.433Y-73.914
X162.433Y-76.454
X162.433Y-80.01
X162.433Y-82.55
X162.433Y-85.09
X162.433Y-87.63
X162.433Y-90.17
X162.433Y-92.71
X163.779Y-53.975
X163.779Y-56.515
T4
X172.085Y-67.056
X172.085Y-70.612
X172.085Y-74.168
X172.085Y-77.724
X172.085Y-81.28
X172.085Y-84.836
X172.085Y-88.392
X175.133Y-68.834
X175.133Y-72.39
X175.133Y-75.946
X175.133Y-79.502
X175.133Y-83.058
X175.133Y-86.614
T5
X139.502Y-70.868
X139.502Y-84.008
T6
X134.112Y-104.948
X134.29Y-50.038
X183.642Y-104.902
X183.667Y-50.038
T7
X182.88Y-58.039
X182.88Y-97.409
M30
