G04 #@! TF.GenerationSoftware,KiCad,Pcbnew,9.0.5*
G04 #@! TF.CreationDate,2025-11-16T23:30:58+01:00*
G04 #@! TF.ProjectId,MiSTer_A8SIO,4d695354-6572-45f4-9138-53494f2e6b69,1.2*
G04 #@! TF.SameCoordinates,Original*
G04 #@! TF.FileFunction,Copper,L1,Top*
G04 #@! TF.FilePolarity,Positive*
%FSLAX46Y46*%
G04 Gerber Fmt 4.6, Leading zero omitted, Abs format (unit mm)*
G04 Created by KiCad (PCBNEW 9.0.5) date 2025-11-16 23:30:58*
%MOMM*%
%LPD*%
G01*
G04 APERTURE LIST*
G04 Aperture macros list*
%AMRoundRect*
0 Rectangle with rounded corners*
0 $1 Rounding radius*
0 $2 $3 $4 $5 $6 $7 $8 $9 X,Y pos of 4 corners*
0 Add a 4 corners polygon primitive as box body*
4,1,4,$2,$3,$4,$5,$6,$7,$8,$9,$2,$3,0*
0 Add four circle primitives for the rounded corners*
1,1,$1+$1,$2,$3*
1,1,$1+$1,$4,$5*
1,1,$1+$1,$6,$7*
1,1,$1+$1,$8,$9*
0 Add four rect primitives between the rounded corners*
20,1,$1+$1,$2,$3,$4,$5,0*
20,1,$1+$1,$4,$5,$6,$7,0*
20,1,$1+$1,$6,$7,$8,$9,0*
20,1,$1+$1,$8,$9,$2,$3,0*%
G04 Aperture macros list end*
G04 #@! TA.AperFunction,SMDPad,CuDef*
%ADD10RoundRect,0.250000X0.475000X-0.337500X0.475000X0.337500X-0.475000X0.337500X-0.475000X-0.337500X0*%
G04 #@! TD*
G04 #@! TA.AperFunction,SMDPad,CuDef*
%ADD11RoundRect,0.250000X0.350000X0.450000X-0.350000X0.450000X-0.350000X-0.450000X0.350000X-0.450000X0*%
G04 #@! TD*
G04 #@! TA.AperFunction,SMDPad,CuDef*
%ADD12RoundRect,0.375000X-0.375000X0.625000X-0.375000X-0.625000X0.375000X-0.625000X0.375000X0.625000X0*%
G04 #@! TD*
G04 #@! TA.AperFunction,SMDPad,CuDef*
%ADD13RoundRect,0.500000X-1.400000X0.500000X-1.400000X-0.500000X1.400000X-0.500000X1.400000X0.500000X0*%
G04 #@! TD*
G04 #@! TA.AperFunction,ComponentPad*
%ADD14R,1.700000X1.700000*%
G04 #@! TD*
G04 #@! TA.AperFunction,ComponentPad*
%ADD15O,1.700000X1.700000*%
G04 #@! TD*
G04 #@! TA.AperFunction,SMDPad,CuDef*
%ADD16RoundRect,0.250000X0.450000X-0.325000X0.450000X0.325000X-0.450000X0.325000X-0.450000X-0.325000X0*%
G04 #@! TD*
G04 #@! TA.AperFunction,ComponentPad*
%ADD17C,3.302000*%
G04 #@! TD*
G04 #@! TA.AperFunction,ComponentPad*
%ADD18RoundRect,0.635000X-0.635000X0.635000X-0.635000X-0.635000X0.635000X-0.635000X0.635000X0.635000X0*%
G04 #@! TD*
G04 #@! TA.AperFunction,ComponentPad*
%ADD19C,2.540000*%
G04 #@! TD*
G04 #@! TA.AperFunction,SMDPad,CuDef*
%ADD20RoundRect,0.250000X-0.350000X-0.450000X0.350000X-0.450000X0.350000X0.450000X-0.350000X0.450000X0*%
G04 #@! TD*
G04 #@! TA.AperFunction,SMDPad,CuDef*
%ADD21RoundRect,0.150000X-0.587500X-0.150000X0.587500X-0.150000X0.587500X0.150000X-0.587500X0.150000X0*%
G04 #@! TD*
G04 #@! TA.AperFunction,SMDPad,CuDef*
%ADD22RoundRect,0.250000X-0.475000X0.337500X-0.475000X-0.337500X0.475000X-0.337500X0.475000X0.337500X0*%
G04 #@! TD*
G04 #@! TA.AperFunction,ComponentPad*
%ADD23RoundRect,0.250000X-0.350000X0.350000X-0.350000X-0.350000X0.350000X-0.350000X0.350000X0.350000X0*%
G04 #@! TD*
G04 #@! TA.AperFunction,ComponentPad*
%ADD24C,1.200000*%
G04 #@! TD*
G04 #@! TA.AperFunction,ComponentPad*
%ADD25C,3.300000*%
G04 #@! TD*
G04 #@! TA.AperFunction,ViaPad*
%ADD26C,0.600000*%
G04 #@! TD*
G04 #@! TA.AperFunction,ViaPad*
%ADD27C,5.000000*%
G04 #@! TD*
G04 #@! TA.AperFunction,Conductor*
%ADD28C,0.250000*%
G04 #@! TD*
G04 #@! TA.AperFunction,Conductor*
%ADD29C,0.500000*%
G04 #@! TD*
G04 #@! TA.AperFunction,Conductor*
%ADD30C,0.200000*%
G04 #@! TD*
G04 APERTURE END LIST*
D10*
X158876000Y-56110000D03*
X158876000Y-54035000D03*
D11*
X154591500Y-98879900D03*
X152591500Y-98879900D03*
D12*
X155335000Y-51866000D03*
X153035000Y-51866000D03*
X150735000Y-51866000D03*
D13*
X153035000Y-58166000D03*
D14*
X162433000Y-63754000D03*
D15*
X162433000Y-66294000D03*
X162433000Y-68834000D03*
X162433000Y-71374000D03*
X162433000Y-73914000D03*
X162433000Y-76454000D03*
D14*
X152273000Y-63754000D03*
D15*
X152273000Y-66294000D03*
X152273000Y-68834000D03*
X152273000Y-71374000D03*
X152273000Y-73914000D03*
X152273000Y-76454000D03*
D14*
X162433000Y-80010000D03*
D15*
X162433000Y-82550000D03*
X162433000Y-85090000D03*
X162433000Y-87630000D03*
X162433000Y-90170000D03*
X162433000Y-92710000D03*
D16*
X164411900Y-101064300D03*
X164411900Y-99014300D03*
D17*
X182880000Y-58039000D03*
X182880000Y-97409000D03*
D18*
X172085000Y-88392000D03*
D19*
X175133000Y-86614000D03*
X172085000Y-84836000D03*
X175133000Y-83058000D03*
X172085000Y-81280000D03*
X175133000Y-79502000D03*
X172085000Y-77724000D03*
X175133000Y-75946000D03*
X172085000Y-74168000D03*
X175133000Y-72390000D03*
X172085000Y-70612000D03*
X175133000Y-68834000D03*
X172085000Y-67056000D03*
D20*
X152591500Y-101419900D03*
X154591500Y-101419900D03*
D14*
X163779200Y-53975000D03*
D15*
X163779200Y-56515000D03*
D21*
X158191200Y-99278400D03*
X158191200Y-101178400D03*
X160066200Y-100228400D03*
D22*
X147192000Y-53781000D03*
X147192000Y-55856000D03*
D23*
X141502000Y-73938000D03*
D24*
X141502000Y-76438000D03*
X141502000Y-78438000D03*
X141502000Y-80938000D03*
X143002000Y-81438000D03*
X143002000Y-79438000D03*
X143002000Y-77438000D03*
X143002000Y-75438000D03*
X143002000Y-73438000D03*
D25*
X139502000Y-70868000D03*
X139502000Y-84008000D03*
D14*
X141935200Y-53975000D03*
D15*
X141935200Y-56515000D03*
D14*
X152273000Y-80010000D03*
D15*
X152273000Y-82550000D03*
X152273000Y-85090000D03*
X152273000Y-87630000D03*
X152273000Y-90170000D03*
X152273000Y-92710000D03*
D26*
X149500000Y-78250000D03*
D27*
X134112000Y-104947806D03*
X183642000Y-104902000D03*
X134289800Y-50038000D03*
X183667400Y-50038000D03*
D26*
X139700000Y-66040000D03*
X172720000Y-62738000D03*
X172720000Y-107950000D03*
X162560000Y-107950000D03*
X151130000Y-107950000D03*
X139700000Y-107950000D03*
X154559000Y-88265000D03*
X130810000Y-55880000D03*
X151003000Y-46990000D03*
X185420000Y-66040000D03*
X185420000Y-81280000D03*
X185420000Y-88900000D03*
X130810000Y-73660000D03*
X168783000Y-70358000D03*
X158876000Y-52554000D03*
X172720000Y-94742000D03*
X165608000Y-74422000D03*
X185420000Y-73660000D03*
X164973000Y-86233000D03*
X139700000Y-97790000D03*
X130810000Y-63500000D03*
X130810000Y-81280000D03*
X147192000Y-57126000D03*
X162560000Y-46990000D03*
X172720000Y-56515000D03*
X130810000Y-97790000D03*
X154686000Y-72644000D03*
X168656000Y-79502000D03*
X156718000Y-51943000D03*
X139700000Y-90170000D03*
X139700000Y-46990000D03*
X130810000Y-90170000D03*
X172720000Y-46990000D03*
X167681100Y-99014300D03*
X156146500Y-96202500D03*
D28*
X146750000Y-66250000D02*
X152229000Y-66250000D01*
X145250000Y-67750000D02*
X146750000Y-66250000D01*
X152229000Y-66250000D02*
X152273000Y-66294000D01*
X145250000Y-72500000D02*
X145250000Y-67750000D01*
X144312000Y-73438000D02*
X145250000Y-72500000D01*
X143002000Y-73438000D02*
X144312000Y-73438000D01*
X150050000Y-82550000D02*
X152273000Y-82550000D01*
X148000000Y-77000000D02*
X148000000Y-80500000D01*
X147438000Y-76438000D02*
X148000000Y-77000000D01*
X141502000Y-76438000D02*
X147438000Y-76438000D01*
X148000000Y-80500000D02*
X150050000Y-82550000D01*
X150336000Y-73914000D02*
X152273000Y-73914000D01*
X149500000Y-78250000D02*
X149500000Y-74750000D01*
X149500000Y-74750000D02*
X150336000Y-73914000D01*
D29*
X147192000Y-55856000D02*
X147192000Y-57126000D01*
X158876000Y-53781000D02*
X158876000Y-52554000D01*
D28*
X149225000Y-83185000D02*
X149225000Y-89154000D01*
X149225000Y-89154000D02*
X150241000Y-90170000D01*
X146481800Y-80441800D02*
X149225000Y-83185000D01*
X150241000Y-90170000D02*
X152273000Y-90170000D01*
X142544800Y-80441800D02*
X146481800Y-80441800D01*
X141502000Y-79399000D02*
X142544800Y-80441800D01*
X141502000Y-78438000D02*
X141502000Y-79399000D01*
D29*
X158623000Y-61849000D02*
X160401000Y-60071000D01*
X159766000Y-68834000D02*
X158750000Y-69850000D01*
X158623000Y-67691000D02*
X158623000Y-61849000D01*
X159766000Y-68834000D02*
X158623000Y-67691000D01*
X166624000Y-60071000D02*
X167894000Y-58801000D01*
X160147000Y-85090000D02*
X162433000Y-85090000D01*
X135763000Y-55753000D02*
X137541000Y-53975000D01*
X179197000Y-62484000D02*
X179197000Y-59817000D01*
X158671500Y-102943900D02*
X173657500Y-102943900D01*
X157160000Y-101178400D02*
X158191200Y-101178400D01*
X137541000Y-53975000D02*
X141935200Y-53975000D01*
X174927500Y-93804500D02*
X175006000Y-93726000D01*
X150735000Y-51943000D02*
X147549000Y-51943000D01*
X141935200Y-53975000D02*
X146998000Y-53975000D01*
X179451000Y-74451000D02*
X177390000Y-72390000D01*
X175133000Y-48260000D02*
X179197000Y-52324000D01*
X179197000Y-52324000D02*
X179197000Y-59817000D01*
X156385500Y-101419900D02*
X156639500Y-101165900D01*
X147549000Y-51943000D02*
X147192000Y-52300000D01*
X158750000Y-69850000D02*
X158750000Y-83693000D01*
X157147500Y-101165900D02*
X157160000Y-101178400D01*
X154591500Y-101419900D02*
X156385500Y-101419900D01*
X179451000Y-89281000D02*
X179451000Y-74451000D01*
X146998000Y-53975000D02*
X147192000Y-53781000D01*
X177546000Y-72390000D02*
X179197000Y-70739000D01*
X141502000Y-73938000D02*
X137184000Y-73938000D01*
X158750000Y-83693000D02*
X160147000Y-85090000D01*
X167894000Y-58801000D02*
X167894000Y-48387000D01*
X156639500Y-101165900D02*
X157147500Y-101165900D01*
X151763000Y-48260000D02*
X175133000Y-48260000D01*
X147192000Y-52300000D02*
X147192000Y-53781000D01*
X174927500Y-101673900D02*
X174927500Y-93804500D01*
X175006000Y-93726000D02*
X179451000Y-89281000D01*
X173657500Y-102943900D02*
X174927500Y-101673900D01*
X137184000Y-73938000D02*
X135763000Y-72517000D01*
X177390000Y-72390000D02*
X177546000Y-72390000D01*
D30*
X150735000Y-50680000D02*
X150735000Y-51943000D01*
D29*
X158191200Y-102463600D02*
X158671500Y-102943900D01*
X150735000Y-51943000D02*
X150735000Y-49288000D01*
X150735000Y-49288000D02*
X151763000Y-48260000D01*
X135763000Y-72517000D02*
X135763000Y-55753000D01*
D30*
X150685000Y-50630000D02*
X150735000Y-50680000D01*
D29*
X158191200Y-101178400D02*
X158191200Y-102463600D01*
X179197000Y-70739000D02*
X179197000Y-62484000D01*
X167894000Y-48387000D02*
X167767000Y-48260000D01*
X159766000Y-68834000D02*
X162433000Y-68834000D01*
X177390000Y-72390000D02*
X175133000Y-72390000D01*
X160401000Y-60071000D02*
X166624000Y-60071000D01*
D28*
X166497000Y-72644000D02*
X168021000Y-74168000D01*
X166497000Y-67691000D02*
X166497000Y-72644000D01*
X162433000Y-66294000D02*
X165100000Y-66294000D01*
X165100000Y-66294000D02*
X166497000Y-67691000D01*
D30*
X172085000Y-74168000D02*
X172063000Y-74190000D01*
D28*
X168021000Y-74168000D02*
X172085000Y-74168000D01*
D29*
X167681100Y-99014300D02*
X164411900Y-99014300D01*
D28*
X165354000Y-82550000D02*
X166624000Y-81280000D01*
X162433000Y-82550000D02*
X165354000Y-82550000D01*
X166624000Y-81280000D02*
X172085000Y-81280000D01*
X168656000Y-67056000D02*
X172085000Y-67056000D01*
X165354000Y-63754000D02*
X168656000Y-67056000D01*
X162433000Y-63754000D02*
X165354000Y-63754000D01*
X167132000Y-77724000D02*
X172085000Y-77724000D01*
X162433000Y-80010000D02*
X164846000Y-80010000D01*
X164846000Y-80010000D02*
X167132000Y-77724000D01*
X167894000Y-84836000D02*
X172085000Y-84836000D01*
X166751000Y-85979000D02*
X167894000Y-84836000D01*
X162433000Y-90170000D02*
X164846000Y-90170000D01*
X166751000Y-88265000D02*
X166751000Y-85979000D01*
X164846000Y-90170000D02*
X166751000Y-88265000D01*
D29*
X156210000Y-67564000D02*
X156210000Y-59182000D01*
X153035000Y-53721000D02*
X153035000Y-58243000D01*
X154940000Y-68834000D02*
X156210000Y-67564000D01*
X152273000Y-68834000D02*
X154305000Y-68834000D01*
X163779200Y-53975000D02*
X162687000Y-53975000D01*
X155271000Y-58243000D02*
X153035000Y-58243000D01*
X157377000Y-56110000D02*
X155244000Y-58243000D01*
X156210000Y-69977000D02*
X156210000Y-83439000D01*
X158876000Y-56110000D02*
X157377000Y-56110000D01*
X154305000Y-68834000D02*
X155067000Y-68834000D01*
X153035000Y-53975000D02*
X153035000Y-53721000D01*
X162687000Y-53975000D02*
X160552000Y-56110000D01*
X160552000Y-56110000D02*
X160215000Y-56110000D01*
X155067000Y-68834000D02*
X156210000Y-69977000D01*
X156210000Y-59182000D02*
X155271000Y-58243000D01*
X156210000Y-83439000D02*
X154559000Y-85090000D01*
X154305000Y-68834000D02*
X154940000Y-68834000D01*
X160215000Y-56110000D02*
X158876000Y-56110000D01*
X155244000Y-58243000D02*
X153035000Y-58243000D01*
X154559000Y-85090000D02*
X152273000Y-85090000D01*
X153035000Y-53721000D02*
X153035000Y-51943000D01*
X160066200Y-100228400D02*
X161544000Y-100228400D01*
X161544000Y-100228400D02*
X162379900Y-101064300D01*
X162379900Y-101064300D02*
X164411900Y-101064300D01*
X156385500Y-98879900D02*
X156784000Y-99278400D01*
X154591500Y-98879900D02*
X156385500Y-98879900D01*
X156784000Y-99278400D02*
X158191200Y-99278400D01*
D28*
X156146500Y-96202500D02*
X153347900Y-96202500D01*
X152591500Y-96958900D02*
X152591500Y-101419900D01*
X153347900Y-96202500D02*
X152591500Y-96958900D01*
G04 #@! TA.AperFunction,Conductor*
G36*
X149988386Y-83175498D02*
G01*
X149988393Y-83175500D01*
X149988394Y-83175500D01*
X151000019Y-83175500D01*
X151067058Y-83195185D01*
X151110503Y-83243203D01*
X151117950Y-83257819D01*
X151242890Y-83429786D01*
X151393213Y-83580109D01*
X151565182Y-83705050D01*
X151573946Y-83709516D01*
X151624742Y-83757491D01*
X151641536Y-83825312D01*
X151618998Y-83891447D01*
X151573946Y-83930484D01*
X151565182Y-83934949D01*
X151393213Y-84059890D01*
X151242890Y-84210213D01*
X151117951Y-84382179D01*
X151021444Y-84571585D01*
X150955753Y-84773760D01*
X150928376Y-84946613D01*
X150922500Y-84983713D01*
X150922500Y-85196287D01*
X150955754Y-85406243D01*
X151013636Y-85584386D01*
X151021444Y-85608414D01*
X151117951Y-85797820D01*
X151242890Y-85969786D01*
X151393213Y-86120109D01*
X151565179Y-86245048D01*
X151565181Y-86245049D01*
X151565184Y-86245051D01*
X151574493Y-86249794D01*
X151625290Y-86297766D01*
X151642087Y-86365587D01*
X151619552Y-86431722D01*
X151574502Y-86470762D01*
X151565443Y-86475378D01*
X151393540Y-86600272D01*
X151393535Y-86600276D01*
X151243276Y-86750535D01*
X151243272Y-86750540D01*
X151118379Y-86922442D01*
X151021904Y-87111782D01*
X150956242Y-87313870D01*
X150956242Y-87313873D01*
X150945769Y-87380000D01*
X151839988Y-87380000D01*
X151807075Y-87437007D01*
X151773000Y-87564174D01*
X151773000Y-87695826D01*
X151807075Y-87822993D01*
X151839988Y-87880000D01*
X150945769Y-87880000D01*
X150956242Y-87946126D01*
X150956242Y-87946129D01*
X151021904Y-88148217D01*
X151118379Y-88337557D01*
X151243272Y-88509459D01*
X151243276Y-88509464D01*
X151393535Y-88659723D01*
X151393540Y-88659727D01*
X151565444Y-88784622D01*
X151574495Y-88789234D01*
X151625292Y-88837208D01*
X151642087Y-88905029D01*
X151619550Y-88971164D01*
X151574499Y-89010202D01*
X151565182Y-89014949D01*
X151393213Y-89139890D01*
X151242890Y-89290213D01*
X151117950Y-89462180D01*
X151110503Y-89476797D01*
X151062527Y-89527592D01*
X151000019Y-89544500D01*
X150551452Y-89544500D01*
X150484413Y-89524815D01*
X150463771Y-89508181D01*
X149886819Y-88931229D01*
X149853334Y-88869906D01*
X149850500Y-88843548D01*
X149850500Y-83298731D01*
X149870185Y-83231692D01*
X149922989Y-83185937D01*
X149982301Y-83176056D01*
X149982301Y-83175500D01*
X149985639Y-83175500D01*
X149986665Y-83175329D01*
X149988386Y-83175498D01*
G37*
G04 #@! TD.AperFunction*
G04 #@! TA.AperFunction,Conductor*
G36*
X170411900Y-81925185D02*
G01*
X170457655Y-81977989D01*
X170459422Y-81982047D01*
X170493676Y-82064745D01*
X170493685Y-82064762D01*
X170609720Y-82265743D01*
X170609721Y-82265745D01*
X170751009Y-82449875D01*
X170751015Y-82449882D01*
X170915117Y-82613984D01*
X170915124Y-82613990D01*
X171099254Y-82755278D01*
X171099256Y-82755279D01*
X171300237Y-82871314D01*
X171300240Y-82871315D01*
X171300248Y-82871320D01*
X171474358Y-82943439D01*
X171528761Y-82987280D01*
X171550826Y-83053574D01*
X171533547Y-83121273D01*
X171482410Y-83168884D01*
X171474361Y-83172559D01*
X171465920Y-83176056D01*
X171300254Y-83244677D01*
X171300237Y-83244685D01*
X171099256Y-83360720D01*
X171099254Y-83360721D01*
X170915124Y-83502009D01*
X170915117Y-83502015D01*
X170751015Y-83666117D01*
X170751009Y-83666124D01*
X170609721Y-83850254D01*
X170609720Y-83850256D01*
X170493685Y-84051237D01*
X170493676Y-84051254D01*
X170459422Y-84133953D01*
X170415581Y-84188356D01*
X170349287Y-84210421D01*
X170344861Y-84210500D01*
X167832389Y-84210500D01*
X167771971Y-84222518D01*
X167734259Y-84230019D01*
X167711550Y-84234536D01*
X167711548Y-84234537D01*
X167678207Y-84248347D01*
X167597718Y-84281685D01*
X167597715Y-84281687D01*
X167557459Y-84308586D01*
X167557456Y-84308588D01*
X167551062Y-84312861D01*
X167495267Y-84350142D01*
X167408142Y-84437267D01*
X167408139Y-84437270D01*
X167404964Y-84440444D01*
X167404957Y-84440451D01*
X166861696Y-84983713D01*
X166352270Y-85493139D01*
X166352267Y-85493142D01*
X166311420Y-85533989D01*
X166265140Y-85580268D01*
X166246336Y-85608412D01*
X166238091Y-85620752D01*
X166233077Y-85628256D01*
X166196687Y-85682715D01*
X166196685Y-85682718D01*
X166149540Y-85796538D01*
X166149535Y-85796554D01*
X166125819Y-85915788D01*
X166125816Y-85915804D01*
X166125500Y-85917391D01*
X166125500Y-87954548D01*
X166105815Y-88021587D01*
X166089181Y-88042229D01*
X164623229Y-89508181D01*
X164561906Y-89541666D01*
X164535548Y-89544500D01*
X163705981Y-89544500D01*
X163638942Y-89524815D01*
X163595497Y-89476797D01*
X163588049Y-89462180D01*
X163463109Y-89290213D01*
X163312786Y-89139890D01*
X163140817Y-89014949D01*
X163131504Y-89010204D01*
X163080707Y-88962230D01*
X163063912Y-88894409D01*
X163086449Y-88828274D01*
X163131507Y-88789232D01*
X163140558Y-88784620D01*
X163312459Y-88659727D01*
X163312464Y-88659723D01*
X163462723Y-88509464D01*
X163462727Y-88509459D01*
X163587620Y-88337557D01*
X163684095Y-88148217D01*
X163749757Y-87946129D01*
X163749757Y-87946126D01*
X163760231Y-87880000D01*
X162866012Y-87880000D01*
X162898925Y-87822993D01*
X162933000Y-87695826D01*
X162933000Y-87564174D01*
X162898925Y-87437007D01*
X162866012Y-87380000D01*
X163760231Y-87380000D01*
X163749757Y-87313873D01*
X163749757Y-87313870D01*
X163684095Y-87111782D01*
X163587620Y-86922442D01*
X163462727Y-86750540D01*
X163462723Y-86750535D01*
X163312464Y-86600276D01*
X163312459Y-86600272D01*
X163140555Y-86475377D01*
X163131500Y-86470763D01*
X163080706Y-86422788D01*
X163063912Y-86354966D01*
X163086451Y-86288832D01*
X163131508Y-86249793D01*
X163140816Y-86245051D01*
X163220007Y-86187515D01*
X163312786Y-86120109D01*
X163312788Y-86120106D01*
X163312792Y-86120104D01*
X163463104Y-85969792D01*
X163463106Y-85969788D01*
X163463109Y-85969786D01*
X163588048Y-85797820D01*
X163588047Y-85797820D01*
X163588051Y-85797816D01*
X163684557Y-85608412D01*
X163750246Y-85406243D01*
X163783500Y-85196287D01*
X163783500Y-84983713D01*
X163750246Y-84773757D01*
X163684557Y-84571588D01*
X163588051Y-84382184D01*
X163588049Y-84382181D01*
X163588048Y-84382179D01*
X163463109Y-84210213D01*
X163312786Y-84059890D01*
X163140820Y-83934951D01*
X163140115Y-83934591D01*
X163132054Y-83930485D01*
X163081259Y-83882512D01*
X163064463Y-83814692D01*
X163086999Y-83748556D01*
X163132054Y-83709515D01*
X163140816Y-83705051D01*
X163194396Y-83666123D01*
X163312786Y-83580109D01*
X163312788Y-83580106D01*
X163312792Y-83580104D01*
X163463104Y-83429792D01*
X163463106Y-83429788D01*
X163463109Y-83429786D01*
X163588049Y-83257819D01*
X163595497Y-83243203D01*
X163643473Y-83192408D01*
X163705981Y-83175500D01*
X165415607Y-83175500D01*
X165476029Y-83163481D01*
X165536452Y-83151463D01*
X165569792Y-83137652D01*
X165650286Y-83104312D01*
X165701509Y-83070084D01*
X165704009Y-83068414D01*
X165724038Y-83055031D01*
X165752733Y-83035858D01*
X165839858Y-82948733D01*
X165839859Y-82948731D01*
X165846925Y-82941665D01*
X165846927Y-82941661D01*
X166846771Y-81941819D01*
X166908094Y-81908334D01*
X166934452Y-81905500D01*
X170344861Y-81905500D01*
X170411900Y-81925185D01*
G37*
G04 #@! TD.AperFunction*
G04 #@! TA.AperFunction,Conductor*
G36*
X154771809Y-69604185D02*
G01*
X154792451Y-69620819D01*
X155423181Y-70251548D01*
X155456666Y-70312871D01*
X155459500Y-70339229D01*
X155459500Y-83076770D01*
X155439815Y-83143809D01*
X155423181Y-83164451D01*
X154284451Y-84303181D01*
X154223128Y-84336666D01*
X154196770Y-84339500D01*
X153460221Y-84339500D01*
X153393182Y-84319815D01*
X153359903Y-84288385D01*
X153303107Y-84210211D01*
X153152786Y-84059890D01*
X152980820Y-83934951D01*
X152980115Y-83934591D01*
X152972054Y-83930485D01*
X152921259Y-83882512D01*
X152904463Y-83814692D01*
X152926999Y-83748556D01*
X152972054Y-83709515D01*
X152980816Y-83705051D01*
X153034396Y-83666123D01*
X153152786Y-83580109D01*
X153152788Y-83580106D01*
X153152792Y-83580104D01*
X153303104Y-83429792D01*
X153303106Y-83429788D01*
X153303109Y-83429786D01*
X153428048Y-83257820D01*
X153428049Y-83257819D01*
X153428051Y-83257816D01*
X153524557Y-83068412D01*
X153590246Y-82866243D01*
X153623500Y-82656287D01*
X153623500Y-82443713D01*
X153590246Y-82233757D01*
X153524557Y-82031588D01*
X153428051Y-81842184D01*
X153428049Y-81842181D01*
X153428048Y-81842179D01*
X153303109Y-81670213D01*
X153189569Y-81556673D01*
X153156084Y-81495350D01*
X153161068Y-81425658D01*
X153202940Y-81369725D01*
X153233915Y-81352810D01*
X153365331Y-81303796D01*
X153480546Y-81217546D01*
X153566796Y-81102331D01*
X153617091Y-80967483D01*
X153623500Y-80907873D01*
X153623499Y-79112128D01*
X153617091Y-79052517D01*
X153616338Y-79050499D01*
X153566797Y-78917671D01*
X153566793Y-78917664D01*
X153480547Y-78802455D01*
X153480544Y-78802452D01*
X153365335Y-78716206D01*
X153365328Y-78716202D01*
X153230482Y-78665908D01*
X153230483Y-78665908D01*
X153170883Y-78659501D01*
X153170881Y-78659500D01*
X153170873Y-78659500D01*
X153170864Y-78659500D01*
X151375129Y-78659500D01*
X151375123Y-78659501D01*
X151315516Y-78665908D01*
X151180671Y-78716202D01*
X151180664Y-78716206D01*
X151065455Y-78802452D01*
X151065452Y-78802455D01*
X150979206Y-78917664D01*
X150979202Y-78917671D01*
X150928908Y-79052517D01*
X150923471Y-79103096D01*
X150922501Y-79112123D01*
X150922500Y-79112135D01*
X150922500Y-80907870D01*
X150922501Y-80907876D01*
X150928908Y-80967483D01*
X150979202Y-81102328D01*
X150979206Y-81102335D01*
X151065452Y-81217544D01*
X151065455Y-81217547D01*
X151180664Y-81303793D01*
X151180671Y-81303797D01*
X151312082Y-81352810D01*
X151368016Y-81394681D01*
X151392433Y-81460145D01*
X151377582Y-81528418D01*
X151356431Y-81556673D01*
X151242889Y-81670215D01*
X151117950Y-81842180D01*
X151110503Y-81856797D01*
X151062527Y-81907592D01*
X151000019Y-81924500D01*
X150360452Y-81924500D01*
X150293413Y-81904815D01*
X150272771Y-81888181D01*
X148661819Y-80277229D01*
X148628334Y-80215906D01*
X148625500Y-80189548D01*
X148625500Y-78790854D01*
X148645185Y-78723815D01*
X148697989Y-78678060D01*
X148767147Y-78668116D01*
X148830703Y-78697141D01*
X148852602Y-78721963D01*
X148878210Y-78760288D01*
X148878213Y-78760292D01*
X148989707Y-78871786D01*
X148989711Y-78871789D01*
X149120814Y-78959390D01*
X149120827Y-78959397D01*
X149258092Y-79016253D01*
X149266503Y-79019737D01*
X149421153Y-79050499D01*
X149421156Y-79050500D01*
X149421158Y-79050500D01*
X149578844Y-79050500D01*
X149578845Y-79050499D01*
X149733497Y-79019737D01*
X149879179Y-78959394D01*
X150010289Y-78871789D01*
X150121789Y-78760289D01*
X150209394Y-78629179D01*
X150269737Y-78483497D01*
X150300500Y-78328842D01*
X150300500Y-78171158D01*
X150300500Y-78171155D01*
X150300499Y-78171153D01*
X150269738Y-78016510D01*
X150269737Y-78016503D01*
X150209394Y-77870821D01*
X150146397Y-77776539D01*
X150125520Y-77709863D01*
X150125500Y-77707650D01*
X150125500Y-75060452D01*
X150145185Y-74993413D01*
X150161819Y-74972771D01*
X150558772Y-74575819D01*
X150620095Y-74542334D01*
X150646453Y-74539500D01*
X151000019Y-74539500D01*
X151067058Y-74559185D01*
X151110503Y-74607203D01*
X151117950Y-74621819D01*
X151242890Y-74793786D01*
X151393213Y-74944109D01*
X151565182Y-75069050D01*
X151573946Y-75073516D01*
X151624742Y-75121491D01*
X151641536Y-75189312D01*
X151618998Y-75255447D01*
X151573946Y-75294484D01*
X151565182Y-75298949D01*
X151393213Y-75423890D01*
X151242890Y-75574213D01*
X151117951Y-75746179D01*
X151021444Y-75935585D01*
X150955753Y-76137760D01*
X150922500Y-76347713D01*
X150922500Y-76560286D01*
X150950687Y-76738256D01*
X150955754Y-76770243D01*
X151010669Y-76939254D01*
X151021444Y-76972414D01*
X151117951Y-77161820D01*
X151242890Y-77333786D01*
X151393213Y-77484109D01*
X151565179Y-77609048D01*
X151565181Y-77609049D01*
X151565184Y-77609051D01*
X151754588Y-77705557D01*
X151956757Y-77771246D01*
X152166713Y-77804500D01*
X152166714Y-77804500D01*
X152379286Y-77804500D01*
X152379287Y-77804500D01*
X152589243Y-77771246D01*
X152791412Y-77705557D01*
X152980816Y-77609051D01*
X153078174Y-77538317D01*
X153152786Y-77484109D01*
X153152788Y-77484106D01*
X153152792Y-77484104D01*
X153303104Y-77333792D01*
X153303106Y-77333788D01*
X153303109Y-77333786D01*
X153428048Y-77161820D01*
X153428047Y-77161820D01*
X153428051Y-77161816D01*
X153524557Y-76972412D01*
X153590246Y-76770243D01*
X153623500Y-76560287D01*
X153623500Y-76347713D01*
X153590246Y-76137757D01*
X153524557Y-75935588D01*
X153428051Y-75746184D01*
X153428049Y-75746181D01*
X153428048Y-75746179D01*
X153303109Y-75574213D01*
X153152786Y-75423890D01*
X152980820Y-75298951D01*
X152980115Y-75298591D01*
X152972054Y-75294485D01*
X152921259Y-75246512D01*
X152904463Y-75178692D01*
X152926999Y-75112556D01*
X152972054Y-75073515D01*
X152980816Y-75069051D01*
X153022868Y-75038499D01*
X153152786Y-74944109D01*
X153152788Y-74944106D01*
X153152792Y-74944104D01*
X153303104Y-74793792D01*
X153303106Y-74793788D01*
X153303109Y-74793786D01*
X153428048Y-74621820D01*
X153428049Y-74621819D01*
X153428051Y-74621816D01*
X153524557Y-74432412D01*
X153590246Y-74230243D01*
X153623500Y-74020287D01*
X153623500Y-73807713D01*
X153590246Y-73597757D01*
X153524557Y-73395588D01*
X153428051Y-73206184D01*
X153428049Y-73206181D01*
X153428048Y-73206179D01*
X153303109Y-73034213D01*
X153152786Y-72883890D01*
X152980817Y-72758949D01*
X152971504Y-72754204D01*
X152920707Y-72706230D01*
X152903912Y-72638409D01*
X152926449Y-72572274D01*
X152971507Y-72533232D01*
X152980558Y-72528620D01*
X153152459Y-72403727D01*
X153152464Y-72403723D01*
X153302723Y-72253464D01*
X153302727Y-72253459D01*
X153427620Y-72081557D01*
X153524095Y-71892217D01*
X153589757Y-71690129D01*
X153589757Y-71690126D01*
X153600231Y-71624000D01*
X152706012Y-71624000D01*
X152738925Y-71566993D01*
X152773000Y-71439826D01*
X152773000Y-71308174D01*
X152738925Y-71181007D01*
X152706012Y-71124000D01*
X153600231Y-71124000D01*
X153589757Y-71057873D01*
X153589757Y-71057870D01*
X153524095Y-70855782D01*
X153427620Y-70666442D01*
X153302727Y-70494540D01*
X153302723Y-70494535D01*
X153152464Y-70344276D01*
X153152459Y-70344272D01*
X152980555Y-70219377D01*
X152971500Y-70214763D01*
X152920706Y-70166788D01*
X152903912Y-70098966D01*
X152926451Y-70032832D01*
X152971508Y-69993793D01*
X152980816Y-69989051D01*
X153060007Y-69931515D01*
X153152786Y-69864109D01*
X153152788Y-69864106D01*
X153152792Y-69864104D01*
X153303104Y-69713792D01*
X153303108Y-69713786D01*
X153359903Y-69635615D01*
X153415233Y-69592949D01*
X153460221Y-69584500D01*
X154231082Y-69584500D01*
X154704770Y-69584500D01*
X154771809Y-69604185D01*
G37*
G04 #@! TD.AperFunction*
G04 #@! TA.AperFunction,Conductor*
G36*
X164856587Y-66939185D02*
G01*
X164877229Y-66955819D01*
X165835181Y-67913771D01*
X165868666Y-67975094D01*
X165871500Y-68001452D01*
X165871500Y-72705606D01*
X165892762Y-72812500D01*
X165895538Y-72826455D01*
X165895539Y-72826459D01*
X165898471Y-72833538D01*
X165898479Y-72833554D01*
X165900114Y-72837501D01*
X165942688Y-72940286D01*
X165973139Y-72985858D01*
X165977531Y-72992431D01*
X165977533Y-72992435D01*
X166011140Y-73042731D01*
X166011141Y-73042732D01*
X166011142Y-73042733D01*
X166098267Y-73129858D01*
X166098268Y-73129858D01*
X166105335Y-73136925D01*
X166105334Y-73136925D01*
X166105337Y-73136927D01*
X167535141Y-74566732D01*
X167535142Y-74566733D01*
X167622267Y-74653858D01*
X167678062Y-74691139D01*
X167724714Y-74722311D01*
X167838548Y-74769463D01*
X167959388Y-74793499D01*
X167959392Y-74793500D01*
X167959393Y-74793500D01*
X167959394Y-74793500D01*
X170344861Y-74793500D01*
X170411900Y-74813185D01*
X170457655Y-74865989D01*
X170459422Y-74870047D01*
X170493676Y-74952745D01*
X170493685Y-74952762D01*
X170609720Y-75153743D01*
X170609721Y-75153745D01*
X170751009Y-75337875D01*
X170751015Y-75337882D01*
X170915117Y-75501984D01*
X170915124Y-75501990D01*
X171099254Y-75643278D01*
X171099256Y-75643279D01*
X171300237Y-75759314D01*
X171300240Y-75759315D01*
X171300248Y-75759320D01*
X171470756Y-75829947D01*
X171474358Y-75831439D01*
X171528761Y-75875280D01*
X171550826Y-75941574D01*
X171533547Y-76009273D01*
X171482410Y-76056884D01*
X171474358Y-76060561D01*
X171300254Y-76132677D01*
X171300237Y-76132685D01*
X171099256Y-76248720D01*
X171099254Y-76248721D01*
X170915124Y-76390009D01*
X170915117Y-76390015D01*
X170751015Y-76554117D01*
X170751009Y-76554124D01*
X170609721Y-76738254D01*
X170609720Y-76738256D01*
X170493685Y-76939237D01*
X170493676Y-76939254D01*
X170459422Y-77021953D01*
X170415581Y-77076356D01*
X170349287Y-77098421D01*
X170344861Y-77098500D01*
X167070389Y-77098500D01*
X167009971Y-77110518D01*
X166966743Y-77119116D01*
X166949546Y-77122537D01*
X166835716Y-77169687D01*
X166835707Y-77169692D01*
X166733268Y-77238140D01*
X166693998Y-77277411D01*
X166646142Y-77325267D01*
X166646139Y-77325270D01*
X165619076Y-78352334D01*
X164623229Y-79348181D01*
X164561906Y-79381666D01*
X164535548Y-79384500D01*
X163907499Y-79384500D01*
X163840460Y-79364815D01*
X163794705Y-79312011D01*
X163783499Y-79260500D01*
X163783499Y-79112129D01*
X163783498Y-79112123D01*
X163783497Y-79112116D01*
X163777091Y-79052517D01*
X163776338Y-79050499D01*
X163726797Y-78917671D01*
X163726793Y-78917664D01*
X163640547Y-78802455D01*
X163640544Y-78802452D01*
X163525335Y-78716206D01*
X163525328Y-78716202D01*
X163390482Y-78665908D01*
X163390483Y-78665908D01*
X163330883Y-78659501D01*
X163330881Y-78659500D01*
X163330873Y-78659500D01*
X163330864Y-78659500D01*
X161535129Y-78659500D01*
X161535123Y-78659501D01*
X161475516Y-78665908D01*
X161340671Y-78716202D01*
X161340664Y-78716206D01*
X161225455Y-78802452D01*
X161225452Y-78802455D01*
X161139206Y-78917664D01*
X161139202Y-78917671D01*
X161088908Y-79052517D01*
X161083471Y-79103096D01*
X161082501Y-79112123D01*
X161082500Y-79112135D01*
X161082500Y-80907870D01*
X161082501Y-80907876D01*
X161088908Y-80967483D01*
X161139202Y-81102328D01*
X161139206Y-81102335D01*
X161225452Y-81217544D01*
X161225455Y-81217547D01*
X161340664Y-81303793D01*
X161340671Y-81303797D01*
X161472082Y-81352810D01*
X161528016Y-81394681D01*
X161552433Y-81460145D01*
X161537582Y-81528418D01*
X161516431Y-81556673D01*
X161402889Y-81670215D01*
X161277951Y-81842179D01*
X161181444Y-82031585D01*
X161115753Y-82233760D01*
X161082500Y-82443713D01*
X161082500Y-82656286D01*
X161110921Y-82835733D01*
X161115754Y-82866243D01*
X161178060Y-83058001D01*
X161181444Y-83068414D01*
X161277951Y-83257820D01*
X161402890Y-83429786D01*
X161553213Y-83580109D01*
X161725182Y-83705050D01*
X161733946Y-83709516D01*
X161784742Y-83757491D01*
X161801536Y-83825312D01*
X161778998Y-83891447D01*
X161733946Y-83930484D01*
X161725182Y-83934949D01*
X161553213Y-84059890D01*
X161402892Y-84210211D01*
X161346097Y-84288385D01*
X161290767Y-84331051D01*
X161245779Y-84339500D01*
X160509229Y-84339500D01*
X160442190Y-84319815D01*
X160421548Y-84303181D01*
X159536819Y-83418451D01*
X159503334Y-83357128D01*
X159500500Y-83330770D01*
X159500500Y-70212230D01*
X159520185Y-70145191D01*
X159536819Y-70124549D01*
X160040549Y-69620819D01*
X160101872Y-69587334D01*
X160128230Y-69584500D01*
X161245779Y-69584500D01*
X161312818Y-69604185D01*
X161346097Y-69635615D01*
X161402892Y-69713788D01*
X161553213Y-69864109D01*
X161725179Y-69989048D01*
X161725181Y-69989049D01*
X161725184Y-69989051D01*
X161734493Y-69993794D01*
X161785290Y-70041766D01*
X161802087Y-70109587D01*
X161779552Y-70175722D01*
X161734502Y-70214762D01*
X161725443Y-70219378D01*
X161553540Y-70344272D01*
X161553535Y-70344276D01*
X161403276Y-70494535D01*
X161403272Y-70494540D01*
X161278379Y-70666442D01*
X161181904Y-70855782D01*
X161116242Y-71057870D01*
X161116242Y-71057873D01*
X161105769Y-71124000D01*
X161999988Y-71124000D01*
X161967075Y-71181007D01*
X161933000Y-71308174D01*
X161933000Y-71439826D01*
X161967075Y-71566993D01*
X161999988Y-71624000D01*
X161105769Y-71624000D01*
X161116242Y-71690126D01*
X161116242Y-71690129D01*
X161181904Y-71892217D01*
X161278379Y-72081557D01*
X161403272Y-72253459D01*
X161403276Y-72253464D01*
X161553535Y-72403723D01*
X161553540Y-72403727D01*
X161725444Y-72528622D01*
X161734495Y-72533234D01*
X161785292Y-72581208D01*
X161802087Y-72649029D01*
X161779550Y-72715164D01*
X161734499Y-72754202D01*
X161725182Y-72758949D01*
X161553213Y-72883890D01*
X161402890Y-73034213D01*
X161277951Y-73206179D01*
X161181444Y-73395585D01*
X161115753Y-73597760D01*
X161087283Y-73777512D01*
X161082500Y-73807713D01*
X161082500Y-74020287D01*
X161094414Y-74095511D01*
X161111881Y-74205794D01*
X161115754Y-74230243D01*
X161176245Y-74416415D01*
X161181444Y-74432414D01*
X161277951Y-74621820D01*
X161402890Y-74793786D01*
X161553213Y-74944109D01*
X161725182Y-75069050D01*
X161733946Y-75073516D01*
X161784742Y-75121491D01*
X161801536Y-75189312D01*
X161778998Y-75255447D01*
X161733946Y-75294484D01*
X161725182Y-75298949D01*
X161553213Y-75423890D01*
X161402890Y-75574213D01*
X161277951Y-75746179D01*
X161181444Y-75935585D01*
X161115753Y-76137760D01*
X161082500Y-76347713D01*
X161082500Y-76560286D01*
X161110687Y-76738256D01*
X161115754Y-76770243D01*
X161170669Y-76939254D01*
X161181444Y-76972414D01*
X161277951Y-77161820D01*
X161402890Y-77333786D01*
X161553213Y-77484109D01*
X161725179Y-77609048D01*
X161725181Y-77609049D01*
X161725184Y-77609051D01*
X161914588Y-77705557D01*
X162116757Y-77771246D01*
X162326713Y-77804500D01*
X162326714Y-77804500D01*
X162539286Y-77804500D01*
X162539287Y-77804500D01*
X162749243Y-77771246D01*
X162951412Y-77705557D01*
X163140816Y-77609051D01*
X163238174Y-77538317D01*
X163312786Y-77484109D01*
X163312788Y-77484106D01*
X163312792Y-77484104D01*
X163463104Y-77333792D01*
X163463106Y-77333788D01*
X163463109Y-77333786D01*
X163588048Y-77161820D01*
X163588047Y-77161820D01*
X163588051Y-77161816D01*
X163684557Y-76972412D01*
X163750246Y-76770243D01*
X163783500Y-76560287D01*
X163783500Y-76347713D01*
X163750246Y-76137757D01*
X163684557Y-75935588D01*
X163588051Y-75746184D01*
X163588049Y-75746181D01*
X163588048Y-75746179D01*
X163463109Y-75574213D01*
X163312786Y-75423890D01*
X163140820Y-75298951D01*
X163140115Y-75298591D01*
X163132054Y-75294485D01*
X163081259Y-75246512D01*
X163064463Y-75178692D01*
X163086999Y-75112556D01*
X163132054Y-75073515D01*
X163140816Y-75069051D01*
X163182868Y-75038499D01*
X163312786Y-74944109D01*
X163312788Y-74944106D01*
X163312792Y-74944104D01*
X163463104Y-74793792D01*
X163463106Y-74793788D01*
X163463109Y-74793786D01*
X163588048Y-74621820D01*
X163588049Y-74621819D01*
X163588051Y-74621816D01*
X163684557Y-74432412D01*
X163750246Y-74230243D01*
X163783500Y-74020287D01*
X163783500Y-73807713D01*
X163750246Y-73597757D01*
X163684557Y-73395588D01*
X163588051Y-73206184D01*
X163588049Y-73206181D01*
X163588048Y-73206179D01*
X163463109Y-73034213D01*
X163312786Y-72883890D01*
X163140817Y-72758949D01*
X163131504Y-72754204D01*
X163080707Y-72706230D01*
X163063912Y-72638409D01*
X163086449Y-72572274D01*
X163131507Y-72533232D01*
X163140558Y-72528620D01*
X163312459Y-72403727D01*
X163312464Y-72403723D01*
X163462723Y-72253464D01*
X163462727Y-72253459D01*
X163587620Y-72081557D01*
X163684095Y-71892217D01*
X163749757Y-71690129D01*
X163749757Y-71690126D01*
X163760231Y-71624000D01*
X162866012Y-71624000D01*
X162898925Y-71566993D01*
X162933000Y-71439826D01*
X162933000Y-71308174D01*
X162898925Y-71181007D01*
X162866012Y-71124000D01*
X163760231Y-71124000D01*
X163749757Y-71057873D01*
X163749757Y-71057870D01*
X163684095Y-70855782D01*
X163587620Y-70666442D01*
X163462727Y-70494540D01*
X163462723Y-70494535D01*
X163312464Y-70344276D01*
X163312459Y-70344272D01*
X163140555Y-70219377D01*
X163131500Y-70214763D01*
X163080706Y-70166788D01*
X163063912Y-70098966D01*
X163086451Y-70032832D01*
X163131508Y-69993793D01*
X163140816Y-69989051D01*
X163220007Y-69931515D01*
X163312786Y-69864109D01*
X163312788Y-69864106D01*
X163312792Y-69864104D01*
X163463104Y-69713792D01*
X163463106Y-69713788D01*
X163463109Y-69713786D01*
X163588048Y-69541820D01*
X163588047Y-69541820D01*
X163588051Y-69541816D01*
X163684557Y-69352412D01*
X163750246Y-69150243D01*
X163783500Y-68940287D01*
X163783500Y-68727713D01*
X163750246Y-68517757D01*
X163684557Y-68315588D01*
X163588051Y-68126184D01*
X163588049Y-68126181D01*
X163588048Y-68126179D01*
X163463109Y-67954213D01*
X163312786Y-67803890D01*
X163140820Y-67678951D01*
X163140115Y-67678591D01*
X163132054Y-67674485D01*
X163081259Y-67626512D01*
X163064463Y-67558692D01*
X163086999Y-67492556D01*
X163132054Y-67453515D01*
X163140816Y-67449051D01*
X163162789Y-67433086D01*
X163312786Y-67324109D01*
X163312788Y-67324106D01*
X163312792Y-67324104D01*
X163463104Y-67173792D01*
X163463106Y-67173788D01*
X163463109Y-67173786D01*
X163588049Y-67001819D01*
X163595497Y-66987203D01*
X163643473Y-66936408D01*
X163705981Y-66919500D01*
X164789548Y-66919500D01*
X164856587Y-66939185D01*
G37*
G04 #@! TD.AperFunction*
G04 #@! TA.AperFunction,Conductor*
G36*
X170411900Y-78369185D02*
G01*
X170457655Y-78421989D01*
X170459422Y-78426047D01*
X170493676Y-78508745D01*
X170493685Y-78508762D01*
X170609720Y-78709743D01*
X170609721Y-78709745D01*
X170751009Y-78893875D01*
X170751015Y-78893882D01*
X170915117Y-79057984D01*
X170915124Y-79057990D01*
X171099254Y-79199278D01*
X171099256Y-79199279D01*
X171300237Y-79315314D01*
X171300240Y-79315315D01*
X171300248Y-79315320D01*
X171470828Y-79385977D01*
X171474358Y-79387439D01*
X171528761Y-79431280D01*
X171550826Y-79497574D01*
X171533547Y-79565273D01*
X171482410Y-79612884D01*
X171474358Y-79616561D01*
X171300254Y-79688677D01*
X171300237Y-79688685D01*
X171099256Y-79804720D01*
X171099254Y-79804721D01*
X170915124Y-79946009D01*
X170915117Y-79946015D01*
X170751015Y-80110117D01*
X170751009Y-80110124D01*
X170609721Y-80294254D01*
X170609720Y-80294256D01*
X170493685Y-80495237D01*
X170493676Y-80495254D01*
X170459422Y-80577953D01*
X170415581Y-80632356D01*
X170349287Y-80654421D01*
X170344861Y-80654500D01*
X166562389Y-80654500D01*
X166501971Y-80666518D01*
X166458743Y-80675116D01*
X166441546Y-80678537D01*
X166327716Y-80725687D01*
X166327707Y-80725692D01*
X166225268Y-80794140D01*
X166181705Y-80837703D01*
X166138142Y-80881267D01*
X166138139Y-80881270D01*
X165623358Y-81396052D01*
X165131229Y-81888181D01*
X165069906Y-81921666D01*
X165043548Y-81924500D01*
X163705981Y-81924500D01*
X163638942Y-81904815D01*
X163595497Y-81856797D01*
X163588049Y-81842180D01*
X163463109Y-81670213D01*
X163349569Y-81556673D01*
X163316084Y-81495350D01*
X163321068Y-81425658D01*
X163362940Y-81369725D01*
X163393915Y-81352810D01*
X163525331Y-81303796D01*
X163640546Y-81217546D01*
X163726796Y-81102331D01*
X163777091Y-80967483D01*
X163783500Y-80907873D01*
X163783500Y-80759500D01*
X163803185Y-80692461D01*
X163855989Y-80646706D01*
X163907500Y-80635500D01*
X164907608Y-80635500D01*
X164907608Y-80635499D01*
X164984607Y-80620184D01*
X165028452Y-80611463D01*
X165061792Y-80597652D01*
X165142286Y-80564312D01*
X165193509Y-80530084D01*
X165244733Y-80495858D01*
X165331858Y-80408733D01*
X165331859Y-80408731D01*
X165338925Y-80401665D01*
X165338927Y-80401661D01*
X167354771Y-78385819D01*
X167416094Y-78352334D01*
X167442452Y-78349500D01*
X170344861Y-78349500D01*
X170411900Y-78369185D01*
G37*
G04 #@! TD.AperFunction*
G04 #@! TA.AperFunction,Conductor*
G36*
X151044639Y-66895185D02*
G01*
X151088085Y-66943205D01*
X151110503Y-66987203D01*
X151117951Y-67001819D01*
X151242890Y-67173786D01*
X151393213Y-67324109D01*
X151565182Y-67449050D01*
X151573946Y-67453516D01*
X151624742Y-67501491D01*
X151641536Y-67569312D01*
X151618998Y-67635447D01*
X151573946Y-67674484D01*
X151565182Y-67678949D01*
X151393213Y-67803890D01*
X151242890Y-67954213D01*
X151117951Y-68126179D01*
X151021444Y-68315585D01*
X150955753Y-68517760D01*
X150935234Y-68647314D01*
X150922500Y-68727713D01*
X150922500Y-68940287D01*
X150924046Y-68950045D01*
X150953612Y-69136724D01*
X150955754Y-69150243D01*
X150988200Y-69250102D01*
X151021444Y-69352414D01*
X151117951Y-69541820D01*
X151242890Y-69713786D01*
X151393213Y-69864109D01*
X151565179Y-69989048D01*
X151565181Y-69989049D01*
X151565184Y-69989051D01*
X151574493Y-69993794D01*
X151625290Y-70041766D01*
X151642087Y-70109587D01*
X151619552Y-70175722D01*
X151574502Y-70214762D01*
X151565443Y-70219378D01*
X151393540Y-70344272D01*
X151393535Y-70344276D01*
X151243276Y-70494535D01*
X151243272Y-70494540D01*
X151118379Y-70666442D01*
X151021904Y-70855782D01*
X150956242Y-71057870D01*
X150956242Y-71057873D01*
X150945769Y-71124000D01*
X151839988Y-71124000D01*
X151807075Y-71181007D01*
X151773000Y-71308174D01*
X151773000Y-71439826D01*
X151807075Y-71566993D01*
X151839988Y-71624000D01*
X150945769Y-71624000D01*
X150956242Y-71690126D01*
X150956242Y-71690129D01*
X151021904Y-71892217D01*
X151118379Y-72081557D01*
X151243272Y-72253459D01*
X151243276Y-72253464D01*
X151393535Y-72403723D01*
X151393540Y-72403727D01*
X151565444Y-72528622D01*
X151574495Y-72533234D01*
X151625292Y-72581208D01*
X151642087Y-72649029D01*
X151619550Y-72715164D01*
X151574499Y-72754202D01*
X151565182Y-72758949D01*
X151393213Y-72883890D01*
X151242890Y-73034213D01*
X151117950Y-73206180D01*
X151110503Y-73220797D01*
X151062527Y-73271592D01*
X151000019Y-73288500D01*
X150403741Y-73288500D01*
X150403721Y-73288499D01*
X150397607Y-73288499D01*
X150274394Y-73288499D01*
X150173597Y-73308548D01*
X150173592Y-73308548D01*
X150153549Y-73312536D01*
X150153547Y-73312536D01*
X150106397Y-73332067D01*
X150039719Y-73359685D01*
X150039717Y-73359686D01*
X149937266Y-73428141D01*
X149937263Y-73428144D01*
X149101269Y-74264140D01*
X149014144Y-74351264D01*
X149014138Y-74351272D01*
X148945690Y-74453708D01*
X148945688Y-74453713D01*
X148917838Y-74520948D01*
X148917838Y-74520951D01*
X148902291Y-74558487D01*
X148898537Y-74567549D01*
X148898535Y-74567556D01*
X148874500Y-74688389D01*
X148874500Y-77707650D01*
X148869169Y-77725804D01*
X148868828Y-77744725D01*
X148855339Y-77772903D01*
X148854815Y-77774689D01*
X148853589Y-77776560D01*
X148852589Y-77778056D01*
X148798969Y-77822851D01*
X148729642Y-77831546D01*
X148666620Y-77801379D01*
X148629912Y-77741929D01*
X148625500Y-77709146D01*
X148625500Y-76938396D01*
X148625500Y-76938394D01*
X148623416Y-76927919D01*
X148623416Y-76927915D01*
X148601464Y-76817554D01*
X148601463Y-76817553D01*
X148601463Y-76817549D01*
X148601460Y-76817543D01*
X148601459Y-76817538D01*
X148554314Y-76703718D01*
X148554312Y-76703715D01*
X148554312Y-76703714D01*
X148520084Y-76652490D01*
X148485858Y-76601267D01*
X148398733Y-76514142D01*
X148398729Y-76514139D01*
X147928198Y-76043608D01*
X147928178Y-76043586D01*
X147836733Y-75952141D01*
X147791325Y-75921801D01*
X147791324Y-75921800D01*
X147785509Y-75917915D01*
X147734286Y-75883688D01*
X147653792Y-75850347D01*
X147638457Y-75843995D01*
X147620453Y-75836537D01*
X147610427Y-75834543D01*
X147560029Y-75824518D01*
X147499610Y-75812500D01*
X147499607Y-75812500D01*
X147499606Y-75812500D01*
X144202088Y-75812500D01*
X144135049Y-75792815D01*
X144089294Y-75740011D01*
X144079350Y-75670853D01*
X144079615Y-75669102D01*
X144090783Y-75598588D01*
X144102500Y-75524611D01*
X144102500Y-75351389D01*
X144075402Y-75180299D01*
X144021873Y-75015555D01*
X143943232Y-74861212D01*
X143841414Y-74721072D01*
X143718928Y-74598586D01*
X143635975Y-74538317D01*
X143593311Y-74482988D01*
X143587332Y-74413374D01*
X143619938Y-74351579D01*
X143635976Y-74337682D01*
X143718928Y-74277414D01*
X143841414Y-74154928D01*
X143870705Y-74114613D01*
X143926035Y-74071948D01*
X143971022Y-74063500D01*
X144373607Y-74063500D01*
X144434029Y-74051481D01*
X144494452Y-74039463D01*
X144540747Y-74020287D01*
X144608286Y-73992312D01*
X144692239Y-73936215D01*
X144710733Y-73923858D01*
X144797858Y-73836733D01*
X144797860Y-73836729D01*
X145648729Y-72985860D01*
X145648733Y-72985858D01*
X145735858Y-72898733D01*
X145804311Y-72796286D01*
X145851463Y-72682452D01*
X145860224Y-72638409D01*
X145866092Y-72608911D01*
X145872502Y-72576680D01*
X145875500Y-72561607D01*
X145875500Y-72438394D01*
X145875500Y-68060452D01*
X145895185Y-67993413D01*
X145911819Y-67972771D01*
X146972772Y-66911819D01*
X147034095Y-66878334D01*
X147060453Y-66875500D01*
X150977600Y-66875500D01*
X151044639Y-66895185D01*
G37*
G04 #@! TD.AperFunction*
G04 #@! TA.AperFunction,Conductor*
G36*
X165110587Y-64399185D02*
G01*
X165131229Y-64415819D01*
X168167016Y-67451606D01*
X168167045Y-67451637D01*
X168257263Y-67541855D01*
X168257267Y-67541858D01*
X168359707Y-67610307D01*
X168359713Y-67610310D01*
X168359714Y-67610311D01*
X168473548Y-67657463D01*
X168533971Y-67669481D01*
X168594393Y-67681500D01*
X168594394Y-67681500D01*
X170344861Y-67681500D01*
X170411900Y-67701185D01*
X170457655Y-67753989D01*
X170459422Y-67758047D01*
X170493676Y-67840745D01*
X170493685Y-67840762D01*
X170609720Y-68041743D01*
X170609721Y-68041745D01*
X170751009Y-68225875D01*
X170751015Y-68225882D01*
X170915117Y-68389984D01*
X170915124Y-68389990D01*
X171099254Y-68531278D01*
X171099256Y-68531279D01*
X171300237Y-68647314D01*
X171300240Y-68647315D01*
X171300248Y-68647320D01*
X171470756Y-68717947D01*
X171474358Y-68719439D01*
X171528761Y-68763280D01*
X171550826Y-68829574D01*
X171533547Y-68897273D01*
X171482410Y-68944884D01*
X171474358Y-68948561D01*
X171300254Y-69020677D01*
X171300237Y-69020685D01*
X171099256Y-69136720D01*
X171099254Y-69136721D01*
X170915124Y-69278009D01*
X170915117Y-69278015D01*
X170751015Y-69442117D01*
X170751009Y-69442124D01*
X170609721Y-69626254D01*
X170609720Y-69626256D01*
X170493685Y-69827237D01*
X170493677Y-69827254D01*
X170404862Y-70041671D01*
X170344794Y-70265851D01*
X170314500Y-70495947D01*
X170314500Y-70728052D01*
X170344794Y-70958148D01*
X170404862Y-71182328D01*
X170493677Y-71396745D01*
X170493685Y-71396762D01*
X170609720Y-71597743D01*
X170609721Y-71597745D01*
X170751009Y-71781875D01*
X170751015Y-71781882D01*
X170915117Y-71945984D01*
X170915124Y-71945990D01*
X171099254Y-72087278D01*
X171099256Y-72087279D01*
X171300237Y-72203314D01*
X171300240Y-72203315D01*
X171300248Y-72203320D01*
X171470775Y-72273955D01*
X171474358Y-72275439D01*
X171528761Y-72319280D01*
X171550826Y-72385574D01*
X171533547Y-72453273D01*
X171482410Y-72500884D01*
X171474358Y-72504561D01*
X171300254Y-72576677D01*
X171300237Y-72576685D01*
X171099256Y-72692720D01*
X171099254Y-72692721D01*
X170915124Y-72834009D01*
X170915117Y-72834015D01*
X170751015Y-72998117D01*
X170751009Y-72998124D01*
X170609721Y-73182254D01*
X170609720Y-73182256D01*
X170493685Y-73383237D01*
X170493676Y-73383254D01*
X170459422Y-73465953D01*
X170415581Y-73520356D01*
X170349287Y-73542421D01*
X170344861Y-73542500D01*
X168331453Y-73542500D01*
X168264414Y-73522815D01*
X168243772Y-73506181D01*
X167158819Y-72421228D01*
X167125334Y-72359905D01*
X167122500Y-72333547D01*
X167122500Y-67629393D01*
X167122499Y-67629389D01*
X167110549Y-67569312D01*
X167098463Y-67508548D01*
X167051311Y-67394714D01*
X167051310Y-67394713D01*
X167051307Y-67394707D01*
X166982859Y-67292268D01*
X166943723Y-67253132D01*
X166895733Y-67205142D01*
X166895732Y-67205141D01*
X165585859Y-65895269D01*
X165585858Y-65895267D01*
X165498733Y-65808142D01*
X165432884Y-65764143D01*
X165426660Y-65759984D01*
X165426653Y-65759978D01*
X165396288Y-65739689D01*
X165396286Y-65739688D01*
X165315792Y-65706347D01*
X165282452Y-65692537D01*
X165222029Y-65680518D01*
X165217306Y-65679578D01*
X165217304Y-65679578D01*
X165161610Y-65668500D01*
X165161607Y-65668500D01*
X165161606Y-65668500D01*
X163705981Y-65668500D01*
X163638942Y-65648815D01*
X163595497Y-65600797D01*
X163588049Y-65586180D01*
X163463109Y-65414213D01*
X163349569Y-65300673D01*
X163316084Y-65239350D01*
X163321068Y-65169658D01*
X163362940Y-65113725D01*
X163393915Y-65096810D01*
X163525331Y-65047796D01*
X163640546Y-64961546D01*
X163726796Y-64846331D01*
X163777091Y-64711483D01*
X163783500Y-64651873D01*
X163783500Y-64503500D01*
X163803185Y-64436461D01*
X163855989Y-64390706D01*
X163907500Y-64379500D01*
X165043548Y-64379500D01*
X165110587Y-64399185D01*
G37*
G04 #@! TD.AperFunction*
G04 #@! TA.AperFunction,Conductor*
G36*
X149478293Y-52713185D02*
G01*
X149524048Y-52765989D01*
X149531589Y-52787575D01*
X149533359Y-52794693D01*
X149533360Y-52794696D01*
X149617967Y-52965292D01*
X149617969Y-52965295D01*
X149737277Y-53113721D01*
X149737278Y-53113722D01*
X149885704Y-53233030D01*
X149885707Y-53233032D01*
X150056302Y-53317639D01*
X150056303Y-53317639D01*
X150056307Y-53317641D01*
X150241111Y-53363600D01*
X150283877Y-53366500D01*
X151186122Y-53366499D01*
X151228889Y-53363600D01*
X151413693Y-53317641D01*
X151584296Y-53233030D01*
X151732722Y-53113722D01*
X151788353Y-53044514D01*
X151845696Y-53004595D01*
X151915518Y-53002015D01*
X151975651Y-53037594D01*
X151981647Y-53044514D01*
X152037277Y-53113721D01*
X152037278Y-53113722D01*
X152185704Y-53233030D01*
X152215594Y-53247854D01*
X152266907Y-53295275D01*
X152284500Y-53358942D01*
X152284500Y-56541500D01*
X152264815Y-56608539D01*
X152212011Y-56654294D01*
X152160500Y-56665500D01*
X151576971Y-56665500D01*
X151576965Y-56665500D01*
X151576964Y-56665501D01*
X151565316Y-56666536D01*
X151457584Y-56676113D01*
X151261954Y-56732089D01*
X151255323Y-56735553D01*
X151081593Y-56826302D01*
X151081591Y-56826303D01*
X151081590Y-56826304D01*
X150923890Y-56954890D01*
X150795304Y-57112590D01*
X150795302Y-57112593D01*
X150750690Y-57197998D01*
X150701089Y-57292954D01*
X150645114Y-57488583D01*
X150645113Y-57488586D01*
X150634500Y-57607966D01*
X150634500Y-58724028D01*
X150634500Y-58724033D01*
X150634501Y-58724036D01*
X150635215Y-58732062D01*
X150645113Y-58843415D01*
X150701089Y-59039045D01*
X150701090Y-59039048D01*
X150701091Y-59039049D01*
X150795302Y-59219407D01*
X150809551Y-59236882D01*
X150923890Y-59377109D01*
X150999565Y-59438813D01*
X151081593Y-59505698D01*
X151261951Y-59599909D01*
X151457582Y-59655886D01*
X151576963Y-59666500D01*
X154493036Y-59666499D01*
X154612418Y-59655886D01*
X154808049Y-59599909D01*
X154988407Y-59505698D01*
X155146109Y-59377109D01*
X155148141Y-59374616D01*
X155149606Y-59373611D01*
X155150551Y-59372667D01*
X155150726Y-59372842D01*
X155160762Y-59365959D01*
X155169935Y-59353707D01*
X155188987Y-59346600D01*
X155205758Y-59335098D01*
X155221057Y-59334639D01*
X155235399Y-59329290D01*
X155255270Y-59333612D01*
X155275596Y-59333003D01*
X155289741Y-59341111D01*
X155303672Y-59344142D01*
X155331923Y-59365291D01*
X155372549Y-59405916D01*
X155423181Y-59456548D01*
X155456666Y-59517871D01*
X155459500Y-59544229D01*
X155459500Y-67201770D01*
X155439815Y-67268809D01*
X155423181Y-67289451D01*
X154665451Y-68047181D01*
X154604128Y-68080666D01*
X154577770Y-68083500D01*
X153460221Y-68083500D01*
X153393182Y-68063815D01*
X153359903Y-68032385D01*
X153303107Y-67954211D01*
X153152786Y-67803890D01*
X152980820Y-67678951D01*
X152980115Y-67678591D01*
X152972054Y-67674485D01*
X152921259Y-67626512D01*
X152904463Y-67558692D01*
X152926999Y-67492556D01*
X152972054Y-67453515D01*
X152980816Y-67449051D01*
X153002789Y-67433086D01*
X153152786Y-67324109D01*
X153152788Y-67324106D01*
X153152792Y-67324104D01*
X153303104Y-67173792D01*
X153303106Y-67173788D01*
X153303109Y-67173786D01*
X153428048Y-67001820D01*
X153428049Y-67001819D01*
X153428051Y-67001816D01*
X153524557Y-66812412D01*
X153590246Y-66610243D01*
X153623500Y-66400287D01*
X153623500Y-66187713D01*
X153590246Y-65977757D01*
X153524557Y-65775588D01*
X153428051Y-65586184D01*
X153428049Y-65586181D01*
X153428048Y-65586179D01*
X153303109Y-65414213D01*
X153189569Y-65300673D01*
X153156084Y-65239350D01*
X153161068Y-65169658D01*
X153202940Y-65113725D01*
X153233915Y-65096810D01*
X153365331Y-65047796D01*
X153480546Y-64961546D01*
X153566796Y-64846331D01*
X153617091Y-64711483D01*
X153623500Y-64651873D01*
X153623499Y-62856128D01*
X153617091Y-62796517D01*
X153566796Y-62661669D01*
X153566795Y-62661668D01*
X153566793Y-62661664D01*
X153480547Y-62546455D01*
X153480544Y-62546452D01*
X153365335Y-62460206D01*
X153365328Y-62460202D01*
X153230482Y-62409908D01*
X153230483Y-62409908D01*
X153170883Y-62403501D01*
X153170881Y-62403500D01*
X153170873Y-62403500D01*
X153170864Y-62403500D01*
X151375129Y-62403500D01*
X151375123Y-62403501D01*
X151315516Y-62409908D01*
X151180671Y-62460202D01*
X151180664Y-62460206D01*
X151065455Y-62546452D01*
X151065452Y-62546455D01*
X150979206Y-62661664D01*
X150979202Y-62661671D01*
X150928908Y-62796517D01*
X150922501Y-62856116D01*
X150922501Y-62856123D01*
X150922500Y-62856135D01*
X150922500Y-64651870D01*
X150922501Y-64651876D01*
X150928908Y-64711483D01*
X150979202Y-64846328D01*
X150979206Y-64846335D01*
X151065452Y-64961544D01*
X151065455Y-64961547D01*
X151180664Y-65047793D01*
X151180671Y-65047797D01*
X151312082Y-65096810D01*
X151368016Y-65138681D01*
X151392433Y-65204145D01*
X151377582Y-65272418D01*
X151356431Y-65300673D01*
X151242889Y-65414215D01*
X151127247Y-65573385D01*
X151071918Y-65616051D01*
X151026929Y-65624500D01*
X146688389Y-65624500D01*
X146627971Y-65636518D01*
X146584743Y-65645116D01*
X146567546Y-65648537D01*
X146453716Y-65695687D01*
X146387864Y-65739689D01*
X146387863Y-65739690D01*
X146351266Y-65764143D01*
X146351262Y-65764145D01*
X145220224Y-66895185D01*
X144851269Y-67264140D01*
X144851267Y-67264142D01*
X144825958Y-67289451D01*
X144764142Y-67351266D01*
X144735111Y-67394715D01*
X144735110Y-67394716D01*
X144695690Y-67453709D01*
X144695685Y-67453718D01*
X144648540Y-67567538D01*
X144648535Y-67567554D01*
X144626379Y-67678941D01*
X144626380Y-67678942D01*
X144624500Y-67688394D01*
X144624500Y-72189548D01*
X144604815Y-72256587D01*
X144588181Y-72277229D01*
X144089229Y-72776181D01*
X144062301Y-72790884D01*
X144036483Y-72807477D01*
X144030282Y-72808368D01*
X144027906Y-72809666D01*
X144001548Y-72812500D01*
X143971022Y-72812500D01*
X143903983Y-72792815D01*
X143870705Y-72761387D01*
X143841414Y-72721072D01*
X143718930Y-72598588D01*
X143718928Y-72598586D01*
X143578788Y-72496768D01*
X143424445Y-72418127D01*
X143259701Y-72364598D01*
X143259699Y-72364597D01*
X143259698Y-72364597D01*
X143128271Y-72343781D01*
X143088611Y-72337500D01*
X142915389Y-72337500D01*
X142875728Y-72343781D01*
X142744302Y-72364597D01*
X142579552Y-72418128D01*
X142425211Y-72496768D01*
X142375021Y-72533234D01*
X142285072Y-72598586D01*
X142285070Y-72598588D01*
X142285069Y-72598588D01*
X142162588Y-72721069D01*
X142162588Y-72721070D01*
X142162586Y-72721072D01*
X142107775Y-72796513D01*
X142052445Y-72839178D01*
X141994855Y-72846985D01*
X141902011Y-72837500D01*
X141101998Y-72837500D01*
X141101980Y-72837501D01*
X140999203Y-72848000D01*
X140999200Y-72848001D01*
X140832668Y-72903185D01*
X140832663Y-72903187D01*
X140683342Y-72995289D01*
X140559287Y-73119344D01*
X140553580Y-73128598D01*
X140501632Y-73175322D01*
X140448042Y-73187500D01*
X140094343Y-73187500D01*
X140027304Y-73167815D01*
X139981549Y-73115011D01*
X139971605Y-73045853D01*
X140000630Y-72982297D01*
X140059408Y-72944523D01*
X140062250Y-72943725D01*
X140194580Y-72908267D01*
X140454957Y-72800415D01*
X140454968Y-72800410D01*
X140699031Y-72659499D01*
X140699039Y-72659493D01*
X140835347Y-72554900D01*
X140120533Y-71840086D01*
X140251175Y-71745171D01*
X140379171Y-71617175D01*
X140474086Y-71486533D01*
X141188900Y-72201347D01*
X141293493Y-72065039D01*
X141293499Y-72065031D01*
X141434410Y-71820968D01*
X141434415Y-71820957D01*
X141542266Y-71560582D01*
X141615213Y-71288340D01*
X141651998Y-71008928D01*
X141652000Y-71008911D01*
X141652000Y-70727088D01*
X141651998Y-70727071D01*
X141615213Y-70447659D01*
X141542266Y-70175417D01*
X141434415Y-69915042D01*
X141434410Y-69915031D01*
X141293499Y-69670968D01*
X141293488Y-69670952D01*
X141188902Y-69534651D01*
X141188900Y-69534651D01*
X140474086Y-70249465D01*
X140379171Y-70118825D01*
X140251175Y-69990829D01*
X140120532Y-69895912D01*
X140835347Y-69181098D01*
X140835347Y-69181097D01*
X140699047Y-69076511D01*
X140699031Y-69076500D01*
X140454968Y-68935589D01*
X140454957Y-68935584D01*
X140194582Y-68827733D01*
X139922340Y-68754786D01*
X139642928Y-68718001D01*
X139642911Y-68718000D01*
X139361089Y-68718000D01*
X139361071Y-68718001D01*
X139081659Y-68754786D01*
X138809417Y-68827733D01*
X138549042Y-68935584D01*
X138549038Y-68935586D01*
X138304962Y-69076505D01*
X138304955Y-69076510D01*
X138168651Y-69181097D01*
X138168651Y-69181098D01*
X138883466Y-69895913D01*
X138752825Y-69990829D01*
X138624829Y-70118825D01*
X138529913Y-70249466D01*
X137815098Y-69534651D01*
X137815097Y-69534651D01*
X137710510Y-69670955D01*
X137710505Y-69670962D01*
X137569586Y-69915038D01*
X137569584Y-69915042D01*
X137461733Y-70175417D01*
X137388786Y-70447659D01*
X137352001Y-70727071D01*
X137352000Y-70727088D01*
X137352000Y-71008911D01*
X137352001Y-71008928D01*
X137388786Y-71288340D01*
X137461733Y-71560582D01*
X137569584Y-71820957D01*
X137569589Y-71820968D01*
X137710500Y-72065031D01*
X137710511Y-72065047D01*
X137815097Y-72201347D01*
X137815098Y-72201347D01*
X138529912Y-71486532D01*
X138624829Y-71617175D01*
X138752825Y-71745171D01*
X138883465Y-71840086D01*
X138168651Y-72554900D01*
X138168651Y-72554902D01*
X138304952Y-72659488D01*
X138304968Y-72659499D01*
X138549031Y-72800410D01*
X138549042Y-72800415D01*
X138809419Y-72908267D01*
X138941750Y-72943725D01*
X139001411Y-72980090D01*
X139031940Y-73042937D01*
X139023645Y-73112313D01*
X138979160Y-73166190D01*
X138912608Y-73187465D01*
X138909657Y-73187500D01*
X137546229Y-73187500D01*
X137479190Y-73167815D01*
X137458548Y-73151181D01*
X136549819Y-72242451D01*
X136516334Y-72181128D01*
X136513500Y-72154770D01*
X136513500Y-56115230D01*
X136533185Y-56048191D01*
X136549819Y-56027549D01*
X137815549Y-54761819D01*
X137876872Y-54728334D01*
X137903230Y-54725500D01*
X140460701Y-54725500D01*
X140527740Y-54745185D01*
X140573495Y-54797989D01*
X140584701Y-54849500D01*
X140584701Y-54872876D01*
X140591108Y-54932483D01*
X140641402Y-55067328D01*
X140641406Y-55067335D01*
X140727652Y-55182544D01*
X140727655Y-55182547D01*
X140842864Y-55268793D01*
X140842871Y-55268797D01*
X140858387Y-55274584D01*
X140974798Y-55318002D01*
X141030731Y-55359873D01*
X141055149Y-55425337D01*
X141040298Y-55493610D01*
X141019147Y-55521865D01*
X140905471Y-55635541D01*
X140780579Y-55807442D01*
X140684104Y-55996782D01*
X140618442Y-56198870D01*
X140618442Y-56198873D01*
X140607969Y-56265000D01*
X141502188Y-56265000D01*
X141469275Y-56322007D01*
X141435200Y-56449174D01*
X141435200Y-56580826D01*
X141469275Y-56707993D01*
X141502188Y-56765000D01*
X140607969Y-56765000D01*
X140618442Y-56831126D01*
X140618442Y-56831129D01*
X140684104Y-57033217D01*
X140780579Y-57222557D01*
X140905472Y-57394459D01*
X140905476Y-57394464D01*
X141055735Y-57544723D01*
X141055740Y-57544727D01*
X141227642Y-57669620D01*
X141416982Y-57766095D01*
X141619071Y-57831757D01*
X141685200Y-57842231D01*
X141685200Y-56948012D01*
X141742207Y-56980925D01*
X141869374Y-57015000D01*
X142001026Y-57015000D01*
X142128193Y-56980925D01*
X142185200Y-56948012D01*
X142185200Y-57842230D01*
X142251326Y-57831757D01*
X142251329Y-57831757D01*
X142453417Y-57766095D01*
X142642757Y-57669620D01*
X142814659Y-57544727D01*
X142814664Y-57544723D01*
X142964923Y-57394464D01*
X142964927Y-57394459D01*
X143089820Y-57222557D01*
X143186295Y-57033217D01*
X143251957Y-56831129D01*
X143251957Y-56831126D01*
X143262431Y-56765000D01*
X142368212Y-56765000D01*
X142401125Y-56707993D01*
X142435200Y-56580826D01*
X142435200Y-56449174D01*
X142401125Y-56322007D01*
X142368212Y-56265000D01*
X143262431Y-56265000D01*
X143259023Y-56243486D01*
X145967001Y-56243486D01*
X145977494Y-56346197D01*
X146032641Y-56512619D01*
X146032643Y-56512624D01*
X146124684Y-56661845D01*
X146248654Y-56785815D01*
X146397875Y-56877856D01*
X146397880Y-56877858D01*
X146564302Y-56933005D01*
X146564309Y-56933006D01*
X146667019Y-56943499D01*
X146941999Y-56943499D01*
X147442000Y-56943499D01*
X147716972Y-56943499D01*
X147716986Y-56943498D01*
X147819697Y-56933005D01*
X147986119Y-56877858D01*
X147986124Y-56877856D01*
X148135345Y-56785815D01*
X148259315Y-56661845D01*
X148351356Y-56512624D01*
X148351358Y-56512619D01*
X148406505Y-56346197D01*
X148406506Y-56346190D01*
X148416999Y-56243486D01*
X148417000Y-56243473D01*
X148417000Y-56106000D01*
X147442000Y-56106000D01*
X147442000Y-56943499D01*
X146941999Y-56943499D01*
X146942000Y-56943498D01*
X146942000Y-56106000D01*
X145967001Y-56106000D01*
X145967001Y-56243486D01*
X143259023Y-56243486D01*
X143251957Y-56198873D01*
X143251957Y-56198870D01*
X143217544Y-56092956D01*
X143186295Y-55996782D01*
X143089820Y-55807442D01*
X142964927Y-55635540D01*
X142964923Y-55635535D01*
X142851253Y-55521865D01*
X142817768Y-55460542D01*
X142822752Y-55390850D01*
X142864624Y-55334917D01*
X142895600Y-55318002D01*
X143027531Y-55268796D01*
X143142746Y-55182546D01*
X143228996Y-55067331D01*
X143279291Y-54932483D01*
X143285700Y-54872873D01*
X143285700Y-54849500D01*
X143305385Y-54782461D01*
X143358189Y-54736706D01*
X143409700Y-54725500D01*
X146149977Y-54725500D01*
X146217016Y-54745185D01*
X146262771Y-54797989D01*
X146272715Y-54867147D01*
X146243690Y-54930703D01*
X146237658Y-54937181D01*
X146124684Y-55050154D01*
X146032643Y-55199375D01*
X146032641Y-55199380D01*
X145977494Y-55365802D01*
X145977493Y-55365809D01*
X145967000Y-55468513D01*
X145967000Y-55606000D01*
X148416999Y-55606000D01*
X148416999Y-55468528D01*
X148416998Y-55468513D01*
X148406505Y-55365802D01*
X148351358Y-55199380D01*
X148351356Y-55199375D01*
X148259315Y-55050154D01*
X148135344Y-54926183D01*
X148135341Y-54926181D01*
X148132339Y-54924329D01*
X148130713Y-54922521D01*
X148129677Y-54921702D01*
X148129817Y-54921524D01*
X148085617Y-54872380D01*
X148074397Y-54803417D01*
X148102243Y-54739336D01*
X148132344Y-54713254D01*
X148135656Y-54711212D01*
X148259712Y-54587156D01*
X148351814Y-54437834D01*
X148406999Y-54271297D01*
X148417500Y-54168509D01*
X148417499Y-53393492D01*
X148417351Y-53392048D01*
X148406999Y-53290703D01*
X148406998Y-53290700D01*
X148388178Y-53233905D01*
X148351814Y-53124166D01*
X148259712Y-52974844D01*
X148190049Y-52905181D01*
X148156564Y-52843858D01*
X148161548Y-52774166D01*
X148203420Y-52718233D01*
X148268884Y-52693816D01*
X148277730Y-52693500D01*
X149411254Y-52693500D01*
X149478293Y-52713185D01*
G37*
G04 #@! TD.AperFunction*
G04 #@! TA.AperFunction,Conductor*
G36*
X174837809Y-49030185D02*
G01*
X174858451Y-49046819D01*
X178410181Y-52598549D01*
X178443666Y-52659872D01*
X178446500Y-52686230D01*
X178446500Y-70376770D01*
X178426815Y-70443809D01*
X178410181Y-70464451D01*
X177271451Y-71603181D01*
X177210128Y-71636666D01*
X177183770Y-71639500D01*
X176815687Y-71639500D01*
X176748648Y-71619815D01*
X176708300Y-71577499D01*
X176608279Y-71404256D01*
X176608278Y-71404254D01*
X176466990Y-71220124D01*
X176466984Y-71220117D01*
X176302882Y-71056015D01*
X176302875Y-71056009D01*
X176118745Y-70914721D01*
X176118743Y-70914720D01*
X175917762Y-70798685D01*
X175917754Y-70798681D01*
X175917752Y-70798680D01*
X175743639Y-70726559D01*
X175689238Y-70682720D01*
X175667173Y-70616426D01*
X175684452Y-70548727D01*
X175735589Y-70501116D01*
X175743628Y-70497444D01*
X175917752Y-70425320D01*
X176112521Y-70312871D01*
X176118743Y-70309279D01*
X176118745Y-70309278D01*
X176118748Y-70309276D01*
X176302877Y-70167989D01*
X176466989Y-70003877D01*
X176608276Y-69819748D01*
X176724320Y-69618752D01*
X176813137Y-69404330D01*
X176873206Y-69180149D01*
X176903500Y-68950045D01*
X176903500Y-68717955D01*
X176873206Y-68487851D01*
X176813137Y-68263670D01*
X176724320Y-68049248D01*
X176722727Y-68046488D01*
X176608279Y-67848256D01*
X176608278Y-67848254D01*
X176466990Y-67664124D01*
X176466984Y-67664117D01*
X176302882Y-67500015D01*
X176302875Y-67500009D01*
X176118745Y-67358721D01*
X176118743Y-67358720D01*
X175917762Y-67242685D01*
X175917754Y-67242681D01*
X175917752Y-67242680D01*
X175827128Y-67205142D01*
X175703328Y-67153862D01*
X175561203Y-67115780D01*
X175479149Y-67093794D01*
X175450386Y-67090007D01*
X175249052Y-67063500D01*
X175249045Y-67063500D01*
X175016955Y-67063500D01*
X175016947Y-67063500D01*
X174786851Y-67093794D01*
X174562671Y-67153862D01*
X174348254Y-67242677D01*
X174348237Y-67242685D01*
X174147256Y-67358720D01*
X174147254Y-67358721D01*
X174032876Y-67446487D01*
X173967707Y-67471681D01*
X173899262Y-67457642D01*
X173849272Y-67408828D01*
X173833609Y-67340737D01*
X173834451Y-67331925D01*
X173834867Y-67328770D01*
X173855500Y-67172045D01*
X173855500Y-66939955D01*
X173825206Y-66709851D01*
X173765137Y-66485670D01*
X173676320Y-66271248D01*
X173628092Y-66187713D01*
X173560279Y-66070256D01*
X173560278Y-66070254D01*
X173418990Y-65886124D01*
X173418984Y-65886117D01*
X173254882Y-65722015D01*
X173254875Y-65722009D01*
X173070745Y-65580721D01*
X173070743Y-65580720D01*
X172869762Y-65464685D01*
X172869754Y-65464681D01*
X172869752Y-65464680D01*
X172869745Y-65464677D01*
X172655328Y-65375862D01*
X172513203Y-65337780D01*
X172431149Y-65315794D01*
X172402386Y-65312007D01*
X172201052Y-65285500D01*
X172201045Y-65285500D01*
X171968955Y-65285500D01*
X171968947Y-65285500D01*
X171738851Y-65315794D01*
X171514671Y-65375862D01*
X171300254Y-65464677D01*
X171300237Y-65464685D01*
X171099256Y-65580720D01*
X171099254Y-65580721D01*
X170915124Y-65722009D01*
X170915117Y-65722015D01*
X170751015Y-65886117D01*
X170751009Y-65886124D01*
X170609721Y-66070254D01*
X170609720Y-66070256D01*
X170493685Y-66271237D01*
X170493676Y-66271254D01*
X170459422Y-66353953D01*
X170415581Y-66408356D01*
X170349287Y-66430421D01*
X170344861Y-66430500D01*
X168966452Y-66430500D01*
X168899413Y-66410815D01*
X168878771Y-66394181D01*
X165847150Y-63362560D01*
X165839860Y-63355270D01*
X165839858Y-63355267D01*
X165752733Y-63268142D01*
X165701509Y-63233915D01*
X165650286Y-63199688D01*
X165650283Y-63199686D01*
X165650280Y-63199685D01*
X165576603Y-63169168D01*
X165576601Y-63169167D01*
X165569792Y-63166347D01*
X165536452Y-63152537D01*
X165476029Y-63140518D01*
X165471306Y-63139578D01*
X165471304Y-63139578D01*
X165415610Y-63128500D01*
X165415607Y-63128500D01*
X165415606Y-63128500D01*
X163907499Y-63128500D01*
X163840460Y-63108815D01*
X163794705Y-63056011D01*
X163783499Y-63004500D01*
X163783499Y-62856129D01*
X163783498Y-62856123D01*
X163783497Y-62856116D01*
X163777091Y-62796517D01*
X163726796Y-62661669D01*
X163726795Y-62661668D01*
X163726793Y-62661664D01*
X163640547Y-62546455D01*
X163640544Y-62546452D01*
X163525335Y-62460206D01*
X163525328Y-62460202D01*
X163390482Y-62409908D01*
X163390483Y-62409908D01*
X163330883Y-62403501D01*
X163330881Y-62403500D01*
X163330873Y-62403500D01*
X163330864Y-62403500D01*
X161535129Y-62403500D01*
X161535123Y-62403501D01*
X161475516Y-62409908D01*
X161340671Y-62460202D01*
X161340664Y-62460206D01*
X161225455Y-62546452D01*
X161225452Y-62546455D01*
X161139206Y-62661664D01*
X161139202Y-62661671D01*
X161088908Y-62796517D01*
X161082501Y-62856116D01*
X161082501Y-62856123D01*
X161082500Y-62856135D01*
X161082500Y-64651870D01*
X161082501Y-64651876D01*
X161088908Y-64711483D01*
X161139202Y-64846328D01*
X161139206Y-64846335D01*
X161225452Y-64961544D01*
X161225455Y-64961547D01*
X161340664Y-65047793D01*
X161340671Y-65047797D01*
X161472082Y-65096810D01*
X161528016Y-65138681D01*
X161552433Y-65204145D01*
X161537582Y-65272418D01*
X161516431Y-65300673D01*
X161402889Y-65414215D01*
X161277951Y-65586179D01*
X161181444Y-65775585D01*
X161115753Y-65977760D01*
X161101104Y-66070252D01*
X161082500Y-66187713D01*
X161082500Y-66400287D01*
X161087273Y-66430421D01*
X161115753Y-66610239D01*
X161181444Y-66812414D01*
X161277951Y-67001820D01*
X161402890Y-67173786D01*
X161553213Y-67324109D01*
X161725182Y-67449050D01*
X161733946Y-67453516D01*
X161784742Y-67501491D01*
X161801536Y-67569312D01*
X161778998Y-67635447D01*
X161733946Y-67674484D01*
X161725182Y-67678949D01*
X161553213Y-67803890D01*
X161402892Y-67954211D01*
X161346097Y-68032385D01*
X161290767Y-68075051D01*
X161245779Y-68083500D01*
X160128229Y-68083500D01*
X160061190Y-68063815D01*
X160040548Y-68047181D01*
X159409819Y-67416451D01*
X159376334Y-67355128D01*
X159373500Y-67328770D01*
X159373500Y-62211230D01*
X159393185Y-62144191D01*
X159409819Y-62123549D01*
X160675549Y-60857819D01*
X160736872Y-60824334D01*
X160763230Y-60821500D01*
X166697920Y-60821500D01*
X166795462Y-60802096D01*
X166842913Y-60792658D01*
X166979495Y-60736084D01*
X167028729Y-60703186D01*
X167102416Y-60653952D01*
X168476951Y-59279416D01*
X168559084Y-59156495D01*
X168615658Y-59019913D01*
X168625096Y-58972462D01*
X168644500Y-58874920D01*
X168644500Y-49134500D01*
X168664185Y-49067461D01*
X168716989Y-49021706D01*
X168768500Y-49010500D01*
X174770770Y-49010500D01*
X174837809Y-49030185D01*
G37*
G04 #@! TD.AperFunction*
G04 #@! TA.AperFunction,Conductor*
G36*
X187402539Y-46240185D02*
G01*
X187448294Y-46292989D01*
X187459500Y-46344500D01*
X187459500Y-108595500D01*
X187439815Y-108662539D01*
X187387011Y-108708294D01*
X187335500Y-108719500D01*
X130164500Y-108719500D01*
X130097461Y-108699815D01*
X130051706Y-108647011D01*
X130040500Y-108595500D01*
X130040500Y-104779297D01*
X131111500Y-104779297D01*
X131111500Y-105116314D01*
X131149231Y-105451187D01*
X131149233Y-105451203D01*
X131224223Y-105779759D01*
X131224227Y-105779771D01*
X131335532Y-106097860D01*
X131481752Y-106401489D01*
X131481754Y-106401492D01*
X131661054Y-106686845D01*
X131871175Y-106950329D01*
X132109477Y-107188631D01*
X132372961Y-107398752D01*
X132658314Y-107578052D01*
X132961949Y-107724275D01*
X133149129Y-107789772D01*
X133280034Y-107835578D01*
X133280046Y-107835582D01*
X133608606Y-107910573D01*
X133943492Y-107948305D01*
X133943493Y-107948306D01*
X133943496Y-107948306D01*
X134280507Y-107948306D01*
X134280507Y-107948305D01*
X134615394Y-107910573D01*
X134943954Y-107835582D01*
X135262051Y-107724275D01*
X135565686Y-107578052D01*
X135851039Y-107398752D01*
X136114523Y-107188631D01*
X136352825Y-106950329D01*
X136562946Y-106686845D01*
X136742246Y-106401492D01*
X136888469Y-106097857D01*
X136999776Y-105779760D01*
X137074767Y-105451200D01*
X137112500Y-105116310D01*
X137112500Y-104779302D01*
X137112499Y-104779297D01*
X137112499Y-104779293D01*
X137108512Y-104743899D01*
X137107339Y-104733491D01*
X180641500Y-104733491D01*
X180641500Y-105070508D01*
X180679231Y-105405381D01*
X180679233Y-105405397D01*
X180754223Y-105733953D01*
X180754227Y-105733965D01*
X180865532Y-106052054D01*
X181011752Y-106355683D01*
X181011754Y-106355686D01*
X181191054Y-106641039D01*
X181401175Y-106904523D01*
X181639477Y-107142825D01*
X181902961Y-107352946D01*
X182188314Y-107532246D01*
X182491949Y-107678469D01*
X182730848Y-107762063D01*
X182810034Y-107789772D01*
X182810046Y-107789776D01*
X183138606Y-107864767D01*
X183473492Y-107902499D01*
X183473493Y-107902500D01*
X183473496Y-107902500D01*
X183810507Y-107902500D01*
X183810507Y-107902499D01*
X184145394Y-107864767D01*
X184473954Y-107789776D01*
X184792051Y-107678469D01*
X185095686Y-107532246D01*
X185381039Y-107352946D01*
X185644523Y-107142825D01*
X185882825Y-106904523D01*
X186092946Y-106641039D01*
X186272246Y-106355686D01*
X186418469Y-106052051D01*
X186529776Y-105733954D01*
X186604767Y-105405394D01*
X186642500Y-105070504D01*
X186642500Y-104733496D01*
X186604767Y-104398606D01*
X186529776Y-104070046D01*
X186418469Y-103751949D01*
X186272246Y-103448314D01*
X186092946Y-103162961D01*
X185882825Y-102899477D01*
X185644523Y-102661175D01*
X185381039Y-102451054D01*
X185183953Y-102327216D01*
X185095683Y-102271752D01*
X184792054Y-102125532D01*
X184473965Y-102014227D01*
X184473953Y-102014223D01*
X184145397Y-101939233D01*
X184145381Y-101939231D01*
X183810508Y-101901500D01*
X183810504Y-101901500D01*
X183473496Y-101901500D01*
X183473491Y-101901500D01*
X183138618Y-101939231D01*
X183138602Y-101939233D01*
X182810046Y-102014223D01*
X182810034Y-102014227D01*
X182491945Y-102125532D01*
X182188316Y-102271752D01*
X181902962Y-102451053D01*
X181639477Y-102661174D01*
X181401174Y-102899477D01*
X181191053Y-103162962D01*
X181011752Y-103448316D01*
X180865532Y-103751945D01*
X180754227Y-104070034D01*
X180754223Y-104070046D01*
X180679233Y-104398602D01*
X180679231Y-104398618D01*
X180641500Y-104733491D01*
X137107339Y-104733491D01*
X137074768Y-104444424D01*
X137074767Y-104444412D01*
X136999776Y-104115852D01*
X136888469Y-103797755D01*
X136742246Y-103494120D01*
X136562946Y-103208767D01*
X136352825Y-102945283D01*
X136114523Y-102706981D01*
X135851039Y-102496860D01*
X135565686Y-102317560D01*
X135565683Y-102317558D01*
X135262054Y-102171338D01*
X134943965Y-102060033D01*
X134943953Y-102060029D01*
X134615397Y-101985039D01*
X134615381Y-101985037D01*
X134280508Y-101947306D01*
X134280504Y-101947306D01*
X133943496Y-101947306D01*
X133943491Y-101947306D01*
X133608618Y-101985037D01*
X133608602Y-101985039D01*
X133280046Y-102060029D01*
X133280034Y-102060033D01*
X132961945Y-102171338D01*
X132658316Y-102317558D01*
X132372962Y-102496859D01*
X132109477Y-102706980D01*
X131871174Y-102945283D01*
X131661053Y-103208768D01*
X131481752Y-103494122D01*
X131335532Y-103797751D01*
X131224227Y-104115840D01*
X131224223Y-104115852D01*
X131149233Y-104444408D01*
X131149231Y-104444424D01*
X131111500Y-104779297D01*
X130040500Y-104779297D01*
X130040500Y-83867088D01*
X137352000Y-83867088D01*
X137352000Y-84148911D01*
X137352001Y-84148928D01*
X137388786Y-84428340D01*
X137461733Y-84700582D01*
X137569584Y-84960957D01*
X137569589Y-84960968D01*
X137710500Y-85205031D01*
X137710511Y-85205047D01*
X137815097Y-85341347D01*
X137815098Y-85341347D01*
X138529912Y-84626532D01*
X138624829Y-84757175D01*
X138752825Y-84885171D01*
X138883465Y-84980086D01*
X138168651Y-85694900D01*
X138168651Y-85694902D01*
X138304952Y-85799488D01*
X138304968Y-85799499D01*
X138549031Y-85940410D01*
X138549042Y-85940415D01*
X138809417Y-86048266D01*
X139081659Y-86121213D01*
X139361071Y-86157998D01*
X139361089Y-86158000D01*
X139642911Y-86158000D01*
X139642928Y-86157998D01*
X139922340Y-86121213D01*
X140194582Y-86048266D01*
X140454957Y-85940415D01*
X140454968Y-85940410D01*
X140699031Y-85799499D01*
X140699039Y-85799493D01*
X140835347Y-85694900D01*
X140120533Y-84980086D01*
X140251175Y-84885171D01*
X140379171Y-84757175D01*
X140474086Y-84626533D01*
X141188900Y-85341347D01*
X141293493Y-85205039D01*
X141293499Y-85205031D01*
X141434410Y-84960968D01*
X141434415Y-84960957D01*
X141542266Y-84700582D01*
X141615213Y-84428340D01*
X141651998Y-84148928D01*
X141652000Y-84148911D01*
X141652000Y-83867088D01*
X141651998Y-83867071D01*
X141615213Y-83587659D01*
X141542266Y-83315417D01*
X141434415Y-83055042D01*
X141434410Y-83055031D01*
X141293499Y-82810968D01*
X141293488Y-82810952D01*
X141188902Y-82674651D01*
X141188900Y-82674651D01*
X140474086Y-83389465D01*
X140379171Y-83258825D01*
X140251175Y-83130829D01*
X140120532Y-83035912D01*
X140835347Y-82321098D01*
X140835347Y-82321097D01*
X140699047Y-82216511D01*
X140699031Y-82216500D01*
X140454968Y-82075589D01*
X140454957Y-82075584D01*
X140194582Y-81967733D01*
X139922340Y-81894786D01*
X139642928Y-81858001D01*
X139642911Y-81858000D01*
X139361089Y-81858000D01*
X139361071Y-81858001D01*
X139081659Y-81894786D01*
X138809417Y-81967733D01*
X138549042Y-82075584D01*
X138549038Y-82075586D01*
X138304962Y-82216505D01*
X138304955Y-82216510D01*
X138168651Y-82321097D01*
X138168651Y-82321098D01*
X138883466Y-83035913D01*
X138752825Y-83130829D01*
X138624829Y-83258825D01*
X138529913Y-83389466D01*
X137815098Y-82674651D01*
X137815097Y-82674651D01*
X137710510Y-82810955D01*
X137710505Y-82810962D01*
X137569586Y-83055038D01*
X137569584Y-83055042D01*
X137461733Y-83315417D01*
X137388786Y-83587659D01*
X137352001Y-83867071D01*
X137352000Y-83867088D01*
X130040500Y-83867088D01*
X130040500Y-80851428D01*
X140402000Y-80851428D01*
X140402000Y-81024571D01*
X140429085Y-81195584D01*
X140482592Y-81360259D01*
X140561196Y-81514525D01*
X140565709Y-81520736D01*
X140565709Y-81520737D01*
X141148446Y-80938001D01*
X141148446Y-80937999D01*
X140565709Y-80355261D01*
X140565708Y-80355261D01*
X140561203Y-80361463D01*
X140561193Y-80361480D01*
X140482592Y-80515740D01*
X140429085Y-80680415D01*
X140402000Y-80851428D01*
X130040500Y-80851428D01*
X130040500Y-72590920D01*
X135012499Y-72590920D01*
X135041340Y-72735907D01*
X135041343Y-72735917D01*
X135097913Y-72872490D01*
X135097916Y-72872495D01*
X135115448Y-72898735D01*
X135180046Y-72995414D01*
X135180052Y-72995421D01*
X136248133Y-74063500D01*
X136601048Y-74416415D01*
X136601049Y-74416416D01*
X136655353Y-74470720D01*
X136705585Y-74520952D01*
X136828498Y-74603080D01*
X136828511Y-74603087D01*
X136965082Y-74659656D01*
X136965087Y-74659658D01*
X136965091Y-74659658D01*
X136965092Y-74659659D01*
X137110079Y-74688500D01*
X137110082Y-74688500D01*
X140448042Y-74688500D01*
X140515081Y-74708185D01*
X140553580Y-74747402D01*
X140559288Y-74756656D01*
X140683344Y-74880712D01*
X140832666Y-74972814D01*
X140999203Y-75027999D01*
X141101991Y-75038500D01*
X141805871Y-75038499D01*
X141872910Y-75058183D01*
X141918665Y-75110987D01*
X141928609Y-75180146D01*
X141928344Y-75181897D01*
X141915274Y-75264418D01*
X141885345Y-75327553D01*
X141826033Y-75364484D01*
X141763870Y-75365598D01*
X141759702Y-75364598D01*
X141674156Y-75351049D01*
X141588611Y-75337500D01*
X141415389Y-75337500D01*
X141375728Y-75343781D01*
X141244302Y-75364597D01*
X141079552Y-75418128D01*
X140925211Y-75496768D01*
X140859713Y-75544356D01*
X140785072Y-75598586D01*
X140785070Y-75598588D01*
X140785069Y-75598588D01*
X140662588Y-75721069D01*
X140662588Y-75721070D01*
X140662586Y-75721072D01*
X140634797Y-75759320D01*
X140560768Y-75861211D01*
X140482128Y-76015552D01*
X140428597Y-76180302D01*
X140401500Y-76351389D01*
X140401500Y-76524610D01*
X140428389Y-76694386D01*
X140428598Y-76695701D01*
X140482127Y-76860445D01*
X140560768Y-77014788D01*
X140662586Y-77154928D01*
X140785072Y-77277414D01*
X140788618Y-77279990D01*
X140868023Y-77337683D01*
X140910689Y-77393013D01*
X140916667Y-77462626D01*
X140884061Y-77524421D01*
X140868023Y-77538317D01*
X140785078Y-77598581D01*
X140785069Y-77598588D01*
X140662588Y-77721069D01*
X140662588Y-77721070D01*
X140662586Y-77721072D01*
X140621185Y-77778056D01*
X140560768Y-77861211D01*
X140482128Y-78015552D01*
X140428597Y-78180302D01*
X140413217Y-78277411D01*
X140401500Y-78351389D01*
X140401500Y-78524611D01*
X140428598Y-78695701D01*
X140482127Y-78860445D01*
X140560768Y-79014788D01*
X140662586Y-79154928D01*
X140662588Y-79154930D01*
X140785075Y-79277417D01*
X140825384Y-79306702D01*
X140868050Y-79362031D01*
X140876500Y-79407021D01*
X140876500Y-79460611D01*
X140900535Y-79581444D01*
X140900540Y-79581461D01*
X140947684Y-79695278D01*
X140947687Y-79695285D01*
X140960003Y-79713715D01*
X140960004Y-79713717D01*
X141015015Y-79796046D01*
X141035893Y-79862723D01*
X141017409Y-79930103D01*
X140968210Y-79975421D01*
X140925476Y-79997195D01*
X140925463Y-79997203D01*
X140919261Y-80001708D01*
X140919261Y-80001709D01*
X141505553Y-80588000D01*
X141455922Y-80588000D01*
X141366905Y-80611852D01*
X141287095Y-80657930D01*
X141221930Y-80723095D01*
X141175852Y-80802905D01*
X141152000Y-80891922D01*
X141152000Y-80984078D01*
X141175852Y-81073095D01*
X141221930Y-81152905D01*
X141287095Y-81218070D01*
X141366905Y-81264148D01*
X141455922Y-81288000D01*
X141505552Y-81288000D01*
X140919261Y-81874289D01*
X140919262Y-81874290D01*
X140925471Y-81878801D01*
X141079742Y-81957408D01*
X141244415Y-82010914D01*
X141415429Y-82038000D01*
X141588571Y-82038000D01*
X141759584Y-82010914D01*
X141915806Y-81960153D01*
X141985647Y-81958157D01*
X142045480Y-81994237D01*
X142059853Y-82013296D01*
X142060763Y-82014781D01*
X142060767Y-82014787D01*
X142060768Y-82014788D01*
X142162586Y-82154928D01*
X142285072Y-82277414D01*
X142425212Y-82379232D01*
X142579555Y-82457873D01*
X142744299Y-82511402D01*
X142915389Y-82538500D01*
X142915390Y-82538500D01*
X143088610Y-82538500D01*
X143088611Y-82538500D01*
X143259701Y-82511402D01*
X143424445Y-82457873D01*
X143578788Y-82379232D01*
X143718928Y-82277414D01*
X143841414Y-82154928D01*
X143943232Y-82014788D01*
X144021873Y-81860445D01*
X144075402Y-81695701D01*
X144102500Y-81524611D01*
X144102500Y-81351389D01*
X144090492Y-81275574D01*
X144080217Y-81210698D01*
X144089172Y-81141404D01*
X144134168Y-81087952D01*
X144200920Y-81067313D01*
X144202690Y-81067300D01*
X146171348Y-81067300D01*
X146238387Y-81086985D01*
X146259029Y-81103619D01*
X148563181Y-83407771D01*
X148596666Y-83469094D01*
X148599500Y-83495452D01*
X148599500Y-89215611D01*
X148623535Y-89336444D01*
X148623540Y-89336461D01*
X148670685Y-89450281D01*
X148670690Y-89450290D01*
X148699430Y-89493301D01*
X148699433Y-89493305D01*
X148703849Y-89499913D01*
X148739142Y-89552733D01*
X148826267Y-89639858D01*
X148826270Y-89639860D01*
X148833607Y-89647197D01*
X149752016Y-90565606D01*
X149752045Y-90565637D01*
X149842264Y-90655856D01*
X149842267Y-90655858D01*
X149893490Y-90690084D01*
X149944714Y-90724312D01*
X150025207Y-90757652D01*
X150058548Y-90771463D01*
X150118971Y-90783481D01*
X150179393Y-90795500D01*
X150179394Y-90795500D01*
X151000019Y-90795500D01*
X151067058Y-90815185D01*
X151110503Y-90863203D01*
X151117950Y-90877819D01*
X151242890Y-91049786D01*
X151393213Y-91200109D01*
X151565182Y-91325050D01*
X151573946Y-91329516D01*
X151624742Y-91377491D01*
X151641536Y-91445312D01*
X151618998Y-91511447D01*
X151573946Y-91550484D01*
X151565182Y-91554949D01*
X151393213Y-91679890D01*
X151242890Y-91830213D01*
X151117951Y-92002179D01*
X151021444Y-92191585D01*
X150955753Y-92393760D01*
X150922500Y-92603713D01*
X150922500Y-92816287D01*
X150955754Y-93026243D01*
X150993706Y-93143048D01*
X151021444Y-93228414D01*
X151117951Y-93417820D01*
X151242890Y-93589786D01*
X151393213Y-93740109D01*
X151565179Y-93865048D01*
X151565181Y-93865049D01*
X151565184Y-93865051D01*
X151754588Y-93961557D01*
X151956757Y-94027246D01*
X152166713Y-94060500D01*
X152166714Y-94060500D01*
X152379286Y-94060500D01*
X152379287Y-94060500D01*
X152589243Y-94027246D01*
X152791412Y-93961557D01*
X152980816Y-93865051D01*
X153002789Y-93849086D01*
X153152786Y-93740109D01*
X153152788Y-93740106D01*
X153152792Y-93740104D01*
X153303104Y-93589792D01*
X153303106Y-93589788D01*
X153303109Y-93589786D01*
X153428048Y-93417820D01*
X153428047Y-93417820D01*
X153428051Y-93417816D01*
X153524557Y-93228412D01*
X153590246Y-93026243D01*
X153623500Y-92816287D01*
X153623500Y-92603713D01*
X153590246Y-92393757D01*
X153524557Y-92191588D01*
X153428051Y-92002184D01*
X153428049Y-92002181D01*
X153428048Y-92002179D01*
X153303109Y-91830213D01*
X153152786Y-91679890D01*
X152980820Y-91554951D01*
X152980115Y-91554591D01*
X152972054Y-91550485D01*
X152921259Y-91502512D01*
X152904463Y-91434692D01*
X152926999Y-91368556D01*
X152972054Y-91329515D01*
X152980816Y-91325051D01*
X153002789Y-91309086D01*
X153152786Y-91200109D01*
X153152788Y-91200106D01*
X153152792Y-91200104D01*
X153303104Y-91049792D01*
X153303106Y-91049788D01*
X153303109Y-91049786D01*
X153428048Y-90877820D01*
X153428049Y-90877819D01*
X153428051Y-90877816D01*
X153524557Y-90688412D01*
X153590246Y-90486243D01*
X153623500Y-90276287D01*
X153623500Y-90063713D01*
X153590246Y-89853757D01*
X153524557Y-89651588D01*
X153428051Y-89462184D01*
X153428049Y-89462181D01*
X153428048Y-89462179D01*
X153303109Y-89290213D01*
X153152786Y-89139890D01*
X152980817Y-89014949D01*
X152971504Y-89010204D01*
X152920707Y-88962230D01*
X152903912Y-88894409D01*
X152926449Y-88828274D01*
X152971507Y-88789232D01*
X152980558Y-88784620D01*
X153152459Y-88659727D01*
X153152464Y-88659723D01*
X153302723Y-88509464D01*
X153302727Y-88509459D01*
X153427620Y-88337557D01*
X153524095Y-88148217D01*
X153589757Y-87946129D01*
X153589757Y-87946126D01*
X153600231Y-87880000D01*
X152706012Y-87880000D01*
X152738925Y-87822993D01*
X152773000Y-87695826D01*
X152773000Y-87564174D01*
X152738925Y-87437007D01*
X152706012Y-87380000D01*
X153600231Y-87380000D01*
X153589757Y-87313873D01*
X153589757Y-87313870D01*
X153524095Y-87111782D01*
X153427620Y-86922442D01*
X153302727Y-86750540D01*
X153302723Y-86750535D01*
X153152464Y-86600276D01*
X153152459Y-86600272D01*
X152980555Y-86475377D01*
X152971500Y-86470763D01*
X152920706Y-86422788D01*
X152903912Y-86354966D01*
X152926451Y-86288832D01*
X152971508Y-86249793D01*
X152980816Y-86245051D01*
X153060007Y-86187515D01*
X153152786Y-86120109D01*
X153152788Y-86120106D01*
X153152792Y-86120104D01*
X153303104Y-85969792D01*
X153303108Y-85969786D01*
X153359903Y-85891615D01*
X153415233Y-85848949D01*
X153460221Y-85840500D01*
X154632920Y-85840500D01*
X154730462Y-85821096D01*
X154777913Y-85811658D01*
X154914495Y-85755084D01*
X154963729Y-85722186D01*
X155037416Y-85672952D01*
X156792952Y-83917415D01*
X156870365Y-83801557D01*
X156875084Y-83794495D01*
X156912133Y-83705051D01*
X156931659Y-83657912D01*
X156960500Y-83512917D01*
X156960500Y-83365082D01*
X156960500Y-69903082D01*
X156960500Y-69903079D01*
X156931659Y-69758092D01*
X156931658Y-69758091D01*
X156931658Y-69758087D01*
X156926783Y-69746317D01*
X156875087Y-69621511D01*
X156875080Y-69621498D01*
X156792952Y-69498585D01*
X156788872Y-69494505D01*
X156688416Y-69394049D01*
X156431085Y-69136718D01*
X156152548Y-68858180D01*
X156119063Y-68796857D01*
X156124047Y-68727165D01*
X156152548Y-68682818D01*
X156445377Y-68389990D01*
X156792951Y-68042416D01*
X156875084Y-67919495D01*
X156879056Y-67909907D01*
X156907703Y-67840745D01*
X156931658Y-67782913D01*
X156947915Y-67701185D01*
X156960500Y-67637920D01*
X156960500Y-59108079D01*
X156946061Y-59035494D01*
X156937534Y-58992626D01*
X156931659Y-58963088D01*
X156895137Y-58874918D01*
X156875084Y-58826505D01*
X156811979Y-58732061D01*
X156792952Y-58703585D01*
X156792951Y-58703584D01*
X156792949Y-58703581D01*
X156406548Y-58317180D01*
X156373063Y-58255857D01*
X156378047Y-58186165D01*
X156406546Y-58141820D01*
X157632570Y-56915796D01*
X157693891Y-56882313D01*
X157763583Y-56887297D01*
X157807930Y-56915798D01*
X157808288Y-56916156D01*
X157932344Y-57040212D01*
X158081666Y-57132314D01*
X158248203Y-57187499D01*
X158350991Y-57198000D01*
X159401008Y-57197999D01*
X159401016Y-57197998D01*
X159401019Y-57197998D01*
X159457302Y-57192248D01*
X159503797Y-57187499D01*
X159670334Y-57132314D01*
X159819656Y-57040212D01*
X159943712Y-56916156D01*
X159943715Y-56916150D01*
X159948193Y-56910489D01*
X159950015Y-56911930D01*
X159993665Y-56872675D01*
X160047248Y-56860500D01*
X160625920Y-56860500D01*
X160723462Y-56841096D01*
X160770913Y-56831658D01*
X160907495Y-56775084D01*
X160971839Y-56732091D01*
X161030416Y-56692952D01*
X162478046Y-55245320D01*
X162539367Y-55211837D01*
X162609058Y-55216821D01*
X162619602Y-55221319D01*
X162630418Y-55226536D01*
X162686869Y-55268796D01*
X162821717Y-55319091D01*
X162822435Y-55319168D01*
X162829342Y-55322500D01*
X162851173Y-55342238D01*
X162874731Y-55359873D01*
X162876792Y-55365400D01*
X162881170Y-55369358D01*
X162888863Y-55397762D01*
X162899149Y-55425337D01*
X162897894Y-55431103D01*
X162899437Y-55436798D01*
X162890554Y-55464848D01*
X162884298Y-55493610D01*
X162879355Y-55500212D01*
X162878344Y-55503407D01*
X162874698Y-55506433D01*
X162863147Y-55521865D01*
X162749471Y-55635541D01*
X162624579Y-55807442D01*
X162528104Y-55996782D01*
X162462442Y-56198870D01*
X162462442Y-56198873D01*
X162451969Y-56265000D01*
X163346188Y-56265000D01*
X163313275Y-56322007D01*
X163279200Y-56449174D01*
X163279200Y-56580826D01*
X163313275Y-56707993D01*
X163346188Y-56765000D01*
X162451969Y-56765000D01*
X162462442Y-56831126D01*
X162462442Y-56831129D01*
X162528104Y-57033217D01*
X162624579Y-57222557D01*
X162749472Y-57394459D01*
X162749476Y-57394464D01*
X162899735Y-57544723D01*
X162899740Y-57544727D01*
X163071642Y-57669620D01*
X163260982Y-57766095D01*
X163463071Y-57831757D01*
X163529200Y-57842231D01*
X163529200Y-56948012D01*
X163586207Y-56980925D01*
X163713374Y-57015000D01*
X163845026Y-57015000D01*
X163972193Y-56980925D01*
X164029200Y-56948012D01*
X164029200Y-57842230D01*
X164095326Y-57831757D01*
X164095329Y-57831757D01*
X164297417Y-57766095D01*
X164486757Y-57669620D01*
X164658659Y-57544727D01*
X164658664Y-57544723D01*
X164808923Y-57394464D01*
X164808927Y-57394459D01*
X164933820Y-57222557D01*
X165030295Y-57033217D01*
X165095957Y-56831129D01*
X165095957Y-56831126D01*
X165106431Y-56765000D01*
X164212212Y-56765000D01*
X164245125Y-56707993D01*
X164279200Y-56580826D01*
X164279200Y-56449174D01*
X164245125Y-56322007D01*
X164212212Y-56265000D01*
X165106431Y-56265000D01*
X165095957Y-56198873D01*
X165095957Y-56198870D01*
X165030295Y-55996782D01*
X164933820Y-55807442D01*
X164808927Y-55635540D01*
X164808923Y-55635535D01*
X164695253Y-55521865D01*
X164661768Y-55460542D01*
X164666752Y-55390850D01*
X164708624Y-55334917D01*
X164739600Y-55318002D01*
X164871531Y-55268796D01*
X164986746Y-55182546D01*
X165072996Y-55067331D01*
X165123291Y-54932483D01*
X165129700Y-54872873D01*
X165129699Y-53077128D01*
X165123291Y-53017517D01*
X165118471Y-53004595D01*
X165072997Y-52882671D01*
X165072993Y-52882664D01*
X164986747Y-52767455D01*
X164986744Y-52767452D01*
X164871535Y-52681206D01*
X164871528Y-52681202D01*
X164736682Y-52630908D01*
X164736683Y-52630908D01*
X164677083Y-52624501D01*
X164677081Y-52624500D01*
X164677073Y-52624500D01*
X164677064Y-52624500D01*
X162881329Y-52624500D01*
X162881323Y-52624501D01*
X162821716Y-52630908D01*
X162686871Y-52681202D01*
X162686864Y-52681206D01*
X162571655Y-52767452D01*
X162571652Y-52767455D01*
X162485406Y-52882664D01*
X162485402Y-52882671D01*
X162435108Y-53017517D01*
X162432249Y-53044115D01*
X162428701Y-53077123D01*
X162428700Y-53077135D01*
X162428700Y-53186802D01*
X162424514Y-53201055D01*
X162425239Y-53215895D01*
X162414868Y-53233905D01*
X162409015Y-53253841D01*
X162397196Y-53264597D01*
X162390375Y-53276445D01*
X162368537Y-53290681D01*
X162361649Y-53296951D01*
X162356990Y-53299359D01*
X162331505Y-53309916D01*
X162319944Y-53317641D01*
X162314179Y-53321492D01*
X162314173Y-53321496D01*
X162208579Y-53392051D01*
X162208578Y-53392052D01*
X160277451Y-55323181D01*
X160250523Y-55337884D01*
X160224705Y-55354477D01*
X160218504Y-55355368D01*
X160216128Y-55356666D01*
X160189770Y-55359500D01*
X160047248Y-55359500D01*
X159980209Y-55339815D01*
X159949468Y-55308502D01*
X159948193Y-55309511D01*
X159943711Y-55303843D01*
X159819657Y-55179789D01*
X159819656Y-55179788D01*
X159816342Y-55177743D01*
X159814546Y-55175748D01*
X159813989Y-55175307D01*
X159814064Y-55175211D01*
X159769618Y-55125797D01*
X159758397Y-55056834D01*
X159786240Y-54992752D01*
X159816348Y-54966665D01*
X159819342Y-54964818D01*
X159943315Y-54840845D01*
X160035356Y-54691624D01*
X160035358Y-54691619D01*
X160090505Y-54525197D01*
X160090506Y-54525190D01*
X160100999Y-54422486D01*
X160101000Y-54422473D01*
X160101000Y-54285000D01*
X157651001Y-54285000D01*
X157651001Y-54422486D01*
X157661494Y-54525197D01*
X157716641Y-54691619D01*
X157716643Y-54691624D01*
X157808684Y-54840845D01*
X157932655Y-54964816D01*
X157932659Y-54964819D01*
X157935656Y-54966668D01*
X157937279Y-54968472D01*
X157938323Y-54969298D01*
X157938181Y-54969476D01*
X157982381Y-55018616D01*
X157993602Y-55087579D01*
X157965759Y-55151661D01*
X157957568Y-55160554D01*
X157947580Y-55170390D01*
X157932344Y-55179788D01*
X157808288Y-55303844D01*
X157802430Y-55313339D01*
X157791761Y-55323848D01*
X157773631Y-55333568D01*
X157758335Y-55347325D01*
X157740355Y-55351410D01*
X157730184Y-55356864D01*
X157719928Y-55356051D01*
X157704752Y-55359500D01*
X157303076Y-55359500D01*
X157274242Y-55365234D01*
X157274243Y-55365235D01*
X157158093Y-55388339D01*
X157158083Y-55388342D01*
X157078081Y-55421479D01*
X157078082Y-55421480D01*
X157021505Y-55444915D01*
X156959835Y-55486121D01*
X156939373Y-55499794D01*
X156933966Y-55503407D01*
X156898585Y-55527047D01*
X156898581Y-55527050D01*
X155388968Y-57036662D01*
X155327645Y-57070147D01*
X155257953Y-57065163D01*
X155205185Y-57027342D01*
X155146109Y-56954890D01*
X155006576Y-56841117D01*
X154988407Y-56826302D01*
X154808049Y-56732091D01*
X154808048Y-56732090D01*
X154808045Y-56732089D01*
X154671264Y-56692952D01*
X154612418Y-56676114D01*
X154612415Y-56676113D01*
X154612413Y-56676113D01*
X154539631Y-56669642D01*
X154493037Y-56665500D01*
X154493033Y-56665500D01*
X153909500Y-56665500D01*
X153842461Y-56645815D01*
X153796706Y-56593011D01*
X153785500Y-56541500D01*
X153785500Y-53647513D01*
X157651000Y-53647513D01*
X157651000Y-53785000D01*
X158626000Y-53785000D01*
X159126000Y-53785000D01*
X160100999Y-53785000D01*
X160100999Y-53647528D01*
X160100998Y-53647513D01*
X160090505Y-53544802D01*
X160035358Y-53378380D01*
X160035356Y-53378375D01*
X159943315Y-53229154D01*
X159819345Y-53105184D01*
X159670124Y-53013143D01*
X159670119Y-53013141D01*
X159503697Y-52957994D01*
X159503690Y-52957993D01*
X159400986Y-52947500D01*
X159126000Y-52947500D01*
X159126000Y-53785000D01*
X158626000Y-53785000D01*
X158626000Y-52947500D01*
X158351029Y-52947500D01*
X158351012Y-52947501D01*
X158248302Y-52957994D01*
X158081880Y-53013141D01*
X158081875Y-53013143D01*
X157932654Y-53105184D01*
X157808684Y-53229154D01*
X157716643Y-53378375D01*
X157716641Y-53378380D01*
X157661494Y-53544802D01*
X157661493Y-53544809D01*
X157651000Y-53647513D01*
X153785500Y-53647513D01*
X153785500Y-53358942D01*
X153805185Y-53291903D01*
X153854406Y-53247854D01*
X153855399Y-53247361D01*
X153884296Y-53233030D01*
X154032722Y-53113722D01*
X154088675Y-53044112D01*
X154146015Y-53004196D01*
X154215837Y-53001616D01*
X154275970Y-53037194D01*
X154281967Y-53044115D01*
X154337632Y-53113366D01*
X154337633Y-53113367D01*
X154485974Y-53232607D01*
X154485977Y-53232609D01*
X154656476Y-53317168D01*
X154841175Y-53363102D01*
X154883903Y-53366000D01*
X155085000Y-53366000D01*
X155585000Y-53366000D01*
X155786097Y-53366000D01*
X155828824Y-53363102D01*
X156013523Y-53317168D01*
X156184022Y-53232609D01*
X156184025Y-53232607D01*
X156332366Y-53113367D01*
X156332367Y-53113366D01*
X156451607Y-52965025D01*
X156451609Y-52965022D01*
X156536168Y-52794523D01*
X156582102Y-52609824D01*
X156585000Y-52567096D01*
X156585000Y-52116000D01*
X155585000Y-52116000D01*
X155585000Y-53366000D01*
X155085000Y-53366000D01*
X155085000Y-51616000D01*
X155585000Y-51616000D01*
X156585000Y-51616000D01*
X156585000Y-51164903D01*
X156582102Y-51122175D01*
X156536168Y-50937476D01*
X156451609Y-50766977D01*
X156451607Y-50766974D01*
X156332367Y-50618633D01*
X156332366Y-50618632D01*
X156184025Y-50499392D01*
X156184022Y-50499390D01*
X156013523Y-50414831D01*
X155828824Y-50368897D01*
X155786097Y-50366000D01*
X155585000Y-50366000D01*
X155585000Y-51616000D01*
X155085000Y-51616000D01*
X155085000Y-50366000D01*
X154883903Y-50366000D01*
X154841175Y-50368897D01*
X154656476Y-50414831D01*
X154485977Y-50499390D01*
X154485974Y-50499392D01*
X154337635Y-50618631D01*
X154281967Y-50687885D01*
X154224624Y-50727803D01*
X154154801Y-50730383D01*
X154094669Y-50694804D01*
X154088673Y-50687884D01*
X154032722Y-50618278D01*
X154032721Y-50618277D01*
X153884295Y-50498969D01*
X153884292Y-50498967D01*
X153713697Y-50414360D01*
X153528892Y-50368400D01*
X153507506Y-50366950D01*
X153486123Y-50365500D01*
X153486120Y-50365500D01*
X152583877Y-50365500D01*
X152583874Y-50365501D01*
X152541113Y-50368399D01*
X152541112Y-50368399D01*
X152356303Y-50414360D01*
X152185707Y-50498967D01*
X152185704Y-50498969D01*
X152037278Y-50618277D01*
X152037277Y-50618278D01*
X151981647Y-50687486D01*
X151924304Y-50727405D01*
X151854482Y-50729985D01*
X151794349Y-50694406D01*
X151788353Y-50687486D01*
X151732722Y-50618278D01*
X151732721Y-50618277D01*
X151584295Y-50498969D01*
X151554405Y-50484145D01*
X151503092Y-50436723D01*
X151485500Y-50373057D01*
X151485500Y-49650229D01*
X151505185Y-49583190D01*
X151521819Y-49562548D01*
X152037548Y-49046819D01*
X152098871Y-49013334D01*
X152125229Y-49010500D01*
X167019500Y-49010500D01*
X167086539Y-49030185D01*
X167132294Y-49082989D01*
X167143500Y-49134500D01*
X167143500Y-58438770D01*
X167123815Y-58505809D01*
X167107181Y-58526451D01*
X166349451Y-59284181D01*
X166288128Y-59317666D01*
X166261770Y-59320500D01*
X160327076Y-59320500D01*
X160298242Y-59326234D01*
X160298243Y-59326235D01*
X160182093Y-59349339D01*
X160182089Y-59349340D01*
X160115051Y-59377109D01*
X160045503Y-59405916D01*
X159996269Y-59438813D01*
X159922588Y-59488044D01*
X159922580Y-59488050D01*
X158040050Y-61370580D01*
X158040044Y-61370588D01*
X157990812Y-61444268D01*
X157990813Y-61444269D01*
X157957921Y-61493496D01*
X157957914Y-61493508D01*
X157901342Y-61630086D01*
X157901340Y-61630092D01*
X157872500Y-61775079D01*
X157872500Y-61775082D01*
X157872500Y-67764918D01*
X157872500Y-67764920D01*
X157872499Y-67764920D01*
X157901340Y-67909907D01*
X157901343Y-67909917D01*
X157957912Y-68046488D01*
X157957917Y-68046497D01*
X157966158Y-68058830D01*
X157982640Y-68083497D01*
X157982641Y-68083500D01*
X157982642Y-68083500D01*
X158040051Y-68169420D01*
X158040052Y-68169421D01*
X158616950Y-68746318D01*
X158650435Y-68807641D01*
X158645451Y-68877332D01*
X158616950Y-68921680D01*
X158167047Y-69371584D01*
X158167045Y-69371586D01*
X158152037Y-69394050D01*
X158136735Y-69416952D01*
X158119916Y-69442124D01*
X158084914Y-69494507D01*
X158028343Y-69631082D01*
X158028340Y-69631092D01*
X157999500Y-69776079D01*
X157999500Y-69776082D01*
X157999500Y-83766918D01*
X157999500Y-83766920D01*
X157999499Y-83766920D01*
X158028340Y-83911907D01*
X158028343Y-83911917D01*
X158084913Y-84048490D01*
X158084914Y-84048491D01*
X158084916Y-84048495D01*
X158086756Y-84051248D01*
X158092533Y-84059894D01*
X158092534Y-84059897D01*
X158167046Y-84171414D01*
X158167052Y-84171421D01*
X159668580Y-85672948D01*
X159668584Y-85672951D01*
X159791498Y-85755080D01*
X159791511Y-85755087D01*
X159928082Y-85811656D01*
X159928087Y-85811658D01*
X159928091Y-85811658D01*
X159928092Y-85811659D01*
X160073079Y-85840500D01*
X160073082Y-85840500D01*
X160220917Y-85840500D01*
X161245779Y-85840500D01*
X161312818Y-85860185D01*
X161346097Y-85891615D01*
X161402892Y-85969788D01*
X161553213Y-86120109D01*
X161725179Y-86245048D01*
X161725181Y-86245049D01*
X161725184Y-86245051D01*
X161734493Y-86249794D01*
X161785290Y-86297766D01*
X161802087Y-86365587D01*
X161779552Y-86431722D01*
X161734502Y-86470762D01*
X161725443Y-86475378D01*
X161553540Y-86600272D01*
X161553535Y-86600276D01*
X161403276Y-86750535D01*
X161403272Y-86750540D01*
X161278379Y-86922442D01*
X161181904Y-87111782D01*
X161116242Y-87313870D01*
X161116242Y-87313873D01*
X161105769Y-87380000D01*
X161999988Y-87380000D01*
X161967075Y-87437007D01*
X161933000Y-87564174D01*
X161933000Y-87695826D01*
X161967075Y-87822993D01*
X161999988Y-87880000D01*
X161105769Y-87880000D01*
X161116242Y-87946126D01*
X161116242Y-87946129D01*
X161181904Y-88148217D01*
X161278379Y-88337557D01*
X161403272Y-88509459D01*
X161403276Y-88509464D01*
X161553535Y-88659723D01*
X161553540Y-88659727D01*
X161725444Y-88784622D01*
X161734495Y-88789234D01*
X161785292Y-88837208D01*
X161802087Y-88905029D01*
X161779550Y-88971164D01*
X161734499Y-89010202D01*
X161725182Y-89014949D01*
X161553213Y-89139890D01*
X161402890Y-89290213D01*
X161277951Y-89462179D01*
X161181444Y-89651585D01*
X161115753Y-89853760D01*
X161088134Y-90028142D01*
X161082500Y-90063713D01*
X161082500Y-90276287D01*
X161115754Y-90486243D01*
X161170865Y-90655857D01*
X161181444Y-90688414D01*
X161277951Y-90877820D01*
X161402890Y-91049786D01*
X161553213Y-91200109D01*
X161725182Y-91325050D01*
X161733946Y-91329516D01*
X161784742Y-91377491D01*
X161801536Y-91445312D01*
X161778998Y-91511447D01*
X161733946Y-91550484D01*
X161725182Y-91554949D01*
X161553213Y-91679890D01*
X161402890Y-91830213D01*
X161277951Y-92002179D01*
X161181444Y-92191585D01*
X161115753Y-92393760D01*
X161082500Y-92603713D01*
X161082500Y-92816287D01*
X161115754Y-93026243D01*
X161153706Y-93143048D01*
X161181444Y-93228414D01*
X161277951Y-93417820D01*
X161402890Y-93589786D01*
X161553213Y-93740109D01*
X161725179Y-93865048D01*
X161725181Y-93865049D01*
X161725184Y-93865051D01*
X161914588Y-93961557D01*
X162116757Y-94027246D01*
X162326713Y-94060500D01*
X162326714Y-94060500D01*
X162539286Y-94060500D01*
X162539287Y-94060500D01*
X162749243Y-94027246D01*
X162951412Y-93961557D01*
X163140816Y-93865051D01*
X163162789Y-93849086D01*
X163312786Y-93740109D01*
X163312788Y-93740106D01*
X163312792Y-93740104D01*
X163463104Y-93589792D01*
X163463106Y-93589788D01*
X163463109Y-93589786D01*
X163588048Y-93417820D01*
X163588047Y-93417820D01*
X163588051Y-93417816D01*
X163684557Y-93228412D01*
X163750246Y-93026243D01*
X163783500Y-92816287D01*
X163783500Y-92603713D01*
X163750246Y-92393757D01*
X163684557Y-92191588D01*
X163588051Y-92002184D01*
X163588049Y-92002181D01*
X163588048Y-92002179D01*
X163463109Y-91830213D01*
X163312786Y-91679890D01*
X163140820Y-91554951D01*
X163140115Y-91554591D01*
X163132054Y-91550485D01*
X163081259Y-91502512D01*
X163064463Y-91434692D01*
X163086999Y-91368556D01*
X163132054Y-91329515D01*
X163140816Y-91325051D01*
X163162789Y-91309086D01*
X163312786Y-91200109D01*
X163312788Y-91200106D01*
X163312792Y-91200104D01*
X163463104Y-91049792D01*
X163463106Y-91049788D01*
X163463109Y-91049786D01*
X163588049Y-90877819D01*
X163595497Y-90863203D01*
X163643473Y-90812408D01*
X163705981Y-90795500D01*
X164907607Y-90795500D01*
X164968029Y-90783481D01*
X165028452Y-90771463D01*
X165061792Y-90757652D01*
X165142286Y-90724312D01*
X165193509Y-90690084D01*
X165196009Y-90688414D01*
X165206271Y-90681556D01*
X165244733Y-90655858D01*
X165331858Y-90568733D01*
X165331859Y-90568731D01*
X165338925Y-90561665D01*
X165338928Y-90561661D01*
X167149729Y-88750860D01*
X167149733Y-88750858D01*
X167236858Y-88663733D01*
X167305311Y-88561286D01*
X167305312Y-88561285D01*
X167305313Y-88561282D01*
X167305315Y-88561279D01*
X167315672Y-88536272D01*
X167352463Y-88447451D01*
X167376500Y-88326607D01*
X167376500Y-88203393D01*
X167376500Y-86289452D01*
X167396185Y-86222413D01*
X167412819Y-86201771D01*
X168116771Y-85497819D01*
X168178094Y-85464334D01*
X168204452Y-85461500D01*
X170344861Y-85461500D01*
X170411900Y-85481185D01*
X170457655Y-85533989D01*
X170459422Y-85538047D01*
X170493676Y-85620745D01*
X170493685Y-85620762D01*
X170609720Y-85821743D01*
X170609721Y-85821745D01*
X170751009Y-86005875D01*
X170751015Y-86005882D01*
X170915117Y-86169984D01*
X170915124Y-86169990D01*
X171099250Y-86311275D01*
X171099252Y-86311276D01*
X171274333Y-86412358D01*
X171322547Y-86462923D01*
X171335771Y-86531530D01*
X171309803Y-86596395D01*
X171252889Y-86636924D01*
X171238691Y-86640910D01*
X171102688Y-86670496D01*
X171102674Y-86670500D01*
X170903346Y-86755857D01*
X170903330Y-86755866D01*
X170723747Y-86877412D01*
X170570412Y-87030747D01*
X170448866Y-87210330D01*
X170448857Y-87210346D01*
X170363500Y-87409674D01*
X170363495Y-87409690D01*
X170317403Y-87621575D01*
X170317402Y-87621581D01*
X170314500Y-87670296D01*
X170314500Y-89113704D01*
X170317402Y-89162419D01*
X170317402Y-89162423D01*
X170317403Y-89162424D01*
X170363495Y-89374309D01*
X170363500Y-89374325D01*
X170448857Y-89573653D01*
X170448860Y-89573658D01*
X170448862Y-89573663D01*
X170448865Y-89573668D01*
X170448866Y-89573669D01*
X170570412Y-89753252D01*
X170723747Y-89906587D01*
X170723750Y-89906589D01*
X170903337Y-90028138D01*
X170903344Y-90028141D01*
X170903346Y-90028142D01*
X171102674Y-90113499D01*
X171102681Y-90113501D01*
X171102683Y-90113502D01*
X171102684Y-90113502D01*
X171102690Y-90113504D01*
X171188968Y-90132272D01*
X171314581Y-90159598D01*
X171363296Y-90162500D01*
X171363308Y-90162500D01*
X172806692Y-90162500D01*
X172806704Y-90162500D01*
X172855419Y-90159598D01*
X173020359Y-90123717D01*
X173067309Y-90113504D01*
X173067311Y-90113503D01*
X173067317Y-90113502D01*
X173067321Y-90113500D01*
X173067325Y-90113499D01*
X173187198Y-90062166D01*
X173266663Y-90028138D01*
X173446250Y-89906589D01*
X173599589Y-89753250D01*
X173721138Y-89573663D01*
X173806502Y-89374317D01*
X173852598Y-89162419D01*
X173855500Y-89113704D01*
X173855500Y-88116854D01*
X173875185Y-88049815D01*
X173927989Y-88004060D01*
X173997147Y-87994116D01*
X174054986Y-88018478D01*
X174147254Y-88089278D01*
X174147256Y-88089279D01*
X174348237Y-88205314D01*
X174348240Y-88205315D01*
X174348248Y-88205320D01*
X174562670Y-88294137D01*
X174786851Y-88354206D01*
X175016955Y-88384500D01*
X175016962Y-88384500D01*
X175249038Y-88384500D01*
X175249045Y-88384500D01*
X175479149Y-88354206D01*
X175703330Y-88294137D01*
X175917752Y-88205320D01*
X176070981Y-88116854D01*
X176118743Y-88089279D01*
X176118745Y-88089278D01*
X176118748Y-88089276D01*
X176302877Y-87947989D01*
X176466989Y-87783877D01*
X176608276Y-87599748D01*
X176628815Y-87564174D01*
X176724314Y-87398762D01*
X176724320Y-87398752D01*
X176813137Y-87184330D01*
X176873206Y-86960149D01*
X176903500Y-86730045D01*
X176903500Y-86497955D01*
X176873206Y-86267851D01*
X176813137Y-86043670D01*
X176724320Y-85829248D01*
X176719990Y-85821748D01*
X176608279Y-85628256D01*
X176608278Y-85628254D01*
X176466990Y-85444124D01*
X176466984Y-85444117D01*
X176302882Y-85280015D01*
X176302875Y-85280009D01*
X176118745Y-85138721D01*
X176118743Y-85138720D01*
X175917762Y-85022685D01*
X175917745Y-85022676D01*
X175742988Y-84950290D01*
X175688585Y-84906449D01*
X175666520Y-84840155D01*
X175683799Y-84772455D01*
X175734937Y-84724845D01*
X175742989Y-84721168D01*
X175917522Y-84648875D01*
X175917538Y-84648867D01*
X176118475Y-84532855D01*
X176195327Y-84473883D01*
X176195327Y-84473880D01*
X175466209Y-83744762D01*
X175493942Y-83733276D01*
X175618747Y-83649884D01*
X175724884Y-83543747D01*
X175808276Y-83418942D01*
X175819762Y-83391209D01*
X176548880Y-84120327D01*
X176548883Y-84120327D01*
X176607855Y-84043475D01*
X176723867Y-83842538D01*
X176723875Y-83842521D01*
X176812663Y-83628167D01*
X176872713Y-83404053D01*
X176872716Y-83404040D01*
X176902998Y-83174022D01*
X176903000Y-83174005D01*
X176903000Y-82941994D01*
X176902998Y-82941977D01*
X176872716Y-82711959D01*
X176872713Y-82711946D01*
X176812663Y-82487832D01*
X176723875Y-82273478D01*
X176723867Y-82273461D01*
X176607863Y-82072538D01*
X176607857Y-82072530D01*
X176548881Y-81995671D01*
X175819762Y-82724789D01*
X175808276Y-82697058D01*
X175724884Y-82572253D01*
X175618747Y-82466116D01*
X175493942Y-82382724D01*
X175466207Y-82371236D01*
X176195327Y-81642117D01*
X176118469Y-81583142D01*
X176118461Y-81583136D01*
X175917538Y-81467132D01*
X175917522Y-81467124D01*
X175742336Y-81394561D01*
X175687932Y-81350720D01*
X175665867Y-81284426D01*
X175683146Y-81216727D01*
X175734283Y-81169116D01*
X175742336Y-81165439D01*
X175917522Y-81092875D01*
X175917538Y-81092867D01*
X176118475Y-80976855D01*
X176195327Y-80917883D01*
X176195327Y-80917880D01*
X175466209Y-80188762D01*
X175493942Y-80177276D01*
X175618747Y-80093884D01*
X175724884Y-79987747D01*
X175808276Y-79862942D01*
X175819762Y-79835209D01*
X176548880Y-80564327D01*
X176548883Y-80564327D01*
X176607855Y-80487475D01*
X176723867Y-80286538D01*
X176723875Y-80286521D01*
X176812663Y-80072167D01*
X176872713Y-79848053D01*
X176872716Y-79848040D01*
X176902998Y-79618022D01*
X176903000Y-79618005D01*
X176903000Y-79385994D01*
X176902998Y-79385977D01*
X176872716Y-79155959D01*
X176872713Y-79155946D01*
X176812663Y-78931832D01*
X176723875Y-78717478D01*
X176723867Y-78717461D01*
X176607863Y-78516538D01*
X176607857Y-78516530D01*
X176548881Y-78439671D01*
X175819762Y-79168789D01*
X175808276Y-79141058D01*
X175724884Y-79016253D01*
X175618747Y-78910116D01*
X175493942Y-78826724D01*
X175466207Y-78815236D01*
X176195327Y-78086117D01*
X176118469Y-78027142D01*
X176118461Y-78027136D01*
X175917538Y-77911132D01*
X175917527Y-77911127D01*
X175742988Y-77838831D01*
X175688585Y-77794990D01*
X175666520Y-77728696D01*
X175683799Y-77660997D01*
X175734936Y-77613386D01*
X175742974Y-77609715D01*
X175917752Y-77537320D01*
X176089781Y-77438000D01*
X176118743Y-77421279D01*
X176118745Y-77421278D01*
X176155581Y-77393013D01*
X176302877Y-77279989D01*
X176466989Y-77115877D01*
X176608276Y-76931748D01*
X176724320Y-76730752D01*
X176813137Y-76516330D01*
X176873206Y-76292149D01*
X176903500Y-76062045D01*
X176903500Y-75829955D01*
X176873206Y-75599851D01*
X176813137Y-75375670D01*
X176724320Y-75161248D01*
X176719990Y-75153748D01*
X176608279Y-74960256D01*
X176608278Y-74960254D01*
X176466990Y-74776124D01*
X176466984Y-74776117D01*
X176302882Y-74612015D01*
X176302875Y-74612009D01*
X176118745Y-74470721D01*
X176118743Y-74470720D01*
X175917762Y-74354685D01*
X175917754Y-74354681D01*
X175917752Y-74354680D01*
X175909524Y-74351272D01*
X175876715Y-74337682D01*
X175743639Y-74282559D01*
X175689238Y-74238720D01*
X175667173Y-74172426D01*
X175684452Y-74104727D01*
X175735589Y-74057116D01*
X175743628Y-74053444D01*
X175917752Y-73981320D01*
X176113945Y-73868049D01*
X176118743Y-73865279D01*
X176118745Y-73865278D01*
X176156449Y-73836347D01*
X176302877Y-73723989D01*
X176466989Y-73559877D01*
X176608276Y-73375748D01*
X176647074Y-73308548D01*
X176708300Y-73202501D01*
X176716986Y-73194218D01*
X176721974Y-73183297D01*
X176741806Y-73170551D01*
X176758866Y-73154285D01*
X176772122Y-73151068D01*
X176780752Y-73145523D01*
X176815687Y-73140500D01*
X177027770Y-73140500D01*
X177094809Y-73160185D01*
X177115451Y-73176819D01*
X178664181Y-74725548D01*
X178697666Y-74786871D01*
X178700500Y-74813229D01*
X178700500Y-88918769D01*
X178680815Y-88985808D01*
X178664181Y-89006450D01*
X174344545Y-93326086D01*
X174314869Y-93370503D01*
X174314868Y-93370505D01*
X174262419Y-93448999D01*
X174262412Y-93449011D01*
X174205843Y-93585582D01*
X174205840Y-93585592D01*
X174177000Y-93730579D01*
X174177000Y-101311670D01*
X174157315Y-101378709D01*
X174140681Y-101399351D01*
X173382951Y-102157081D01*
X173321628Y-102190566D01*
X173295270Y-102193400D01*
X165418530Y-102193400D01*
X165351491Y-102173715D01*
X165305736Y-102120911D01*
X165295792Y-102051753D01*
X165324817Y-101988197D01*
X165330849Y-101981719D01*
X165392667Y-101919901D01*
X165454612Y-101857956D01*
X165546714Y-101708634D01*
X165601899Y-101542097D01*
X165612400Y-101439309D01*
X165612399Y-100689292D01*
X165601899Y-100586503D01*
X165546714Y-100419966D01*
X165454612Y-100270644D01*
X165330556Y-100146588D01*
X165327719Y-100144838D01*
X165326183Y-100143130D01*
X165324889Y-100142107D01*
X165325063Y-100141885D01*
X165280996Y-100092894D01*
X165269772Y-100023932D01*
X165297613Y-99959849D01*
X165306708Y-99950073D01*
X165316332Y-99940785D01*
X165330556Y-99932012D01*
X165454612Y-99807956D01*
X165455551Y-99806433D01*
X165462660Y-99799573D01*
X165486536Y-99787081D01*
X165508525Y-99771512D01*
X165519933Y-99769609D01*
X165524569Y-99767184D01*
X165531017Y-99767760D01*
X165548768Y-99764800D01*
X167376496Y-99764800D01*
X167423944Y-99774237D01*
X167447603Y-99784037D01*
X167447608Y-99784038D01*
X167447611Y-99784039D01*
X167602253Y-99814799D01*
X167602256Y-99814800D01*
X167602258Y-99814800D01*
X167759944Y-99814800D01*
X167759945Y-99814799D01*
X167914597Y-99784037D01*
X168060279Y-99723694D01*
X168191389Y-99636089D01*
X168302889Y-99524589D01*
X168390494Y-99393479D01*
X168450837Y-99247797D01*
X168481600Y-99093142D01*
X168481600Y-98935458D01*
X168481600Y-98935455D01*
X168481599Y-98935453D01*
X168450838Y-98780810D01*
X168450837Y-98780803D01*
X168450835Y-98780798D01*
X168390497Y-98635127D01*
X168390490Y-98635114D01*
X168302889Y-98504011D01*
X168302886Y-98504007D01*
X168191392Y-98392513D01*
X168191388Y-98392510D01*
X168060285Y-98304909D01*
X168060272Y-98304902D01*
X167914601Y-98244564D01*
X167914589Y-98244561D01*
X167759945Y-98213800D01*
X167759942Y-98213800D01*
X167602258Y-98213800D01*
X167602255Y-98213800D01*
X167447611Y-98244560D01*
X167447606Y-98244562D01*
X167447604Y-98244562D01*
X167447603Y-98244563D01*
X167423944Y-98254362D01*
X167376496Y-98263800D01*
X165548768Y-98263800D01*
X165481729Y-98244115D01*
X165460553Y-98224916D01*
X165459719Y-98225751D01*
X165330557Y-98096589D01*
X165330556Y-98096588D01*
X165181234Y-98004486D01*
X165014697Y-97949301D01*
X165014695Y-97949300D01*
X164911910Y-97938800D01*
X163911898Y-97938800D01*
X163911880Y-97938801D01*
X163809103Y-97949300D01*
X163809100Y-97949301D01*
X163642568Y-98004485D01*
X163642563Y-98004487D01*
X163493242Y-98096589D01*
X163369189Y-98220642D01*
X163277087Y-98369963D01*
X163277085Y-98369968D01*
X163249249Y-98453970D01*
X163221901Y-98536503D01*
X163221901Y-98536504D01*
X163221900Y-98536504D01*
X163211400Y-98639283D01*
X163211400Y-99389301D01*
X163211401Y-99389319D01*
X163221900Y-99492096D01*
X163221901Y-99492099D01*
X163254596Y-99590765D01*
X163277086Y-99658634D01*
X163364017Y-99799573D01*
X163369189Y-99807957D01*
X163493246Y-99932014D01*
X163496082Y-99933763D01*
X163497617Y-99935470D01*
X163498911Y-99936493D01*
X163498736Y-99936714D01*
X163542805Y-99985711D01*
X163554026Y-100054674D01*
X163526182Y-100118756D01*
X163517091Y-100128527D01*
X163507465Y-100137816D01*
X163493244Y-100146588D01*
X163369188Y-100270644D01*
X163368248Y-100272166D01*
X163361140Y-100279027D01*
X163337263Y-100291518D01*
X163315275Y-100307088D01*
X163303866Y-100308990D01*
X163299231Y-100311416D01*
X163292782Y-100310839D01*
X163275032Y-100313800D01*
X162742129Y-100313800D01*
X162675090Y-100294115D01*
X162654448Y-100277481D01*
X162022418Y-99645449D01*
X162022416Y-99645447D01*
X161973224Y-99612580D01*
X161940575Y-99590765D01*
X161899495Y-99563316D01*
X161899494Y-99563315D01*
X161899492Y-99563314D01*
X161899490Y-99563313D01*
X161762917Y-99506743D01*
X161762907Y-99506740D01*
X161617920Y-99477900D01*
X161617918Y-99477900D01*
X160936028Y-99477900D01*
X160901433Y-99472976D01*
X160756273Y-99430802D01*
X160756267Y-99430801D01*
X160719401Y-99427900D01*
X160719394Y-99427900D01*
X159553200Y-99427900D01*
X159486161Y-99408215D01*
X159440406Y-99355411D01*
X159429200Y-99303900D01*
X159429200Y-99062713D01*
X159429199Y-99062698D01*
X159426298Y-99025832D01*
X159426297Y-99025826D01*
X159380445Y-98868006D01*
X159380444Y-98868003D01*
X159380444Y-98868002D01*
X159296781Y-98726535D01*
X159296779Y-98726533D01*
X159296776Y-98726529D01*
X159180570Y-98610323D01*
X159180562Y-98610317D01*
X159039096Y-98526655D01*
X159039093Y-98526654D01*
X158881273Y-98480802D01*
X158881267Y-98480801D01*
X158844401Y-98477900D01*
X158844394Y-98477900D01*
X157538006Y-98477900D01*
X157537998Y-98477900D01*
X157501132Y-98480801D01*
X157501126Y-98480802D01*
X157355967Y-98522976D01*
X157321372Y-98527900D01*
X157146230Y-98527900D01*
X157079191Y-98508215D01*
X157058549Y-98491581D01*
X156863921Y-98296952D01*
X156863918Y-98296949D01*
X156785515Y-98244563D01*
X156785511Y-98244560D01*
X156740995Y-98214816D01*
X156740992Y-98214814D01*
X156740991Y-98214814D01*
X156604417Y-98158243D01*
X156604407Y-98158240D01*
X156459420Y-98129400D01*
X156459418Y-98129400D01*
X155707138Y-98129400D01*
X155640099Y-98109715D01*
X155601599Y-98070497D01*
X155534212Y-97961244D01*
X155410156Y-97837188D01*
X155260834Y-97745086D01*
X155094297Y-97689901D01*
X155094295Y-97689900D01*
X154991510Y-97679400D01*
X154191498Y-97679400D01*
X154191480Y-97679401D01*
X154088703Y-97689900D01*
X154088700Y-97689901D01*
X153922168Y-97745085D01*
X153922163Y-97745087D01*
X153772842Y-97837189D01*
X153679181Y-97930851D01*
X153617858Y-97964336D01*
X153548166Y-97959352D01*
X153503819Y-97930851D01*
X153410157Y-97837189D01*
X153410156Y-97837188D01*
X153275902Y-97754380D01*
X153229179Y-97702433D01*
X153217000Y-97648842D01*
X153217000Y-97269352D01*
X153236685Y-97202313D01*
X153253319Y-97181671D01*
X153570671Y-96864319D01*
X153631994Y-96830834D01*
X153658352Y-96828000D01*
X155604150Y-96828000D01*
X155671189Y-96847685D01*
X155673041Y-96848898D01*
X155767321Y-96911894D01*
X155767323Y-96911895D01*
X155767327Y-96911897D01*
X155912998Y-96972235D01*
X155913003Y-96972237D01*
X156067653Y-97002999D01*
X156067656Y-97003000D01*
X156067658Y-97003000D01*
X156225344Y-97003000D01*
X156225345Y-97002999D01*
X156379997Y-96972237D01*
X156525679Y-96911894D01*
X156656789Y-96824289D01*
X156768289Y-96712789D01*
X156855894Y-96581679D01*
X156864805Y-96560167D01*
X156869567Y-96548666D01*
X156916237Y-96435997D01*
X156947000Y-96281342D01*
X156947000Y-96123658D01*
X156947000Y-96123655D01*
X156946999Y-96123653D01*
X156916238Y-95969010D01*
X156916237Y-95969003D01*
X156916235Y-95968998D01*
X156855897Y-95823327D01*
X156855890Y-95823314D01*
X156768289Y-95692211D01*
X156768286Y-95692207D01*
X156656792Y-95580713D01*
X156656788Y-95580710D01*
X156525685Y-95493109D01*
X156525672Y-95493102D01*
X156380001Y-95432764D01*
X156379989Y-95432761D01*
X156225345Y-95402000D01*
X156225342Y-95402000D01*
X156067658Y-95402000D01*
X156067655Y-95402000D01*
X155913010Y-95432761D01*
X155912998Y-95432764D01*
X155767327Y-95493102D01*
X155767315Y-95493109D01*
X155673041Y-95556102D01*
X155606364Y-95576980D01*
X155604150Y-95577000D01*
X153286289Y-95577000D01*
X153225871Y-95589018D01*
X153188159Y-95596519D01*
X153165450Y-95601036D01*
X153165448Y-95601037D01*
X153132107Y-95614847D01*
X153051619Y-95648184D01*
X153051605Y-95648192D01*
X152949172Y-95716638D01*
X152949164Y-95716644D01*
X152195456Y-96470352D01*
X152195448Y-96470360D01*
X152192770Y-96473039D01*
X152192767Y-96473042D01*
X152105642Y-96560167D01*
X152078203Y-96601233D01*
X152073546Y-96608202D01*
X152073541Y-96608208D01*
X152037191Y-96662608D01*
X152037189Y-96662611D01*
X152037188Y-96662614D01*
X152015101Y-96715939D01*
X151990038Y-96776445D01*
X151990035Y-96776455D01*
X151966000Y-96897289D01*
X151966000Y-97648842D01*
X151946315Y-97715881D01*
X151907098Y-97754379D01*
X151820709Y-97807664D01*
X151772842Y-97837189D01*
X151648789Y-97961242D01*
X151556687Y-98110563D01*
X151556686Y-98110566D01*
X151501501Y-98277103D01*
X151501501Y-98277104D01*
X151501500Y-98277104D01*
X151491000Y-98379883D01*
X151491000Y-99379901D01*
X151491001Y-99379919D01*
X151501500Y-99482696D01*
X151501501Y-99482699D01*
X151537311Y-99590765D01*
X151556686Y-99649234D01*
X151648788Y-99798556D01*
X151772844Y-99922612D01*
X151907097Y-100005419D01*
X151913919Y-100013004D01*
X151923203Y-100017244D01*
X151936890Y-100038542D01*
X151953821Y-100057365D01*
X151956465Y-100069001D01*
X151960977Y-100076022D01*
X151966000Y-100110957D01*
X151966000Y-100188842D01*
X151946315Y-100255881D01*
X151907098Y-100294379D01*
X151879478Y-100311416D01*
X151772842Y-100377189D01*
X151648789Y-100501242D01*
X151556687Y-100650563D01*
X151556686Y-100650566D01*
X151501501Y-100817103D01*
X151501501Y-100817104D01*
X151501500Y-100817104D01*
X151491000Y-100919883D01*
X151491000Y-101919901D01*
X151491001Y-101919908D01*
X151501500Y-102022696D01*
X151501501Y-102022699D01*
X151556685Y-102189231D01*
X151556687Y-102189236D01*
X151581401Y-102229303D01*
X151648788Y-102338556D01*
X151772844Y-102462612D01*
X151922166Y-102554714D01*
X152088703Y-102609899D01*
X152191491Y-102620400D01*
X152991508Y-102620399D01*
X152991516Y-102620398D01*
X152991519Y-102620398D01*
X153047802Y-102614648D01*
X153094297Y-102609899D01*
X153260834Y-102554714D01*
X153410156Y-102462612D01*
X153503819Y-102368949D01*
X153565142Y-102335464D01*
X153634834Y-102340448D01*
X153679181Y-102368949D01*
X153772844Y-102462612D01*
X153922166Y-102554714D01*
X154088703Y-102609899D01*
X154191491Y-102620400D01*
X154991508Y-102620399D01*
X154991516Y-102620398D01*
X154991519Y-102620398D01*
X155047802Y-102614648D01*
X155094297Y-102609899D01*
X155260834Y-102554714D01*
X155410156Y-102462612D01*
X155534212Y-102338556D01*
X155601599Y-102229302D01*
X155653547Y-102182579D01*
X155707138Y-102170400D01*
X156459420Y-102170400D01*
X156556962Y-102150996D01*
X156604413Y-102141558D01*
X156740995Y-102084984D01*
X156800237Y-102045400D01*
X156863916Y-102002852D01*
X156918502Y-101948265D01*
X156923379Y-101944290D01*
X156950014Y-101933080D01*
X156975371Y-101919234D01*
X156985502Y-101918144D01*
X156987778Y-101917187D01*
X156990305Y-101917628D01*
X157001730Y-101916400D01*
X157011030Y-101916400D01*
X157035198Y-101918778D01*
X157040863Y-101919905D01*
X157040877Y-101919912D01*
X157040877Y-101919908D01*
X157063479Y-101924404D01*
X157086081Y-101928900D01*
X157086082Y-101928900D01*
X157086083Y-101928900D01*
X157233918Y-101928900D01*
X157316700Y-101928900D01*
X157383739Y-101948585D01*
X157429494Y-102001389D01*
X157440700Y-102052900D01*
X157440700Y-102537518D01*
X157440700Y-102537520D01*
X157440699Y-102537520D01*
X157469540Y-102682507D01*
X157469543Y-102682517D01*
X157526114Y-102819092D01*
X157559012Y-102868327D01*
X157559013Y-102868330D01*
X157608246Y-102942014D01*
X157608252Y-102942021D01*
X158193084Y-103526852D01*
X158193086Y-103526854D01*
X158222558Y-103546545D01*
X158266770Y-103576086D01*
X158316005Y-103608984D01*
X158316006Y-103608984D01*
X158316007Y-103608985D01*
X158316009Y-103608986D01*
X158452582Y-103665556D01*
X158452587Y-103665558D01*
X158452591Y-103665558D01*
X158452592Y-103665559D01*
X158597579Y-103694400D01*
X158597582Y-103694400D01*
X173731420Y-103694400D01*
X173828962Y-103674996D01*
X173876413Y-103665558D01*
X174012995Y-103608984D01*
X174062229Y-103576086D01*
X174062234Y-103576083D01*
X174086571Y-103559821D01*
X174135916Y-103526852D01*
X175510451Y-102152316D01*
X175592584Y-102029395D01*
X175649158Y-101892813D01*
X175670413Y-101785959D01*
X175678000Y-101747820D01*
X175678000Y-97267975D01*
X180728500Y-97267975D01*
X180728500Y-97550024D01*
X180765312Y-97829634D01*
X180838310Y-98102065D01*
X180946236Y-98362622D01*
X180946241Y-98362633D01*
X181087250Y-98606866D01*
X181087261Y-98606882D01*
X181258944Y-98830624D01*
X181258950Y-98830631D01*
X181458368Y-99030049D01*
X181458374Y-99030054D01*
X181682126Y-99201745D01*
X181682133Y-99201749D01*
X181926366Y-99342758D01*
X181926371Y-99342760D01*
X181926374Y-99342762D01*
X182186939Y-99450691D01*
X182459363Y-99523687D01*
X182738983Y-99560500D01*
X182738990Y-99560500D01*
X183021010Y-99560500D01*
X183021017Y-99560500D01*
X183300637Y-99523687D01*
X183573061Y-99450691D01*
X183833626Y-99342762D01*
X184077874Y-99201745D01*
X184301626Y-99030054D01*
X184501054Y-98830626D01*
X184672745Y-98606874D01*
X184813762Y-98362626D01*
X184921691Y-98102061D01*
X184994687Y-97829637D01*
X185031500Y-97550017D01*
X185031500Y-97267983D01*
X184994687Y-96988363D01*
X184921691Y-96715939D01*
X184920387Y-96712792D01*
X184813763Y-96455377D01*
X184813758Y-96455366D01*
X184672749Y-96211133D01*
X184672745Y-96211126D01*
X184501054Y-95987374D01*
X184501049Y-95987368D01*
X184301631Y-95787950D01*
X184301624Y-95787944D01*
X184077882Y-95616261D01*
X184077880Y-95616259D01*
X184077874Y-95616255D01*
X184077869Y-95616252D01*
X184077866Y-95616250D01*
X183833633Y-95475241D01*
X183833622Y-95475236D01*
X183573065Y-95367310D01*
X183300634Y-95294312D01*
X183021024Y-95257500D01*
X183021017Y-95257500D01*
X182738983Y-95257500D01*
X182738975Y-95257500D01*
X182459365Y-95294312D01*
X182186934Y-95367310D01*
X181926377Y-95475236D01*
X181926366Y-95475241D01*
X181682133Y-95616250D01*
X181682117Y-95616261D01*
X181458375Y-95787944D01*
X181458368Y-95787950D01*
X181258950Y-95987368D01*
X181258944Y-95987375D01*
X181087261Y-96211117D01*
X181087250Y-96211133D01*
X180946241Y-96455366D01*
X180946236Y-96455377D01*
X180838310Y-96715934D01*
X180765312Y-96988365D01*
X180728500Y-97267975D01*
X175678000Y-97267975D01*
X175678000Y-94166729D01*
X175697685Y-94099690D01*
X175714319Y-94079048D01*
X180033948Y-89759419D01*
X180033951Y-89759416D01*
X180116084Y-89636495D01*
X180172658Y-89499913D01*
X180197640Y-89374325D01*
X180201500Y-89354920D01*
X180201500Y-74377079D01*
X180172659Y-74232092D01*
X180172658Y-74232091D01*
X180172658Y-74232087D01*
X180140698Y-74154928D01*
X180116087Y-74095511D01*
X180116080Y-74095498D01*
X180033952Y-73972585D01*
X179985225Y-73923858D01*
X179929416Y-73868049D01*
X178617048Y-72555681D01*
X178583563Y-72494358D01*
X178588547Y-72424666D01*
X178617048Y-72380319D01*
X179779950Y-71217417D01*
X179779952Y-71217415D01*
X179819259Y-71158587D01*
X179862084Y-71094495D01*
X179885518Y-71037920D01*
X179918659Y-70957912D01*
X179947500Y-70812917D01*
X179947500Y-70665082D01*
X179947500Y-62410082D01*
X179947500Y-59743082D01*
X179947500Y-57897975D01*
X180728500Y-57897975D01*
X180728500Y-58180024D01*
X180765312Y-58459634D01*
X180838310Y-58732065D01*
X180946236Y-58992622D01*
X180946241Y-58992633D01*
X181087250Y-59236866D01*
X181087261Y-59236882D01*
X181258944Y-59460624D01*
X181258950Y-59460631D01*
X181458368Y-59660049D01*
X181458375Y-59660055D01*
X181566578Y-59743082D01*
X181682126Y-59831745D01*
X181682133Y-59831749D01*
X181926366Y-59972758D01*
X181926371Y-59972760D01*
X181926374Y-59972762D01*
X182186939Y-60080691D01*
X182459363Y-60153687D01*
X182738983Y-60190500D01*
X182738990Y-60190500D01*
X183021010Y-60190500D01*
X183021017Y-60190500D01*
X183300637Y-60153687D01*
X183573061Y-60080691D01*
X183833626Y-59972762D01*
X184077874Y-59831745D01*
X184301626Y-59660054D01*
X184501054Y-59460626D01*
X184672745Y-59236874D01*
X184813762Y-58992626D01*
X184921691Y-58732061D01*
X184994687Y-58459637D01*
X185031500Y-58180017D01*
X185031500Y-57897983D01*
X184994687Y-57618363D01*
X184921691Y-57345939D01*
X184813762Y-57085374D01*
X184813760Y-57085371D01*
X184813758Y-57085366D01*
X184672749Y-56841133D01*
X184672745Y-56841126D01*
X184591736Y-56735553D01*
X184501055Y-56617375D01*
X184501049Y-56617368D01*
X184301631Y-56417950D01*
X184301624Y-56417944D01*
X184077882Y-56246261D01*
X184077880Y-56246259D01*
X184077874Y-56246255D01*
X184077869Y-56246252D01*
X184077866Y-56246250D01*
X183833633Y-56105241D01*
X183833622Y-56105236D01*
X183573065Y-55997310D01*
X183300634Y-55924312D01*
X183021024Y-55887500D01*
X183021017Y-55887500D01*
X182738983Y-55887500D01*
X182738975Y-55887500D01*
X182459365Y-55924312D01*
X182186934Y-55997310D01*
X181926377Y-56105236D01*
X181926366Y-56105241D01*
X181682133Y-56246250D01*
X181682117Y-56246261D01*
X181458375Y-56417944D01*
X181458368Y-56417950D01*
X181258950Y-56617368D01*
X181258944Y-56617375D01*
X181087261Y-56841117D01*
X181087250Y-56841133D01*
X180946241Y-57085366D01*
X180946236Y-57085377D01*
X180838310Y-57345934D01*
X180765312Y-57618365D01*
X180728500Y-57897975D01*
X179947500Y-57897975D01*
X179947500Y-52250082D01*
X179947500Y-52250079D01*
X179918659Y-52105092D01*
X179918658Y-52105091D01*
X179918658Y-52105087D01*
X179891915Y-52040523D01*
X179862086Y-51968509D01*
X179862085Y-51968507D01*
X179846051Y-51944511D01*
X179829186Y-51919270D01*
X179829185Y-51919268D01*
X179779956Y-51845589D01*
X179779952Y-51845584D01*
X177888066Y-49953698D01*
X177803859Y-49869491D01*
X180666900Y-49869491D01*
X180666900Y-50206508D01*
X180704631Y-50541381D01*
X180704633Y-50541397D01*
X180779623Y-50869953D01*
X180779627Y-50869965D01*
X180890932Y-51188054D01*
X181037152Y-51491683D01*
X181037154Y-51491686D01*
X181216454Y-51777039D01*
X181426575Y-52040523D01*
X181664877Y-52278825D01*
X181928361Y-52488946D01*
X182200387Y-52659872D01*
X182213716Y-52668247D01*
X182240626Y-52681206D01*
X182517349Y-52814469D01*
X182712259Y-52882671D01*
X182835434Y-52925772D01*
X182835446Y-52925776D01*
X183164006Y-53000767D01*
X183498892Y-53038499D01*
X183498893Y-53038500D01*
X183498896Y-53038500D01*
X183835907Y-53038500D01*
X183835907Y-53038499D01*
X184170794Y-53000767D01*
X184499354Y-52925776D01*
X184817451Y-52814469D01*
X185121086Y-52668246D01*
X185406439Y-52488946D01*
X185669923Y-52278825D01*
X185908225Y-52040523D01*
X186118346Y-51777039D01*
X186297646Y-51491686D01*
X186443869Y-51188051D01*
X186555176Y-50869954D01*
X186630167Y-50541394D01*
X186667900Y-50206504D01*
X186667900Y-49869496D01*
X186630167Y-49534606D01*
X186555176Y-49206046D01*
X186443869Y-48887949D01*
X186297646Y-48584314D01*
X186118346Y-48298961D01*
X185908225Y-48035477D01*
X185669923Y-47797175D01*
X185406439Y-47587054D01*
X185121086Y-47407754D01*
X185121083Y-47407752D01*
X184817454Y-47261532D01*
X184499365Y-47150227D01*
X184499353Y-47150223D01*
X184170797Y-47075233D01*
X184170781Y-47075231D01*
X183835908Y-47037500D01*
X183835904Y-47037500D01*
X183498896Y-47037500D01*
X183498891Y-47037500D01*
X183164018Y-47075231D01*
X183164002Y-47075233D01*
X182835446Y-47150223D01*
X182835434Y-47150227D01*
X182517345Y-47261532D01*
X182213716Y-47407752D01*
X181928362Y-47587053D01*
X181664877Y-47797174D01*
X181426574Y-48035477D01*
X181216453Y-48298962D01*
X181037152Y-48584316D01*
X180890932Y-48887945D01*
X180779627Y-49206034D01*
X180779623Y-49206046D01*
X180704633Y-49534602D01*
X180704631Y-49534618D01*
X180666900Y-49869491D01*
X177803859Y-49869491D01*
X175611421Y-47677052D01*
X175611414Y-47677046D01*
X175537729Y-47627812D01*
X175537729Y-47627813D01*
X175488491Y-47594913D01*
X175351917Y-47538343D01*
X175351907Y-47538340D01*
X175206920Y-47509500D01*
X175206918Y-47509500D01*
X151689082Y-47509500D01*
X151689076Y-47509500D01*
X151660242Y-47515234D01*
X151660243Y-47515235D01*
X151544093Y-47538339D01*
X151544083Y-47538342D01*
X151464081Y-47571479D01*
X151464082Y-47571480D01*
X151407506Y-47594915D01*
X151345270Y-47636500D01*
X151284582Y-47677049D01*
X151284579Y-47677052D01*
X150152052Y-48809578D01*
X150152049Y-48809581D01*
X150114742Y-48865415D01*
X150114743Y-48865416D01*
X150069914Y-48932508D01*
X150013343Y-49069082D01*
X150013340Y-49069092D01*
X149984500Y-49214079D01*
X149984500Y-50373057D01*
X149964815Y-50440096D01*
X149915595Y-50484145D01*
X149885704Y-50498969D01*
X149737278Y-50618277D01*
X149737277Y-50618278D01*
X149617969Y-50766704D01*
X149617967Y-50766707D01*
X149533360Y-50937302D01*
X149493290Y-51098427D01*
X149458007Y-51158734D01*
X149395722Y-51190392D01*
X149372955Y-51192500D01*
X147475080Y-51192500D01*
X147330092Y-51221340D01*
X147330082Y-51221343D01*
X147193511Y-51277912D01*
X147193498Y-51277919D01*
X147070584Y-51360048D01*
X147070580Y-51360051D01*
X146609045Y-51821586D01*
X146577314Y-51869079D01*
X146577312Y-51869082D01*
X146526919Y-51944499D01*
X146526912Y-51944511D01*
X146470343Y-52081082D01*
X146470340Y-52081092D01*
X146441500Y-52226079D01*
X146441500Y-52662442D01*
X146421815Y-52729481D01*
X146382598Y-52767979D01*
X146339565Y-52794523D01*
X146248342Y-52850789D01*
X146124289Y-52974842D01*
X146032187Y-53124163D01*
X146032185Y-53124168D01*
X146027104Y-53139504D01*
X145987332Y-53196949D01*
X145922816Y-53223772D01*
X145909398Y-53224500D01*
X143409699Y-53224500D01*
X143342660Y-53204815D01*
X143296905Y-53152011D01*
X143285699Y-53100500D01*
X143285699Y-53077129D01*
X143285698Y-53077123D01*
X143285697Y-53077116D01*
X143279291Y-53017517D01*
X143274471Y-53004595D01*
X143228997Y-52882671D01*
X143228993Y-52882664D01*
X143142747Y-52767455D01*
X143142744Y-52767452D01*
X143027535Y-52681206D01*
X143027528Y-52681202D01*
X142892682Y-52630908D01*
X142892683Y-52630908D01*
X142833083Y-52624501D01*
X142833081Y-52624500D01*
X142833073Y-52624500D01*
X142833064Y-52624500D01*
X141037329Y-52624500D01*
X141037323Y-52624501D01*
X140977716Y-52630908D01*
X140842871Y-52681202D01*
X140842864Y-52681206D01*
X140727655Y-52767452D01*
X140727652Y-52767455D01*
X140641406Y-52882664D01*
X140641402Y-52882671D01*
X140591108Y-53017517D01*
X140588249Y-53044115D01*
X140584701Y-53077123D01*
X140584700Y-53077135D01*
X140584700Y-53100500D01*
X140565015Y-53167539D01*
X140512211Y-53213294D01*
X140460700Y-53224500D01*
X137467076Y-53224500D01*
X137438242Y-53230234D01*
X137438243Y-53230235D01*
X137322093Y-53253339D01*
X137322083Y-53253342D01*
X137242081Y-53286479D01*
X137242082Y-53286480D01*
X137185509Y-53309914D01*
X137185503Y-53309917D01*
X137179724Y-53313778D01*
X137173944Y-53317641D01*
X137062579Y-53392051D01*
X137062578Y-53392052D01*
X135180048Y-55274583D01*
X135162981Y-55300126D01*
X135146029Y-55325499D01*
X135146028Y-55325500D01*
X135097914Y-55397507D01*
X135041343Y-55534082D01*
X135041340Y-55534092D01*
X135012500Y-55679079D01*
X135012500Y-55679082D01*
X135012500Y-72590918D01*
X135012500Y-72590920D01*
X135012499Y-72590920D01*
X130040500Y-72590920D01*
X130040500Y-49869491D01*
X131289300Y-49869491D01*
X131289300Y-50206508D01*
X131327031Y-50541381D01*
X131327033Y-50541397D01*
X131402023Y-50869953D01*
X131402027Y-50869965D01*
X131513332Y-51188054D01*
X131659552Y-51491683D01*
X131659554Y-51491686D01*
X131838854Y-51777039D01*
X132048975Y-52040523D01*
X132287277Y-52278825D01*
X132550761Y-52488946D01*
X132822787Y-52659872D01*
X132836116Y-52668247D01*
X132863026Y-52681206D01*
X133139749Y-52814469D01*
X133334659Y-52882671D01*
X133457834Y-52925772D01*
X133457846Y-52925776D01*
X133786406Y-53000767D01*
X134121292Y-53038499D01*
X134121293Y-53038500D01*
X134121296Y-53038500D01*
X134458307Y-53038500D01*
X134458307Y-53038499D01*
X134793194Y-53000767D01*
X135121754Y-52925776D01*
X135439851Y-52814469D01*
X135743486Y-52668246D01*
X136028839Y-52488946D01*
X136292323Y-52278825D01*
X136530625Y-52040523D01*
X136740746Y-51777039D01*
X136920046Y-51491686D01*
X137066269Y-51188051D01*
X137177576Y-50869954D01*
X137252567Y-50541394D01*
X137290300Y-50206504D01*
X137290300Y-49869496D01*
X137252567Y-49534606D01*
X137177576Y-49206046D01*
X137066269Y-48887949D01*
X136920046Y-48584314D01*
X136740746Y-48298961D01*
X136530625Y-48035477D01*
X136292323Y-47797175D01*
X136028839Y-47587054D01*
X135743486Y-47407754D01*
X135743483Y-47407752D01*
X135439854Y-47261532D01*
X135121765Y-47150227D01*
X135121753Y-47150223D01*
X134793197Y-47075233D01*
X134793181Y-47075231D01*
X134458308Y-47037500D01*
X134458304Y-47037500D01*
X134121296Y-47037500D01*
X134121291Y-47037500D01*
X133786418Y-47075231D01*
X133786402Y-47075233D01*
X133457846Y-47150223D01*
X133457834Y-47150227D01*
X133139745Y-47261532D01*
X132836116Y-47407752D01*
X132550762Y-47587053D01*
X132287277Y-47797174D01*
X132048974Y-48035477D01*
X131838853Y-48298962D01*
X131659552Y-48584316D01*
X131513332Y-48887945D01*
X131402027Y-49206034D01*
X131402023Y-49206046D01*
X131327033Y-49534602D01*
X131327031Y-49534618D01*
X131289300Y-49869491D01*
X130040500Y-49869491D01*
X130040500Y-46344500D01*
X130060185Y-46277461D01*
X130112989Y-46231706D01*
X130164500Y-46220500D01*
X187335500Y-46220500D01*
X187402539Y-46240185D01*
G37*
G04 #@! TD.AperFunction*
M02*
