G04 #@! TF.GenerationSoftware,KiCad,Pcbnew,9.0.5*
G04 #@! TF.CreationDate,2025-11-16T23:30:58+01:00*
G04 #@! TF.ProjectId,MiSTer_A8SIO,4d695354-6572-45f4-9138-53494f2e6b69,1.2*
G04 #@! TF.SameCoordinates,Original*
G04 #@! TF.FileFunction,Legend,Bot*
G04 #@! TF.FilePolarity,Positive*
%FSLAX46Y46*%
G04 Gerber Fmt 4.6, Leading zero omitted, Abs format (unit mm)*
G04 Created by KiCad (PCBNEW 9.0.5) date 2025-11-16 23:30:58*
%MOMM*%
%LPD*%
G01*
G04 APERTURE LIST*
G04 Aperture macros list*
%AMRoundRect*
0 Rectangle with rounded corners*
0 $1 Rounding radius*
0 $2 $3 $4 $5 $6 $7 $8 $9 X,Y pos of 4 corners*
0 Add a 4 corners polygon primitive as box body*
4,1,4,$2,$3,$4,$5,$6,$7,$8,$9,$2,$3,0*
0 Add four circle primitives for the rounded corners*
1,1,$1+$1,$2,$3*
1,1,$1+$1,$4,$5*
1,1,$1+$1,$6,$7*
1,1,$1+$1,$8,$9*
0 Add four rect primitives between the rounded corners*
20,1,$1+$1,$2,$3,$4,$5,0*
20,1,$1+$1,$4,$5,$6,$7,0*
20,1,$1+$1,$6,$7,$8,$9,0*
20,1,$1+$1,$8,$9,$2,$3,0*%
G04 Aperture macros list end*
%ADD10C,0.200000*%
%ADD11C,0.100000*%
%ADD12C,0.010000*%
%ADD13C,2.889806*%
%ADD14R,1.700000X1.700000*%
%ADD15O,1.700000X1.700000*%
%ADD16C,3.302000*%
%ADD17RoundRect,0.635000X-0.635000X0.635000X-0.635000X-0.635000X0.635000X-0.635000X0.635000X0.635000X0*%
%ADD18C,2.540000*%
%ADD19RoundRect,0.250000X-0.350000X0.350000X-0.350000X-0.350000X0.350000X-0.350000X0.350000X0.350000X0*%
%ADD20C,1.200000*%
%ADD21C,3.300000*%
G04 APERTURE END LIST*
D10*
X170453279Y-102168028D02*
X170453279Y-100668028D01*
X170453279Y-100668028D02*
X169953279Y-101739457D01*
X169953279Y-101739457D02*
X169453279Y-100668028D01*
X169453279Y-100668028D02*
X169453279Y-102168028D01*
X168738993Y-102168028D02*
X168738993Y-101168028D01*
X168738993Y-100668028D02*
X168810421Y-100739457D01*
X168810421Y-100739457D02*
X168738993Y-100810885D01*
X168738993Y-100810885D02*
X168667564Y-100739457D01*
X168667564Y-100739457D02*
X168738993Y-100668028D01*
X168738993Y-100668028D02*
X168738993Y-100810885D01*
X168096135Y-102096600D02*
X167881850Y-102168028D01*
X167881850Y-102168028D02*
X167524707Y-102168028D01*
X167524707Y-102168028D02*
X167381850Y-102096600D01*
X167381850Y-102096600D02*
X167310421Y-102025171D01*
X167310421Y-102025171D02*
X167238992Y-101882314D01*
X167238992Y-101882314D02*
X167238992Y-101739457D01*
X167238992Y-101739457D02*
X167310421Y-101596600D01*
X167310421Y-101596600D02*
X167381850Y-101525171D01*
X167381850Y-101525171D02*
X167524707Y-101453742D01*
X167524707Y-101453742D02*
X167810421Y-101382314D01*
X167810421Y-101382314D02*
X167953278Y-101310885D01*
X167953278Y-101310885D02*
X168024707Y-101239457D01*
X168024707Y-101239457D02*
X168096135Y-101096600D01*
X168096135Y-101096600D02*
X168096135Y-100953742D01*
X168096135Y-100953742D02*
X168024707Y-100810885D01*
X168024707Y-100810885D02*
X167953278Y-100739457D01*
X167953278Y-100739457D02*
X167810421Y-100668028D01*
X167810421Y-100668028D02*
X167453278Y-100668028D01*
X167453278Y-100668028D02*
X167238992Y-100739457D01*
X166810421Y-100668028D02*
X165953279Y-100668028D01*
X166381850Y-102168028D02*
X166381850Y-100668028D01*
X164881850Y-102096600D02*
X165024707Y-102168028D01*
X165024707Y-102168028D02*
X165310422Y-102168028D01*
X165310422Y-102168028D02*
X165453279Y-102096600D01*
X165453279Y-102096600D02*
X165524707Y-101953742D01*
X165524707Y-101953742D02*
X165524707Y-101382314D01*
X165524707Y-101382314D02*
X165453279Y-101239457D01*
X165453279Y-101239457D02*
X165310422Y-101168028D01*
X165310422Y-101168028D02*
X165024707Y-101168028D01*
X165024707Y-101168028D02*
X164881850Y-101239457D01*
X164881850Y-101239457D02*
X164810422Y-101382314D01*
X164810422Y-101382314D02*
X164810422Y-101525171D01*
X164810422Y-101525171D02*
X165524707Y-101668028D01*
X164167565Y-102168028D02*
X164167565Y-101168028D01*
X164167565Y-101453742D02*
X164096136Y-101310885D01*
X164096136Y-101310885D02*
X164024708Y-101239457D01*
X164024708Y-101239457D02*
X163881850Y-101168028D01*
X163881850Y-101168028D02*
X163738993Y-101168028D01*
X163596137Y-102310885D02*
X162453279Y-102310885D01*
X162167565Y-101739457D02*
X161453280Y-101739457D01*
X162310422Y-102168028D02*
X161810422Y-100668028D01*
X161810422Y-100668028D02*
X161310422Y-102168028D01*
X160596137Y-101310885D02*
X160738994Y-101239457D01*
X160738994Y-101239457D02*
X160810423Y-101168028D01*
X160810423Y-101168028D02*
X160881851Y-101025171D01*
X160881851Y-101025171D02*
X160881851Y-100953742D01*
X160881851Y-100953742D02*
X160810423Y-100810885D01*
X160810423Y-100810885D02*
X160738994Y-100739457D01*
X160738994Y-100739457D02*
X160596137Y-100668028D01*
X160596137Y-100668028D02*
X160310423Y-100668028D01*
X160310423Y-100668028D02*
X160167566Y-100739457D01*
X160167566Y-100739457D02*
X160096137Y-100810885D01*
X160096137Y-100810885D02*
X160024708Y-100953742D01*
X160024708Y-100953742D02*
X160024708Y-101025171D01*
X160024708Y-101025171D02*
X160096137Y-101168028D01*
X160096137Y-101168028D02*
X160167566Y-101239457D01*
X160167566Y-101239457D02*
X160310423Y-101310885D01*
X160310423Y-101310885D02*
X160596137Y-101310885D01*
X160596137Y-101310885D02*
X160738994Y-101382314D01*
X160738994Y-101382314D02*
X160810423Y-101453742D01*
X160810423Y-101453742D02*
X160881851Y-101596600D01*
X160881851Y-101596600D02*
X160881851Y-101882314D01*
X160881851Y-101882314D02*
X160810423Y-102025171D01*
X160810423Y-102025171D02*
X160738994Y-102096600D01*
X160738994Y-102096600D02*
X160596137Y-102168028D01*
X160596137Y-102168028D02*
X160310423Y-102168028D01*
X160310423Y-102168028D02*
X160167566Y-102096600D01*
X160167566Y-102096600D02*
X160096137Y-102025171D01*
X160096137Y-102025171D02*
X160024708Y-101882314D01*
X160024708Y-101882314D02*
X160024708Y-101596600D01*
X160024708Y-101596600D02*
X160096137Y-101453742D01*
X160096137Y-101453742D02*
X160167566Y-101382314D01*
X160167566Y-101382314D02*
X160310423Y-101310885D01*
X159453280Y-102096600D02*
X159238995Y-102168028D01*
X159238995Y-102168028D02*
X158881852Y-102168028D01*
X158881852Y-102168028D02*
X158738995Y-102096600D01*
X158738995Y-102096600D02*
X158667566Y-102025171D01*
X158667566Y-102025171D02*
X158596137Y-101882314D01*
X158596137Y-101882314D02*
X158596137Y-101739457D01*
X158596137Y-101739457D02*
X158667566Y-101596600D01*
X158667566Y-101596600D02*
X158738995Y-101525171D01*
X158738995Y-101525171D02*
X158881852Y-101453742D01*
X158881852Y-101453742D02*
X159167566Y-101382314D01*
X159167566Y-101382314D02*
X159310423Y-101310885D01*
X159310423Y-101310885D02*
X159381852Y-101239457D01*
X159381852Y-101239457D02*
X159453280Y-101096600D01*
X159453280Y-101096600D02*
X159453280Y-100953742D01*
X159453280Y-100953742D02*
X159381852Y-100810885D01*
X159381852Y-100810885D02*
X159310423Y-100739457D01*
X159310423Y-100739457D02*
X159167566Y-100668028D01*
X159167566Y-100668028D02*
X158810423Y-100668028D01*
X158810423Y-100668028D02*
X158596137Y-100739457D01*
X157953281Y-102168028D02*
X157953281Y-100668028D01*
X156953280Y-100668028D02*
X156667566Y-100668028D01*
X156667566Y-100668028D02*
X156524709Y-100739457D01*
X156524709Y-100739457D02*
X156381852Y-100882314D01*
X156381852Y-100882314D02*
X156310423Y-101168028D01*
X156310423Y-101168028D02*
X156310423Y-101668028D01*
X156310423Y-101668028D02*
X156381852Y-101953742D01*
X156381852Y-101953742D02*
X156524709Y-102096600D01*
X156524709Y-102096600D02*
X156667566Y-102168028D01*
X156667566Y-102168028D02*
X156953280Y-102168028D01*
X156953280Y-102168028D02*
X157096138Y-102096600D01*
X157096138Y-102096600D02*
X157238995Y-101953742D01*
X157238995Y-101953742D02*
X157310423Y-101668028D01*
X157310423Y-101668028D02*
X157310423Y-101168028D01*
X157310423Y-101168028D02*
X157238995Y-100882314D01*
X157238995Y-100882314D02*
X157096138Y-100739457D01*
X157096138Y-100739457D02*
X156953280Y-100668028D01*
X154667566Y-101168028D02*
X154310423Y-102168028D01*
X154310423Y-102168028D02*
X153953280Y-101168028D01*
X152596137Y-102168028D02*
X153453280Y-102168028D01*
X153024709Y-102168028D02*
X153024709Y-100668028D01*
X153024709Y-100668028D02*
X153167566Y-100882314D01*
X153167566Y-100882314D02*
X153310423Y-101025171D01*
X153310423Y-101025171D02*
X153453280Y-101096600D01*
X151953281Y-102025171D02*
X151881852Y-102096600D01*
X151881852Y-102096600D02*
X151953281Y-102168028D01*
X151953281Y-102168028D02*
X152024709Y-102096600D01*
X152024709Y-102096600D02*
X151953281Y-102025171D01*
X151953281Y-102025171D02*
X151953281Y-102168028D01*
X151310423Y-100810885D02*
X151238995Y-100739457D01*
X151238995Y-100739457D02*
X151096138Y-100668028D01*
X151096138Y-100668028D02*
X150738995Y-100668028D01*
X150738995Y-100668028D02*
X150596138Y-100739457D01*
X150596138Y-100739457D02*
X150524709Y-100810885D01*
X150524709Y-100810885D02*
X150453280Y-100953742D01*
X150453280Y-100953742D02*
X150453280Y-101096600D01*
X150453280Y-101096600D02*
X150524709Y-101310885D01*
X150524709Y-101310885D02*
X151381852Y-102168028D01*
X151381852Y-102168028D02*
X150453280Y-102168028D01*
D11*
X170685734Y-104132856D02*
X170542877Y-104180475D01*
X170542877Y-104180475D02*
X170304782Y-104180475D01*
X170304782Y-104180475D02*
X170209544Y-104132856D01*
X170209544Y-104132856D02*
X170161925Y-104085236D01*
X170161925Y-104085236D02*
X170114306Y-103989998D01*
X170114306Y-103989998D02*
X170114306Y-103894760D01*
X170114306Y-103894760D02*
X170161925Y-103799522D01*
X170161925Y-103799522D02*
X170209544Y-103751903D01*
X170209544Y-103751903D02*
X170304782Y-103704284D01*
X170304782Y-103704284D02*
X170495258Y-103656665D01*
X170495258Y-103656665D02*
X170590496Y-103609046D01*
X170590496Y-103609046D02*
X170638115Y-103561427D01*
X170638115Y-103561427D02*
X170685734Y-103466189D01*
X170685734Y-103466189D02*
X170685734Y-103370951D01*
X170685734Y-103370951D02*
X170638115Y-103275713D01*
X170638115Y-103275713D02*
X170590496Y-103228094D01*
X170590496Y-103228094D02*
X170495258Y-103180475D01*
X170495258Y-103180475D02*
X170257163Y-103180475D01*
X170257163Y-103180475D02*
X170114306Y-103228094D01*
X169685734Y-104180475D02*
X169685734Y-103180475D01*
X169019068Y-103180475D02*
X168828592Y-103180475D01*
X168828592Y-103180475D02*
X168733354Y-103228094D01*
X168733354Y-103228094D02*
X168638116Y-103323332D01*
X168638116Y-103323332D02*
X168590497Y-103513808D01*
X168590497Y-103513808D02*
X168590497Y-103847141D01*
X168590497Y-103847141D02*
X168638116Y-104037617D01*
X168638116Y-104037617D02*
X168733354Y-104132856D01*
X168733354Y-104132856D02*
X168828592Y-104180475D01*
X168828592Y-104180475D02*
X169019068Y-104180475D01*
X169019068Y-104180475D02*
X169114306Y-104132856D01*
X169114306Y-104132856D02*
X169209544Y-104037617D01*
X169209544Y-104037617D02*
X169257163Y-103847141D01*
X169257163Y-103847141D02*
X169257163Y-103513808D01*
X169257163Y-103513808D02*
X169209544Y-103323332D01*
X169209544Y-103323332D02*
X169114306Y-103228094D01*
X169114306Y-103228094D02*
X169019068Y-103180475D01*
X166971449Y-104180475D02*
X166971449Y-103656665D01*
X166971449Y-103656665D02*
X167019068Y-103561427D01*
X167019068Y-103561427D02*
X167114306Y-103513808D01*
X167114306Y-103513808D02*
X167304782Y-103513808D01*
X167304782Y-103513808D02*
X167400020Y-103561427D01*
X166971449Y-104132856D02*
X167066687Y-104180475D01*
X167066687Y-104180475D02*
X167304782Y-104180475D01*
X167304782Y-104180475D02*
X167400020Y-104132856D01*
X167400020Y-104132856D02*
X167447639Y-104037617D01*
X167447639Y-104037617D02*
X167447639Y-103942379D01*
X167447639Y-103942379D02*
X167400020Y-103847141D01*
X167400020Y-103847141D02*
X167304782Y-103799522D01*
X167304782Y-103799522D02*
X167066687Y-103799522D01*
X167066687Y-103799522D02*
X166971449Y-103751903D01*
X166066687Y-104180475D02*
X166066687Y-103180475D01*
X166066687Y-104132856D02*
X166161925Y-104180475D01*
X166161925Y-104180475D02*
X166352401Y-104180475D01*
X166352401Y-104180475D02*
X166447639Y-104132856D01*
X166447639Y-104132856D02*
X166495258Y-104085236D01*
X166495258Y-104085236D02*
X166542877Y-103989998D01*
X166542877Y-103989998D02*
X166542877Y-103704284D01*
X166542877Y-103704284D02*
X166495258Y-103609046D01*
X166495258Y-103609046D02*
X166447639Y-103561427D01*
X166447639Y-103561427D02*
X166352401Y-103513808D01*
X166352401Y-103513808D02*
X166161925Y-103513808D01*
X166161925Y-103513808D02*
X166066687Y-103561427D01*
X165161925Y-104180475D02*
X165161925Y-103656665D01*
X165161925Y-103656665D02*
X165209544Y-103561427D01*
X165209544Y-103561427D02*
X165304782Y-103513808D01*
X165304782Y-103513808D02*
X165495258Y-103513808D01*
X165495258Y-103513808D02*
X165590496Y-103561427D01*
X165161925Y-104132856D02*
X165257163Y-104180475D01*
X165257163Y-104180475D02*
X165495258Y-104180475D01*
X165495258Y-104180475D02*
X165590496Y-104132856D01*
X165590496Y-104132856D02*
X165638115Y-104037617D01*
X165638115Y-104037617D02*
X165638115Y-103942379D01*
X165638115Y-103942379D02*
X165590496Y-103847141D01*
X165590496Y-103847141D02*
X165495258Y-103799522D01*
X165495258Y-103799522D02*
X165257163Y-103799522D01*
X165257163Y-103799522D02*
X165161925Y-103751903D01*
X164685734Y-103513808D02*
X164685734Y-104513808D01*
X164685734Y-103561427D02*
X164590496Y-103513808D01*
X164590496Y-103513808D02*
X164400020Y-103513808D01*
X164400020Y-103513808D02*
X164304782Y-103561427D01*
X164304782Y-103561427D02*
X164257163Y-103609046D01*
X164257163Y-103609046D02*
X164209544Y-103704284D01*
X164209544Y-103704284D02*
X164209544Y-103989998D01*
X164209544Y-103989998D02*
X164257163Y-104085236D01*
X164257163Y-104085236D02*
X164304782Y-104132856D01*
X164304782Y-104132856D02*
X164400020Y-104180475D01*
X164400020Y-104180475D02*
X164590496Y-104180475D01*
X164590496Y-104180475D02*
X164685734Y-104132856D01*
X163923829Y-103513808D02*
X163542877Y-103513808D01*
X163780972Y-103180475D02*
X163780972Y-104037617D01*
X163780972Y-104037617D02*
X163733353Y-104132856D01*
X163733353Y-104132856D02*
X163638115Y-104180475D01*
X163638115Y-104180475D02*
X163542877Y-104180475D01*
X162828591Y-104132856D02*
X162923829Y-104180475D01*
X162923829Y-104180475D02*
X163114305Y-104180475D01*
X163114305Y-104180475D02*
X163209543Y-104132856D01*
X163209543Y-104132856D02*
X163257162Y-104037617D01*
X163257162Y-104037617D02*
X163257162Y-103656665D01*
X163257162Y-103656665D02*
X163209543Y-103561427D01*
X163209543Y-103561427D02*
X163114305Y-103513808D01*
X163114305Y-103513808D02*
X162923829Y-103513808D01*
X162923829Y-103513808D02*
X162828591Y-103561427D01*
X162828591Y-103561427D02*
X162780972Y-103656665D01*
X162780972Y-103656665D02*
X162780972Y-103751903D01*
X162780972Y-103751903D02*
X163257162Y-103847141D01*
X162352400Y-104180475D02*
X162352400Y-103513808D01*
X162352400Y-103704284D02*
X162304781Y-103609046D01*
X162304781Y-103609046D02*
X162257162Y-103561427D01*
X162257162Y-103561427D02*
X162161924Y-103513808D01*
X162161924Y-103513808D02*
X162066686Y-103513808D01*
X161114304Y-103513808D02*
X160733352Y-103513808D01*
X160971447Y-104180475D02*
X160971447Y-103323332D01*
X160971447Y-103323332D02*
X160923828Y-103228094D01*
X160923828Y-103228094D02*
X160828590Y-103180475D01*
X160828590Y-103180475D02*
X160733352Y-103180475D01*
X160257161Y-104180475D02*
X160352399Y-104132856D01*
X160352399Y-104132856D02*
X160400018Y-104085236D01*
X160400018Y-104085236D02*
X160447637Y-103989998D01*
X160447637Y-103989998D02*
X160447637Y-103704284D01*
X160447637Y-103704284D02*
X160400018Y-103609046D01*
X160400018Y-103609046D02*
X160352399Y-103561427D01*
X160352399Y-103561427D02*
X160257161Y-103513808D01*
X160257161Y-103513808D02*
X160114304Y-103513808D01*
X160114304Y-103513808D02*
X160019066Y-103561427D01*
X160019066Y-103561427D02*
X159971447Y-103609046D01*
X159971447Y-103609046D02*
X159923828Y-103704284D01*
X159923828Y-103704284D02*
X159923828Y-103989998D01*
X159923828Y-103989998D02*
X159971447Y-104085236D01*
X159971447Y-104085236D02*
X160019066Y-104132856D01*
X160019066Y-104132856D02*
X160114304Y-104180475D01*
X160114304Y-104180475D02*
X160257161Y-104180475D01*
X159495256Y-104180475D02*
X159495256Y-103513808D01*
X159495256Y-103704284D02*
X159447637Y-103609046D01*
X159447637Y-103609046D02*
X159400018Y-103561427D01*
X159400018Y-103561427D02*
X159304780Y-103513808D01*
X159304780Y-103513808D02*
X159209542Y-103513808D01*
X158161922Y-103894760D02*
X157685732Y-103894760D01*
X158257160Y-104180475D02*
X157923827Y-103180475D01*
X157923827Y-103180475D02*
X157590494Y-104180475D01*
X157400017Y-103513808D02*
X157019065Y-103513808D01*
X157257160Y-103180475D02*
X157257160Y-104037617D01*
X157257160Y-104037617D02*
X157209541Y-104132856D01*
X157209541Y-104132856D02*
X157114303Y-104180475D01*
X157114303Y-104180475D02*
X157019065Y-104180475D01*
X156257160Y-104180475D02*
X156257160Y-103656665D01*
X156257160Y-103656665D02*
X156304779Y-103561427D01*
X156304779Y-103561427D02*
X156400017Y-103513808D01*
X156400017Y-103513808D02*
X156590493Y-103513808D01*
X156590493Y-103513808D02*
X156685731Y-103561427D01*
X156257160Y-104132856D02*
X156352398Y-104180475D01*
X156352398Y-104180475D02*
X156590493Y-104180475D01*
X156590493Y-104180475D02*
X156685731Y-104132856D01*
X156685731Y-104132856D02*
X156733350Y-104037617D01*
X156733350Y-104037617D02*
X156733350Y-103942379D01*
X156733350Y-103942379D02*
X156685731Y-103847141D01*
X156685731Y-103847141D02*
X156590493Y-103799522D01*
X156590493Y-103799522D02*
X156352398Y-103799522D01*
X156352398Y-103799522D02*
X156257160Y-103751903D01*
X155780969Y-104180475D02*
X155780969Y-103513808D01*
X155780969Y-103704284D02*
X155733350Y-103609046D01*
X155733350Y-103609046D02*
X155685731Y-103561427D01*
X155685731Y-103561427D02*
X155590493Y-103513808D01*
X155590493Y-103513808D02*
X155495255Y-103513808D01*
X155161921Y-104180475D02*
X155161921Y-103513808D01*
X155161921Y-103180475D02*
X155209540Y-103228094D01*
X155209540Y-103228094D02*
X155161921Y-103275713D01*
X155161921Y-103275713D02*
X155114302Y-103228094D01*
X155114302Y-103228094D02*
X155161921Y-103180475D01*
X155161921Y-103180475D02*
X155161921Y-103275713D01*
X153780969Y-103609046D02*
X153876207Y-103561427D01*
X153876207Y-103561427D02*
X153923826Y-103513808D01*
X153923826Y-103513808D02*
X153971445Y-103418570D01*
X153971445Y-103418570D02*
X153971445Y-103370951D01*
X153971445Y-103370951D02*
X153923826Y-103275713D01*
X153923826Y-103275713D02*
X153876207Y-103228094D01*
X153876207Y-103228094D02*
X153780969Y-103180475D01*
X153780969Y-103180475D02*
X153590493Y-103180475D01*
X153590493Y-103180475D02*
X153495255Y-103228094D01*
X153495255Y-103228094D02*
X153447636Y-103275713D01*
X153447636Y-103275713D02*
X153400017Y-103370951D01*
X153400017Y-103370951D02*
X153400017Y-103418570D01*
X153400017Y-103418570D02*
X153447636Y-103513808D01*
X153447636Y-103513808D02*
X153495255Y-103561427D01*
X153495255Y-103561427D02*
X153590493Y-103609046D01*
X153590493Y-103609046D02*
X153780969Y-103609046D01*
X153780969Y-103609046D02*
X153876207Y-103656665D01*
X153876207Y-103656665D02*
X153923826Y-103704284D01*
X153923826Y-103704284D02*
X153971445Y-103799522D01*
X153971445Y-103799522D02*
X153971445Y-103989998D01*
X153971445Y-103989998D02*
X153923826Y-104085236D01*
X153923826Y-104085236D02*
X153876207Y-104132856D01*
X153876207Y-104132856D02*
X153780969Y-104180475D01*
X153780969Y-104180475D02*
X153590493Y-104180475D01*
X153590493Y-104180475D02*
X153495255Y-104132856D01*
X153495255Y-104132856D02*
X153447636Y-104085236D01*
X153447636Y-104085236D02*
X153400017Y-103989998D01*
X153400017Y-103989998D02*
X153400017Y-103799522D01*
X153400017Y-103799522D02*
X153447636Y-103704284D01*
X153447636Y-103704284D02*
X153495255Y-103656665D01*
X153495255Y-103656665D02*
X153590493Y-103609046D01*
X152971445Y-103799522D02*
X152209541Y-103799522D01*
X151733350Y-104180475D02*
X151733350Y-103180475D01*
X151733350Y-103561427D02*
X151638112Y-103513808D01*
X151638112Y-103513808D02*
X151447636Y-103513808D01*
X151447636Y-103513808D02*
X151352398Y-103561427D01*
X151352398Y-103561427D02*
X151304779Y-103609046D01*
X151304779Y-103609046D02*
X151257160Y-103704284D01*
X151257160Y-103704284D02*
X151257160Y-103989998D01*
X151257160Y-103989998D02*
X151304779Y-104085236D01*
X151304779Y-104085236D02*
X151352398Y-104132856D01*
X151352398Y-104132856D02*
X151447636Y-104180475D01*
X151447636Y-104180475D02*
X151638112Y-104180475D01*
X151638112Y-104180475D02*
X151733350Y-104132856D01*
X150828588Y-104180475D02*
X150828588Y-103513808D01*
X150828588Y-103180475D02*
X150876207Y-103228094D01*
X150876207Y-103228094D02*
X150828588Y-103275713D01*
X150828588Y-103275713D02*
X150780969Y-103228094D01*
X150780969Y-103228094D02*
X150828588Y-103180475D01*
X150828588Y-103180475D02*
X150828588Y-103275713D01*
X150495255Y-103513808D02*
X150114303Y-103513808D01*
X150352398Y-103180475D02*
X150352398Y-104037617D01*
X150352398Y-104037617D02*
X150304779Y-104132856D01*
X150304779Y-104132856D02*
X150209541Y-104180475D01*
X150209541Y-104180475D02*
X150114303Y-104180475D01*
X148590493Y-104180475D02*
X148590493Y-103180475D01*
X148590493Y-104132856D02*
X148685731Y-104180475D01*
X148685731Y-104180475D02*
X148876207Y-104180475D01*
X148876207Y-104180475D02*
X148971445Y-104132856D01*
X148971445Y-104132856D02*
X149019064Y-104085236D01*
X149019064Y-104085236D02*
X149066683Y-103989998D01*
X149066683Y-103989998D02*
X149066683Y-103704284D01*
X149066683Y-103704284D02*
X149019064Y-103609046D01*
X149019064Y-103609046D02*
X148971445Y-103561427D01*
X148971445Y-103561427D02*
X148876207Y-103513808D01*
X148876207Y-103513808D02*
X148685731Y-103513808D01*
X148685731Y-103513808D02*
X148590493Y-103561427D01*
X147733350Y-104132856D02*
X147828588Y-104180475D01*
X147828588Y-104180475D02*
X148019064Y-104180475D01*
X148019064Y-104180475D02*
X148114302Y-104132856D01*
X148114302Y-104132856D02*
X148161921Y-104037617D01*
X148161921Y-104037617D02*
X148161921Y-103656665D01*
X148161921Y-103656665D02*
X148114302Y-103561427D01*
X148114302Y-103561427D02*
X148019064Y-103513808D01*
X148019064Y-103513808D02*
X147828588Y-103513808D01*
X147828588Y-103513808D02*
X147733350Y-103561427D01*
X147733350Y-103561427D02*
X147685731Y-103656665D01*
X147685731Y-103656665D02*
X147685731Y-103751903D01*
X147685731Y-103751903D02*
X148161921Y-103847141D01*
X147352397Y-103513808D02*
X147114302Y-104180475D01*
X147114302Y-104180475D02*
X146876207Y-103513808D01*
X146495254Y-104180475D02*
X146495254Y-103513808D01*
X146495254Y-103180475D02*
X146542873Y-103228094D01*
X146542873Y-103228094D02*
X146495254Y-103275713D01*
X146495254Y-103275713D02*
X146447635Y-103228094D01*
X146447635Y-103228094D02*
X146495254Y-103180475D01*
X146495254Y-103180475D02*
X146495254Y-103275713D01*
X145590493Y-104132856D02*
X145685731Y-104180475D01*
X145685731Y-104180475D02*
X145876207Y-104180475D01*
X145876207Y-104180475D02*
X145971445Y-104132856D01*
X145971445Y-104132856D02*
X146019064Y-104085236D01*
X146019064Y-104085236D02*
X146066683Y-103989998D01*
X146066683Y-103989998D02*
X146066683Y-103704284D01*
X146066683Y-103704284D02*
X146019064Y-103609046D01*
X146019064Y-103609046D02*
X145971445Y-103561427D01*
X145971445Y-103561427D02*
X145876207Y-103513808D01*
X145876207Y-103513808D02*
X145685731Y-103513808D01*
X145685731Y-103513808D02*
X145590493Y-103561427D01*
X144780969Y-104132856D02*
X144876207Y-104180475D01*
X144876207Y-104180475D02*
X145066683Y-104180475D01*
X145066683Y-104180475D02*
X145161921Y-104132856D01*
X145161921Y-104132856D02*
X145209540Y-104037617D01*
X145209540Y-104037617D02*
X145209540Y-103656665D01*
X145209540Y-103656665D02*
X145161921Y-103561427D01*
X145161921Y-103561427D02*
X145066683Y-103513808D01*
X145066683Y-103513808D02*
X144876207Y-103513808D01*
X144876207Y-103513808D02*
X144780969Y-103561427D01*
X144780969Y-103561427D02*
X144733350Y-103656665D01*
X144733350Y-103656665D02*
X144733350Y-103751903D01*
X144733350Y-103751903D02*
X145209540Y-103847141D01*
X144352397Y-104132856D02*
X144257159Y-104180475D01*
X144257159Y-104180475D02*
X144066683Y-104180475D01*
X144066683Y-104180475D02*
X143971445Y-104132856D01*
X143971445Y-104132856D02*
X143923826Y-104037617D01*
X143923826Y-104037617D02*
X143923826Y-103989998D01*
X143923826Y-103989998D02*
X143971445Y-103894760D01*
X143971445Y-103894760D02*
X144066683Y-103847141D01*
X144066683Y-103847141D02*
X144209540Y-103847141D01*
X144209540Y-103847141D02*
X144304778Y-103799522D01*
X144304778Y-103799522D02*
X144352397Y-103704284D01*
X144352397Y-103704284D02*
X144352397Y-103656665D01*
X144352397Y-103656665D02*
X144304778Y-103561427D01*
X144304778Y-103561427D02*
X144209540Y-103513808D01*
X144209540Y-103513808D02*
X144066683Y-103513808D01*
X144066683Y-103513808D02*
X143971445Y-103561427D01*
X170638115Y-105790419D02*
X170638115Y-104790419D01*
X170209544Y-105790419D02*
X170209544Y-105266609D01*
X170209544Y-105266609D02*
X170257163Y-105171371D01*
X170257163Y-105171371D02*
X170352401Y-105123752D01*
X170352401Y-105123752D02*
X170495258Y-105123752D01*
X170495258Y-105123752D02*
X170590496Y-105171371D01*
X170590496Y-105171371D02*
X170638115Y-105218990D01*
X169876210Y-105123752D02*
X169495258Y-105123752D01*
X169733353Y-104790419D02*
X169733353Y-105647561D01*
X169733353Y-105647561D02*
X169685734Y-105742800D01*
X169685734Y-105742800D02*
X169590496Y-105790419D01*
X169590496Y-105790419D02*
X169495258Y-105790419D01*
X169304781Y-105123752D02*
X168923829Y-105123752D01*
X169161924Y-104790419D02*
X169161924Y-105647561D01*
X169161924Y-105647561D02*
X169114305Y-105742800D01*
X169114305Y-105742800D02*
X169019067Y-105790419D01*
X169019067Y-105790419D02*
X168923829Y-105790419D01*
X168590495Y-105123752D02*
X168590495Y-106123752D01*
X168590495Y-105171371D02*
X168495257Y-105123752D01*
X168495257Y-105123752D02*
X168304781Y-105123752D01*
X168304781Y-105123752D02*
X168209543Y-105171371D01*
X168209543Y-105171371D02*
X168161924Y-105218990D01*
X168161924Y-105218990D02*
X168114305Y-105314228D01*
X168114305Y-105314228D02*
X168114305Y-105599942D01*
X168114305Y-105599942D02*
X168161924Y-105695180D01*
X168161924Y-105695180D02*
X168209543Y-105742800D01*
X168209543Y-105742800D02*
X168304781Y-105790419D01*
X168304781Y-105790419D02*
X168495257Y-105790419D01*
X168495257Y-105790419D02*
X168590495Y-105742800D01*
X167733352Y-105742800D02*
X167638114Y-105790419D01*
X167638114Y-105790419D02*
X167447638Y-105790419D01*
X167447638Y-105790419D02*
X167352400Y-105742800D01*
X167352400Y-105742800D02*
X167304781Y-105647561D01*
X167304781Y-105647561D02*
X167304781Y-105599942D01*
X167304781Y-105599942D02*
X167352400Y-105504704D01*
X167352400Y-105504704D02*
X167447638Y-105457085D01*
X167447638Y-105457085D02*
X167590495Y-105457085D01*
X167590495Y-105457085D02*
X167685733Y-105409466D01*
X167685733Y-105409466D02*
X167733352Y-105314228D01*
X167733352Y-105314228D02*
X167733352Y-105266609D01*
X167733352Y-105266609D02*
X167685733Y-105171371D01*
X167685733Y-105171371D02*
X167590495Y-105123752D01*
X167590495Y-105123752D02*
X167447638Y-105123752D01*
X167447638Y-105123752D02*
X167352400Y-105171371D01*
X166876209Y-105695180D02*
X166828590Y-105742800D01*
X166828590Y-105742800D02*
X166876209Y-105790419D01*
X166876209Y-105790419D02*
X166923828Y-105742800D01*
X166923828Y-105742800D02*
X166876209Y-105695180D01*
X166876209Y-105695180D02*
X166876209Y-105790419D01*
X166876209Y-105171371D02*
X166828590Y-105218990D01*
X166828590Y-105218990D02*
X166876209Y-105266609D01*
X166876209Y-105266609D02*
X166923828Y-105218990D01*
X166923828Y-105218990D02*
X166876209Y-105171371D01*
X166876209Y-105171371D02*
X166876209Y-105266609D01*
X165685734Y-104742800D02*
X166542876Y-106028514D01*
X164638115Y-104742800D02*
X165495257Y-106028514D01*
X163876210Y-105123752D02*
X163876210Y-105933276D01*
X163876210Y-105933276D02*
X163923829Y-106028514D01*
X163923829Y-106028514D02*
X163971448Y-106076133D01*
X163971448Y-106076133D02*
X164066686Y-106123752D01*
X164066686Y-106123752D02*
X164209543Y-106123752D01*
X164209543Y-106123752D02*
X164304781Y-106076133D01*
X163876210Y-105742800D02*
X163971448Y-105790419D01*
X163971448Y-105790419D02*
X164161924Y-105790419D01*
X164161924Y-105790419D02*
X164257162Y-105742800D01*
X164257162Y-105742800D02*
X164304781Y-105695180D01*
X164304781Y-105695180D02*
X164352400Y-105599942D01*
X164352400Y-105599942D02*
X164352400Y-105314228D01*
X164352400Y-105314228D02*
X164304781Y-105218990D01*
X164304781Y-105218990D02*
X164257162Y-105171371D01*
X164257162Y-105171371D02*
X164161924Y-105123752D01*
X164161924Y-105123752D02*
X163971448Y-105123752D01*
X163971448Y-105123752D02*
X163876210Y-105171371D01*
X163400019Y-105790419D02*
X163400019Y-105123752D01*
X163400019Y-104790419D02*
X163447638Y-104838038D01*
X163447638Y-104838038D02*
X163400019Y-104885657D01*
X163400019Y-104885657D02*
X163352400Y-104838038D01*
X163352400Y-104838038D02*
X163400019Y-104790419D01*
X163400019Y-104790419D02*
X163400019Y-104885657D01*
X163066686Y-105123752D02*
X162685734Y-105123752D01*
X162923829Y-104790419D02*
X162923829Y-105647561D01*
X162923829Y-105647561D02*
X162876210Y-105742800D01*
X162876210Y-105742800D02*
X162780972Y-105790419D01*
X162780972Y-105790419D02*
X162685734Y-105790419D01*
X162352400Y-105790419D02*
X162352400Y-104790419D01*
X161923829Y-105790419D02*
X161923829Y-105266609D01*
X161923829Y-105266609D02*
X161971448Y-105171371D01*
X161971448Y-105171371D02*
X162066686Y-105123752D01*
X162066686Y-105123752D02*
X162209543Y-105123752D01*
X162209543Y-105123752D02*
X162304781Y-105171371D01*
X162304781Y-105171371D02*
X162352400Y-105218990D01*
X161019067Y-105123752D02*
X161019067Y-105790419D01*
X161447638Y-105123752D02*
X161447638Y-105647561D01*
X161447638Y-105647561D02*
X161400019Y-105742800D01*
X161400019Y-105742800D02*
X161304781Y-105790419D01*
X161304781Y-105790419D02*
X161161924Y-105790419D01*
X161161924Y-105790419D02*
X161066686Y-105742800D01*
X161066686Y-105742800D02*
X161019067Y-105695180D01*
X160542876Y-105790419D02*
X160542876Y-104790419D01*
X160542876Y-105171371D02*
X160447638Y-105123752D01*
X160447638Y-105123752D02*
X160257162Y-105123752D01*
X160257162Y-105123752D02*
X160161924Y-105171371D01*
X160161924Y-105171371D02*
X160114305Y-105218990D01*
X160114305Y-105218990D02*
X160066686Y-105314228D01*
X160066686Y-105314228D02*
X160066686Y-105599942D01*
X160066686Y-105599942D02*
X160114305Y-105695180D01*
X160114305Y-105695180D02*
X160161924Y-105742800D01*
X160161924Y-105742800D02*
X160257162Y-105790419D01*
X160257162Y-105790419D02*
X160447638Y-105790419D01*
X160447638Y-105790419D02*
X160542876Y-105742800D01*
X159638114Y-105695180D02*
X159590495Y-105742800D01*
X159590495Y-105742800D02*
X159638114Y-105790419D01*
X159638114Y-105790419D02*
X159685733Y-105742800D01*
X159685733Y-105742800D02*
X159638114Y-105695180D01*
X159638114Y-105695180D02*
X159638114Y-105790419D01*
X158733353Y-105742800D02*
X158828591Y-105790419D01*
X158828591Y-105790419D02*
X159019067Y-105790419D01*
X159019067Y-105790419D02*
X159114305Y-105742800D01*
X159114305Y-105742800D02*
X159161924Y-105695180D01*
X159161924Y-105695180D02*
X159209543Y-105599942D01*
X159209543Y-105599942D02*
X159209543Y-105314228D01*
X159209543Y-105314228D02*
X159161924Y-105218990D01*
X159161924Y-105218990D02*
X159114305Y-105171371D01*
X159114305Y-105171371D02*
X159019067Y-105123752D01*
X159019067Y-105123752D02*
X158828591Y-105123752D01*
X158828591Y-105123752D02*
X158733353Y-105171371D01*
X158161924Y-105790419D02*
X158257162Y-105742800D01*
X158257162Y-105742800D02*
X158304781Y-105695180D01*
X158304781Y-105695180D02*
X158352400Y-105599942D01*
X158352400Y-105599942D02*
X158352400Y-105314228D01*
X158352400Y-105314228D02*
X158304781Y-105218990D01*
X158304781Y-105218990D02*
X158257162Y-105171371D01*
X158257162Y-105171371D02*
X158161924Y-105123752D01*
X158161924Y-105123752D02*
X158019067Y-105123752D01*
X158019067Y-105123752D02*
X157923829Y-105171371D01*
X157923829Y-105171371D02*
X157876210Y-105218990D01*
X157876210Y-105218990D02*
X157828591Y-105314228D01*
X157828591Y-105314228D02*
X157828591Y-105599942D01*
X157828591Y-105599942D02*
X157876210Y-105695180D01*
X157876210Y-105695180D02*
X157923829Y-105742800D01*
X157923829Y-105742800D02*
X158019067Y-105790419D01*
X158019067Y-105790419D02*
X158161924Y-105790419D01*
X157400019Y-105790419D02*
X157400019Y-105123752D01*
X157400019Y-105218990D02*
X157352400Y-105171371D01*
X157352400Y-105171371D02*
X157257162Y-105123752D01*
X157257162Y-105123752D02*
X157114305Y-105123752D01*
X157114305Y-105123752D02*
X157019067Y-105171371D01*
X157019067Y-105171371D02*
X156971448Y-105266609D01*
X156971448Y-105266609D02*
X156971448Y-105790419D01*
X156971448Y-105266609D02*
X156923829Y-105171371D01*
X156923829Y-105171371D02*
X156828591Y-105123752D01*
X156828591Y-105123752D02*
X156685734Y-105123752D01*
X156685734Y-105123752D02*
X156590495Y-105171371D01*
X156590495Y-105171371D02*
X156542876Y-105266609D01*
X156542876Y-105266609D02*
X156542876Y-105790419D01*
X155352401Y-104742800D02*
X156209543Y-106028514D01*
X155019067Y-105123752D02*
X155019067Y-106123752D01*
X155019067Y-105171371D02*
X154923829Y-105123752D01*
X154923829Y-105123752D02*
X154733353Y-105123752D01*
X154733353Y-105123752D02*
X154638115Y-105171371D01*
X154638115Y-105171371D02*
X154590496Y-105218990D01*
X154590496Y-105218990D02*
X154542877Y-105314228D01*
X154542877Y-105314228D02*
X154542877Y-105599942D01*
X154542877Y-105599942D02*
X154590496Y-105695180D01*
X154590496Y-105695180D02*
X154638115Y-105742800D01*
X154638115Y-105742800D02*
X154733353Y-105790419D01*
X154733353Y-105790419D02*
X154923829Y-105790419D01*
X154923829Y-105790419D02*
X155019067Y-105742800D01*
X154114305Y-105790419D02*
X154114305Y-105123752D01*
X154114305Y-105218990D02*
X154066686Y-105171371D01*
X154066686Y-105171371D02*
X153971448Y-105123752D01*
X153971448Y-105123752D02*
X153828591Y-105123752D01*
X153828591Y-105123752D02*
X153733353Y-105171371D01*
X153733353Y-105171371D02*
X153685734Y-105266609D01*
X153685734Y-105266609D02*
X153685734Y-105790419D01*
X153685734Y-105266609D02*
X153638115Y-105171371D01*
X153638115Y-105171371D02*
X153542877Y-105123752D01*
X153542877Y-105123752D02*
X153400020Y-105123752D01*
X153400020Y-105123752D02*
X153304781Y-105171371D01*
X153304781Y-105171371D02*
X153257162Y-105266609D01*
X153257162Y-105266609D02*
X153257162Y-105790419D01*
X152352401Y-105790419D02*
X152352401Y-105266609D01*
X152352401Y-105266609D02*
X152400020Y-105171371D01*
X152400020Y-105171371D02*
X152495258Y-105123752D01*
X152495258Y-105123752D02*
X152685734Y-105123752D01*
X152685734Y-105123752D02*
X152780972Y-105171371D01*
X152352401Y-105742800D02*
X152447639Y-105790419D01*
X152447639Y-105790419D02*
X152685734Y-105790419D01*
X152685734Y-105790419D02*
X152780972Y-105742800D01*
X152780972Y-105742800D02*
X152828591Y-105647561D01*
X152828591Y-105647561D02*
X152828591Y-105552323D01*
X152828591Y-105552323D02*
X152780972Y-105457085D01*
X152780972Y-105457085D02*
X152685734Y-105409466D01*
X152685734Y-105409466D02*
X152447639Y-105409466D01*
X152447639Y-105409466D02*
X152352401Y-105361847D01*
X151876210Y-105123752D02*
X151876210Y-105790419D01*
X151876210Y-105218990D02*
X151828591Y-105171371D01*
X151828591Y-105171371D02*
X151733353Y-105123752D01*
X151733353Y-105123752D02*
X151590496Y-105123752D01*
X151590496Y-105123752D02*
X151495258Y-105171371D01*
X151495258Y-105171371D02*
X151447639Y-105266609D01*
X151447639Y-105266609D02*
X151447639Y-105790419D01*
X150542877Y-105790419D02*
X150542877Y-104790419D01*
X150542877Y-105742800D02*
X150638115Y-105790419D01*
X150638115Y-105790419D02*
X150828591Y-105790419D01*
X150828591Y-105790419D02*
X150923829Y-105742800D01*
X150923829Y-105742800D02*
X150971448Y-105695180D01*
X150971448Y-105695180D02*
X151019067Y-105599942D01*
X151019067Y-105599942D02*
X151019067Y-105314228D01*
X151019067Y-105314228D02*
X150971448Y-105218990D01*
X150971448Y-105218990D02*
X150923829Y-105171371D01*
X150923829Y-105171371D02*
X150828591Y-105123752D01*
X150828591Y-105123752D02*
X150638115Y-105123752D01*
X150638115Y-105123752D02*
X150542877Y-105171371D01*
X149685734Y-105742800D02*
X149780972Y-105790419D01*
X149780972Y-105790419D02*
X149971448Y-105790419D01*
X149971448Y-105790419D02*
X150066686Y-105742800D01*
X150066686Y-105742800D02*
X150114305Y-105647561D01*
X150114305Y-105647561D02*
X150114305Y-105266609D01*
X150114305Y-105266609D02*
X150066686Y-105171371D01*
X150066686Y-105171371D02*
X149971448Y-105123752D01*
X149971448Y-105123752D02*
X149780972Y-105123752D01*
X149780972Y-105123752D02*
X149685734Y-105171371D01*
X149685734Y-105171371D02*
X149638115Y-105266609D01*
X149638115Y-105266609D02*
X149638115Y-105361847D01*
X149638115Y-105361847D02*
X150114305Y-105457085D01*
X149257162Y-105742800D02*
X149161924Y-105790419D01*
X149161924Y-105790419D02*
X148971448Y-105790419D01*
X148971448Y-105790419D02*
X148876210Y-105742800D01*
X148876210Y-105742800D02*
X148828591Y-105647561D01*
X148828591Y-105647561D02*
X148828591Y-105599942D01*
X148828591Y-105599942D02*
X148876210Y-105504704D01*
X148876210Y-105504704D02*
X148971448Y-105457085D01*
X148971448Y-105457085D02*
X149114305Y-105457085D01*
X149114305Y-105457085D02*
X149209543Y-105409466D01*
X149209543Y-105409466D02*
X149257162Y-105314228D01*
X149257162Y-105314228D02*
X149257162Y-105266609D01*
X149257162Y-105266609D02*
X149209543Y-105171371D01*
X149209543Y-105171371D02*
X149114305Y-105123752D01*
X149114305Y-105123752D02*
X148971448Y-105123752D01*
X148971448Y-105123752D02*
X148876210Y-105171371D01*
X147685734Y-104742800D02*
X148542876Y-106028514D01*
X147352400Y-105790419D02*
X147352400Y-104790419D01*
X147352400Y-104790419D02*
X147019067Y-105504704D01*
X147019067Y-105504704D02*
X146685734Y-104790419D01*
X146685734Y-104790419D02*
X146685734Y-105790419D01*
X146209543Y-105790419D02*
X146209543Y-105123752D01*
X146209543Y-104790419D02*
X146257162Y-104838038D01*
X146257162Y-104838038D02*
X146209543Y-104885657D01*
X146209543Y-104885657D02*
X146161924Y-104838038D01*
X146161924Y-104838038D02*
X146209543Y-104790419D01*
X146209543Y-104790419D02*
X146209543Y-104885657D01*
X145780972Y-105742800D02*
X145638115Y-105790419D01*
X145638115Y-105790419D02*
X145400020Y-105790419D01*
X145400020Y-105790419D02*
X145304782Y-105742800D01*
X145304782Y-105742800D02*
X145257163Y-105695180D01*
X145257163Y-105695180D02*
X145209544Y-105599942D01*
X145209544Y-105599942D02*
X145209544Y-105504704D01*
X145209544Y-105504704D02*
X145257163Y-105409466D01*
X145257163Y-105409466D02*
X145304782Y-105361847D01*
X145304782Y-105361847D02*
X145400020Y-105314228D01*
X145400020Y-105314228D02*
X145590496Y-105266609D01*
X145590496Y-105266609D02*
X145685734Y-105218990D01*
X145685734Y-105218990D02*
X145733353Y-105171371D01*
X145733353Y-105171371D02*
X145780972Y-105076133D01*
X145780972Y-105076133D02*
X145780972Y-104980895D01*
X145780972Y-104980895D02*
X145733353Y-104885657D01*
X145733353Y-104885657D02*
X145685734Y-104838038D01*
X145685734Y-104838038D02*
X145590496Y-104790419D01*
X145590496Y-104790419D02*
X145352401Y-104790419D01*
X145352401Y-104790419D02*
X145209544Y-104838038D01*
X144923829Y-104790419D02*
X144352401Y-104790419D01*
X144638115Y-105790419D02*
X144638115Y-104790419D01*
X143638115Y-105742800D02*
X143733353Y-105790419D01*
X143733353Y-105790419D02*
X143923829Y-105790419D01*
X143923829Y-105790419D02*
X144019067Y-105742800D01*
X144019067Y-105742800D02*
X144066686Y-105647561D01*
X144066686Y-105647561D02*
X144066686Y-105266609D01*
X144066686Y-105266609D02*
X144019067Y-105171371D01*
X144019067Y-105171371D02*
X143923829Y-105123752D01*
X143923829Y-105123752D02*
X143733353Y-105123752D01*
X143733353Y-105123752D02*
X143638115Y-105171371D01*
X143638115Y-105171371D02*
X143590496Y-105266609D01*
X143590496Y-105266609D02*
X143590496Y-105361847D01*
X143590496Y-105361847D02*
X144066686Y-105457085D01*
X143161924Y-105790419D02*
X143161924Y-105123752D01*
X143161924Y-105314228D02*
X143114305Y-105218990D01*
X143114305Y-105218990D02*
X143066686Y-105171371D01*
X143066686Y-105171371D02*
X142971448Y-105123752D01*
X142971448Y-105123752D02*
X142876210Y-105123752D01*
X142780972Y-105885657D02*
X142019067Y-105885657D01*
X141828590Y-105504704D02*
X141352400Y-105504704D01*
X141923828Y-105790419D02*
X141590495Y-104790419D01*
X141590495Y-104790419D02*
X141257162Y-105790419D01*
X140780971Y-105218990D02*
X140876209Y-105171371D01*
X140876209Y-105171371D02*
X140923828Y-105123752D01*
X140923828Y-105123752D02*
X140971447Y-105028514D01*
X140971447Y-105028514D02*
X140971447Y-104980895D01*
X140971447Y-104980895D02*
X140923828Y-104885657D01*
X140923828Y-104885657D02*
X140876209Y-104838038D01*
X140876209Y-104838038D02*
X140780971Y-104790419D01*
X140780971Y-104790419D02*
X140590495Y-104790419D01*
X140590495Y-104790419D02*
X140495257Y-104838038D01*
X140495257Y-104838038D02*
X140447638Y-104885657D01*
X140447638Y-104885657D02*
X140400019Y-104980895D01*
X140400019Y-104980895D02*
X140400019Y-105028514D01*
X140400019Y-105028514D02*
X140447638Y-105123752D01*
X140447638Y-105123752D02*
X140495257Y-105171371D01*
X140495257Y-105171371D02*
X140590495Y-105218990D01*
X140590495Y-105218990D02*
X140780971Y-105218990D01*
X140780971Y-105218990D02*
X140876209Y-105266609D01*
X140876209Y-105266609D02*
X140923828Y-105314228D01*
X140923828Y-105314228D02*
X140971447Y-105409466D01*
X140971447Y-105409466D02*
X140971447Y-105599942D01*
X140971447Y-105599942D02*
X140923828Y-105695180D01*
X140923828Y-105695180D02*
X140876209Y-105742800D01*
X140876209Y-105742800D02*
X140780971Y-105790419D01*
X140780971Y-105790419D02*
X140590495Y-105790419D01*
X140590495Y-105790419D02*
X140495257Y-105742800D01*
X140495257Y-105742800D02*
X140447638Y-105695180D01*
X140447638Y-105695180D02*
X140400019Y-105599942D01*
X140400019Y-105599942D02*
X140400019Y-105409466D01*
X140400019Y-105409466D02*
X140447638Y-105314228D01*
X140447638Y-105314228D02*
X140495257Y-105266609D01*
X140495257Y-105266609D02*
X140590495Y-105218990D01*
X140019066Y-105742800D02*
X139876209Y-105790419D01*
X139876209Y-105790419D02*
X139638114Y-105790419D01*
X139638114Y-105790419D02*
X139542876Y-105742800D01*
X139542876Y-105742800D02*
X139495257Y-105695180D01*
X139495257Y-105695180D02*
X139447638Y-105599942D01*
X139447638Y-105599942D02*
X139447638Y-105504704D01*
X139447638Y-105504704D02*
X139495257Y-105409466D01*
X139495257Y-105409466D02*
X139542876Y-105361847D01*
X139542876Y-105361847D02*
X139638114Y-105314228D01*
X139638114Y-105314228D02*
X139828590Y-105266609D01*
X139828590Y-105266609D02*
X139923828Y-105218990D01*
X139923828Y-105218990D02*
X139971447Y-105171371D01*
X139971447Y-105171371D02*
X140019066Y-105076133D01*
X140019066Y-105076133D02*
X140019066Y-104980895D01*
X140019066Y-104980895D02*
X139971447Y-104885657D01*
X139971447Y-104885657D02*
X139923828Y-104838038D01*
X139923828Y-104838038D02*
X139828590Y-104790419D01*
X139828590Y-104790419D02*
X139590495Y-104790419D01*
X139590495Y-104790419D02*
X139447638Y-104838038D01*
X139019066Y-105790419D02*
X139019066Y-104790419D01*
X138352400Y-104790419D02*
X138161924Y-104790419D01*
X138161924Y-104790419D02*
X138066686Y-104838038D01*
X138066686Y-104838038D02*
X137971448Y-104933276D01*
X137971448Y-104933276D02*
X137923829Y-105123752D01*
X137923829Y-105123752D02*
X137923829Y-105457085D01*
X137923829Y-105457085D02*
X137971448Y-105647561D01*
X137971448Y-105647561D02*
X138066686Y-105742800D01*
X138066686Y-105742800D02*
X138161924Y-105790419D01*
X138161924Y-105790419D02*
X138352400Y-105790419D01*
X138352400Y-105790419D02*
X138447638Y-105742800D01*
X138447638Y-105742800D02*
X138542876Y-105647561D01*
X138542876Y-105647561D02*
X138590495Y-105457085D01*
X138590495Y-105457085D02*
X138590495Y-105123752D01*
X138590495Y-105123752D02*
X138542876Y-104933276D01*
X138542876Y-104933276D02*
X138447638Y-104838038D01*
X138447638Y-104838038D02*
X138352400Y-104790419D01*
D12*
X172633501Y-105496476D02*
X172714167Y-105526440D01*
X172747714Y-105548954D01*
X172781687Y-105581212D01*
X172805919Y-105622246D01*
X172822001Y-105678108D01*
X172831521Y-105754851D01*
X172836068Y-105858525D01*
X172837231Y-105995184D01*
X172837003Y-106065805D01*
X172835860Y-106162308D01*
X172833919Y-106239323D01*
X172831365Y-106290319D01*
X172828381Y-106308769D01*
X172808962Y-106302667D01*
X172769766Y-106286095D01*
X172768589Y-106285558D01*
X172748235Y-106274903D01*
X172734546Y-106260282D01*
X172726199Y-106234673D01*
X172721874Y-106191054D01*
X172720248Y-106122403D01*
X172720000Y-106021698D01*
X172719500Y-105957813D01*
X172714164Y-105837751D01*
X172701945Y-105749809D01*
X172681552Y-105689375D01*
X172651695Y-105651836D01*
X172611082Y-105632581D01*
X172605448Y-105631239D01*
X172529378Y-105630191D01*
X172470052Y-105664271D01*
X172429077Y-105732598D01*
X172421770Y-105752351D01*
X172405114Y-105796066D01*
X172396679Y-105816155D01*
X172379356Y-105813387D01*
X172341525Y-105798365D01*
X172306240Y-105773556D01*
X172290154Y-105726670D01*
X172294952Y-105693087D01*
X172324431Y-105624967D01*
X172372098Y-105561134D01*
X172427839Y-105516988D01*
X172451193Y-105506782D01*
X172539619Y-105489718D01*
X172633501Y-105496476D01*
G36*
X172633501Y-105496476D02*
G01*
X172714167Y-105526440D01*
X172747714Y-105548954D01*
X172781687Y-105581212D01*
X172805919Y-105622246D01*
X172822001Y-105678108D01*
X172831521Y-105754851D01*
X172836068Y-105858525D01*
X172837231Y-105995184D01*
X172837003Y-106065805D01*
X172835860Y-106162308D01*
X172833919Y-106239323D01*
X172831365Y-106290319D01*
X172828381Y-106308769D01*
X172808962Y-106302667D01*
X172769766Y-106286095D01*
X172768589Y-106285558D01*
X172748235Y-106274903D01*
X172734546Y-106260282D01*
X172726199Y-106234673D01*
X172721874Y-106191054D01*
X172720248Y-106122403D01*
X172720000Y-106021698D01*
X172719500Y-105957813D01*
X172714164Y-105837751D01*
X172701945Y-105749809D01*
X172681552Y-105689375D01*
X172651695Y-105651836D01*
X172611082Y-105632581D01*
X172605448Y-105631239D01*
X172529378Y-105630191D01*
X172470052Y-105664271D01*
X172429077Y-105732598D01*
X172421770Y-105752351D01*
X172405114Y-105796066D01*
X172396679Y-105816155D01*
X172379356Y-105813387D01*
X172341525Y-105798365D01*
X172306240Y-105773556D01*
X172290154Y-105726670D01*
X172294952Y-105693087D01*
X172324431Y-105624967D01*
X172372098Y-105561134D01*
X172427839Y-105516988D01*
X172451193Y-105506782D01*
X172539619Y-105489718D01*
X172633501Y-105496476D01*
G37*
X177948372Y-105451684D02*
X178039629Y-105494569D01*
X178114416Y-105568729D01*
X178129917Y-105591944D01*
X178142774Y-105618256D01*
X178151893Y-105651420D01*
X178158102Y-105697881D01*
X178162233Y-105764082D01*
X178165116Y-105856468D01*
X178167579Y-105981485D01*
X178173697Y-106328278D01*
X178122303Y-106308738D01*
X178075246Y-106290787D01*
X178040015Y-106273511D01*
X178017017Y-106251242D01*
X178003655Y-106217165D01*
X177997328Y-106164463D01*
X177995437Y-106086323D01*
X177995385Y-105975928D01*
X177995117Y-105887935D01*
X177993521Y-105803502D01*
X177989712Y-105745834D01*
X177982820Y-105707988D01*
X177971975Y-105683024D01*
X177956308Y-105664000D01*
X177917792Y-105637153D01*
X177853091Y-105627034D01*
X177789081Y-105652606D01*
X177784856Y-105655880D01*
X177771689Y-105671007D01*
X177761975Y-105695268D01*
X177754903Y-105734650D01*
X177749656Y-105795141D01*
X177745421Y-105882729D01*
X177741385Y-106003402D01*
X177731615Y-106326515D01*
X177565539Y-106252065D01*
X177565539Y-105957062D01*
X177565883Y-105876919D01*
X177568847Y-105765431D01*
X177576351Y-105682421D01*
X177590190Y-105621199D01*
X177612155Y-105575075D01*
X177644039Y-105537358D01*
X177687633Y-105501358D01*
X177750336Y-105465089D01*
X177849117Y-105441412D01*
X177948372Y-105451684D01*
G36*
X177948372Y-105451684D02*
G01*
X178039629Y-105494569D01*
X178114416Y-105568729D01*
X178129917Y-105591944D01*
X178142774Y-105618256D01*
X178151893Y-105651420D01*
X178158102Y-105697881D01*
X178162233Y-105764082D01*
X178165116Y-105856468D01*
X178167579Y-105981485D01*
X178173697Y-106328278D01*
X178122303Y-106308738D01*
X178075246Y-106290787D01*
X178040015Y-106273511D01*
X178017017Y-106251242D01*
X178003655Y-106217165D01*
X177997328Y-106164463D01*
X177995437Y-106086323D01*
X177995385Y-105975928D01*
X177995117Y-105887935D01*
X177993521Y-105803502D01*
X177989712Y-105745834D01*
X177982820Y-105707988D01*
X177971975Y-105683024D01*
X177956308Y-105664000D01*
X177917792Y-105637153D01*
X177853091Y-105627034D01*
X177789081Y-105652606D01*
X177784856Y-105655880D01*
X177771689Y-105671007D01*
X177761975Y-105695268D01*
X177754903Y-105734650D01*
X177749656Y-105795141D01*
X177745421Y-105882729D01*
X177741385Y-106003402D01*
X177731615Y-106326515D01*
X177565539Y-106252065D01*
X177565539Y-105957062D01*
X177565883Y-105876919D01*
X177568847Y-105765431D01*
X177576351Y-105682421D01*
X177590190Y-105621199D01*
X177612155Y-105575075D01*
X177644039Y-105537358D01*
X177687633Y-105501358D01*
X177750336Y-105465089D01*
X177849117Y-105441412D01*
X177948372Y-105451684D01*
G37*
X175493892Y-105517167D02*
X175500060Y-105520581D01*
X175550447Y-105559692D01*
X175595498Y-105609975D01*
X175603355Y-105621339D01*
X175618376Y-105647860D01*
X175629107Y-105679336D01*
X175636486Y-105722591D01*
X175641452Y-105784449D01*
X175644942Y-105871733D01*
X175647893Y-105991269D01*
X175648311Y-106011478D01*
X175649654Y-106142499D01*
X175647761Y-106235296D01*
X175642605Y-106290507D01*
X175634158Y-106308769D01*
X175608594Y-106303301D01*
X175565166Y-106286733D01*
X175554940Y-106281888D01*
X175538967Y-106270920D01*
X175527954Y-106252890D01*
X175520750Y-106221396D01*
X175516208Y-106170036D01*
X175513180Y-106092410D01*
X175510516Y-105982115D01*
X175509785Y-105949875D01*
X175506965Y-105848050D01*
X175503304Y-105776788D01*
X175497694Y-105729332D01*
X175489029Y-105698925D01*
X175476202Y-105678810D01*
X175458105Y-105662229D01*
X175404525Y-105633161D01*
X175338612Y-105627564D01*
X175279635Y-105649807D01*
X175237203Y-105695859D01*
X175220923Y-105761692D01*
X175220470Y-105779587D01*
X175211578Y-105811982D01*
X175185325Y-105816925D01*
X175133919Y-105797633D01*
X175122013Y-105791446D01*
X175089835Y-105755058D01*
X175089198Y-105700954D01*
X175119856Y-105626128D01*
X175147978Y-105585350D01*
X175219883Y-105527421D01*
X175308638Y-105494670D01*
X175403542Y-105490212D01*
X175493892Y-105517167D01*
G36*
X175493892Y-105517167D02*
G01*
X175500060Y-105520581D01*
X175550447Y-105559692D01*
X175595498Y-105609975D01*
X175603355Y-105621339D01*
X175618376Y-105647860D01*
X175629107Y-105679336D01*
X175636486Y-105722591D01*
X175641452Y-105784449D01*
X175644942Y-105871733D01*
X175647893Y-105991269D01*
X175648311Y-106011478D01*
X175649654Y-106142499D01*
X175647761Y-106235296D01*
X175642605Y-106290507D01*
X175634158Y-106308769D01*
X175608594Y-106303301D01*
X175565166Y-106286733D01*
X175554940Y-106281888D01*
X175538967Y-106270920D01*
X175527954Y-106252890D01*
X175520750Y-106221396D01*
X175516208Y-106170036D01*
X175513180Y-106092410D01*
X175510516Y-105982115D01*
X175509785Y-105949875D01*
X175506965Y-105848050D01*
X175503304Y-105776788D01*
X175497694Y-105729332D01*
X175489029Y-105698925D01*
X175476202Y-105678810D01*
X175458105Y-105662229D01*
X175404525Y-105633161D01*
X175338612Y-105627564D01*
X175279635Y-105649807D01*
X175237203Y-105695859D01*
X175220923Y-105761692D01*
X175220470Y-105779587D01*
X175211578Y-105811982D01*
X175185325Y-105816925D01*
X175133919Y-105797633D01*
X175122013Y-105791446D01*
X175089835Y-105755058D01*
X175089198Y-105700954D01*
X175119856Y-105626128D01*
X175147978Y-105585350D01*
X175219883Y-105527421D01*
X175308638Y-105494670D01*
X175403542Y-105490212D01*
X175493892Y-105517167D01*
G37*
X176998923Y-105251806D02*
X176998923Y-105786455D01*
X176998660Y-105925094D01*
X176997958Y-106049805D01*
X176996883Y-106155557D01*
X176995500Y-106237322D01*
X176993874Y-106290069D01*
X176992070Y-106308769D01*
X176991364Y-106308706D01*
X176967387Y-106301912D01*
X176923685Y-106287320D01*
X176862154Y-106265870D01*
X176862154Y-105990617D01*
X176861763Y-105882466D01*
X176859946Y-105804026D01*
X176855767Y-105750647D01*
X176848286Y-105715256D01*
X176836567Y-105690779D01*
X176819671Y-105670144D01*
X176808152Y-105659170D01*
X176745864Y-105628775D01*
X176677211Y-105631466D01*
X176614298Y-105667406D01*
X176605139Y-105676325D01*
X176590471Y-105694844D01*
X176580433Y-105719326D01*
X176574151Y-105756393D01*
X176570748Y-105812667D01*
X176569349Y-105894771D01*
X176569077Y-106009329D01*
X176568947Y-106067430D01*
X176568099Y-106162993D01*
X176566594Y-106239526D01*
X176564585Y-106290345D01*
X176562223Y-106308769D01*
X176561518Y-106308706D01*
X176537541Y-106301912D01*
X176493839Y-106287320D01*
X176432308Y-106265870D01*
X176432338Y-105989358D01*
X176432384Y-105964742D01*
X176434970Y-105836419D01*
X176442913Y-105739384D01*
X176458155Y-105667057D01*
X176482636Y-105612855D01*
X176518298Y-105570198D01*
X176567082Y-105532505D01*
X176614661Y-105508910D01*
X176690732Y-105490672D01*
X176765556Y-105489636D01*
X176823077Y-105507378D01*
X176827402Y-105509829D01*
X176840738Y-105509566D01*
X176849851Y-105489039D01*
X176856428Y-105441980D01*
X176862154Y-105362120D01*
X176871923Y-105198236D01*
X176998923Y-105251806D01*
G36*
X176998923Y-105251806D02*
G01*
X176998923Y-105786455D01*
X176998660Y-105925094D01*
X176997958Y-106049805D01*
X176996883Y-106155557D01*
X176995500Y-106237322D01*
X176993874Y-106290069D01*
X176992070Y-106308769D01*
X176991364Y-106308706D01*
X176967387Y-106301912D01*
X176923685Y-106287320D01*
X176862154Y-106265870D01*
X176862154Y-105990617D01*
X176861763Y-105882466D01*
X176859946Y-105804026D01*
X176855767Y-105750647D01*
X176848286Y-105715256D01*
X176836567Y-105690779D01*
X176819671Y-105670144D01*
X176808152Y-105659170D01*
X176745864Y-105628775D01*
X176677211Y-105631466D01*
X176614298Y-105667406D01*
X176605139Y-105676325D01*
X176590471Y-105694844D01*
X176580433Y-105719326D01*
X176574151Y-105756393D01*
X176570748Y-105812667D01*
X176569349Y-105894771D01*
X176569077Y-106009329D01*
X176568947Y-106067430D01*
X176568099Y-106162993D01*
X176566594Y-106239526D01*
X176564585Y-106290345D01*
X176562223Y-106308769D01*
X176561518Y-106308706D01*
X176537541Y-106301912D01*
X176493839Y-106287320D01*
X176432308Y-106265870D01*
X176432338Y-105989358D01*
X176432384Y-105964742D01*
X176434970Y-105836419D01*
X176442913Y-105739384D01*
X176458155Y-105667057D01*
X176482636Y-105612855D01*
X176518298Y-105570198D01*
X176567082Y-105532505D01*
X176614661Y-105508910D01*
X176690732Y-105490672D01*
X176765556Y-105489636D01*
X176823077Y-105507378D01*
X176827402Y-105509829D01*
X176840738Y-105509566D01*
X176849851Y-105489039D01*
X176856428Y-105441980D01*
X176862154Y-105362120D01*
X176871923Y-105198236D01*
X176998923Y-105251806D01*
G37*
X174209998Y-105494034D02*
X174252850Y-105510829D01*
X174302615Y-105533503D01*
X174302615Y-106188533D01*
X174240785Y-106250363D01*
X174226662Y-106264228D01*
X174187536Y-106295046D01*
X174148078Y-106305028D01*
X174089362Y-106300433D01*
X174065456Y-106297462D01*
X174003801Y-106291176D01*
X173960692Y-106288672D01*
X173947905Y-106289055D01*
X173895446Y-106293200D01*
X173832022Y-106300433D01*
X173811730Y-106302918D01*
X173760610Y-106303895D01*
X173723207Y-106288462D01*
X173680599Y-106250363D01*
X173618769Y-106188533D01*
X173618769Y-105838343D01*
X173619251Y-105734857D01*
X173620753Y-105636192D01*
X173623089Y-105558068D01*
X173626071Y-105506662D01*
X173629509Y-105488154D01*
X173630230Y-105488204D01*
X173655203Y-105497413D01*
X173697399Y-105517707D01*
X173754549Y-105547261D01*
X173759928Y-105854746D01*
X173765308Y-106162231D01*
X173882539Y-106162231D01*
X173887885Y-105825192D01*
X173889579Y-105733574D01*
X173892005Y-105635649D01*
X173894634Y-105557906D01*
X173897246Y-105506642D01*
X173899623Y-105488154D01*
X173900306Y-105488219D01*
X173923996Y-105495020D01*
X173967546Y-105509604D01*
X174029077Y-105531054D01*
X174029376Y-105827104D01*
X174029676Y-105878532D01*
X174031754Y-105978466D01*
X174035470Y-106061925D01*
X174040430Y-106121377D01*
X174046240Y-106149287D01*
X174067024Y-106164214D01*
X174109440Y-106168825D01*
X174156077Y-106162231D01*
X174161423Y-105825192D01*
X174163336Y-105739546D01*
X174167303Y-105638172D01*
X174172491Y-105558655D01*
X174178499Y-105506736D01*
X174184927Y-105488154D01*
X174209998Y-105494034D01*
G36*
X174209998Y-105494034D02*
G01*
X174252850Y-105510829D01*
X174302615Y-105533503D01*
X174302615Y-106188533D01*
X174240785Y-106250363D01*
X174226662Y-106264228D01*
X174187536Y-106295046D01*
X174148078Y-106305028D01*
X174089362Y-106300433D01*
X174065456Y-106297462D01*
X174003801Y-106291176D01*
X173960692Y-106288672D01*
X173947905Y-106289055D01*
X173895446Y-106293200D01*
X173832022Y-106300433D01*
X173811730Y-106302918D01*
X173760610Y-106303895D01*
X173723207Y-106288462D01*
X173680599Y-106250363D01*
X173618769Y-106188533D01*
X173618769Y-105838343D01*
X173619251Y-105734857D01*
X173620753Y-105636192D01*
X173623089Y-105558068D01*
X173626071Y-105506662D01*
X173629509Y-105488154D01*
X173630230Y-105488204D01*
X173655203Y-105497413D01*
X173697399Y-105517707D01*
X173754549Y-105547261D01*
X173759928Y-105854746D01*
X173765308Y-106162231D01*
X173882539Y-106162231D01*
X173887885Y-105825192D01*
X173889579Y-105733574D01*
X173892005Y-105635649D01*
X173894634Y-105557906D01*
X173897246Y-105506642D01*
X173899623Y-105488154D01*
X173900306Y-105488219D01*
X173923996Y-105495020D01*
X173967546Y-105509604D01*
X174029077Y-105531054D01*
X174029376Y-105827104D01*
X174029676Y-105878532D01*
X174031754Y-105978466D01*
X174035470Y-106061925D01*
X174040430Y-106121377D01*
X174046240Y-106149287D01*
X174067024Y-106164214D01*
X174109440Y-106168825D01*
X174156077Y-106162231D01*
X174161423Y-105825192D01*
X174163336Y-105739546D01*
X174167303Y-105638172D01*
X174172491Y-105558655D01*
X174178499Y-105506736D01*
X174184927Y-105488154D01*
X174209998Y-105494034D01*
G37*
X180418154Y-105878923D02*
X180418135Y-105900105D01*
X180417076Y-105994584D01*
X180413436Y-106060414D01*
X180405892Y-106106394D01*
X180393122Y-106141321D01*
X180373803Y-106173995D01*
X180369050Y-106180775D01*
X180318759Y-106234231D01*
X180261457Y-106274547D01*
X180232032Y-106287629D01*
X180126299Y-106309450D01*
X180021734Y-106295336D01*
X179925368Y-106247105D01*
X179844235Y-106166579D01*
X179837385Y-106155791D01*
X179815097Y-106093153D01*
X179800079Y-106005935D01*
X179792792Y-105905210D01*
X179793611Y-105812037D01*
X179990796Y-105812037D01*
X179992349Y-105941114D01*
X179992974Y-105949420D01*
X180002077Y-106020643D01*
X180018288Y-106065809D01*
X180045660Y-106096752D01*
X180091553Y-106125737D01*
X180136942Y-106127261D01*
X180183692Y-106093846D01*
X180191824Y-106085053D01*
X180207754Y-106058741D01*
X180217159Y-106020520D01*
X180221632Y-105961349D01*
X180222769Y-105872182D01*
X180220822Y-105788664D01*
X180211105Y-105709095D01*
X180191047Y-105658808D01*
X180158240Y-105632513D01*
X180110280Y-105624923D01*
X180092016Y-105626432D01*
X180040848Y-105654107D01*
X180007035Y-105716172D01*
X179990796Y-105812037D01*
X179793611Y-105812037D01*
X179793699Y-105802052D01*
X179803262Y-105707533D01*
X179821943Y-105632727D01*
X179845951Y-105582905D01*
X179913536Y-105505409D01*
X180005114Y-105457256D01*
X180117213Y-105440703D01*
X180147151Y-105441599D01*
X180235315Y-105459929D01*
X180307733Y-105506104D01*
X180374192Y-105585648D01*
X180378147Y-105591548D01*
X180396040Y-105623288D01*
X180407678Y-105659163D01*
X180414371Y-105707906D01*
X180417426Y-105778249D01*
X180418106Y-105872182D01*
X180418154Y-105878923D01*
G36*
X180418154Y-105878923D02*
G01*
X180418135Y-105900105D01*
X180417076Y-105994584D01*
X180413436Y-106060414D01*
X180405892Y-106106394D01*
X180393122Y-106141321D01*
X180373803Y-106173995D01*
X180369050Y-106180775D01*
X180318759Y-106234231D01*
X180261457Y-106274547D01*
X180232032Y-106287629D01*
X180126299Y-106309450D01*
X180021734Y-106295336D01*
X179925368Y-106247105D01*
X179844235Y-106166579D01*
X179837385Y-106155791D01*
X179815097Y-106093153D01*
X179800079Y-106005935D01*
X179792792Y-105905210D01*
X179793611Y-105812037D01*
X179990796Y-105812037D01*
X179992349Y-105941114D01*
X179992974Y-105949420D01*
X180002077Y-106020643D01*
X180018288Y-106065809D01*
X180045660Y-106096752D01*
X180091553Y-106125737D01*
X180136942Y-106127261D01*
X180183692Y-106093846D01*
X180191824Y-106085053D01*
X180207754Y-106058741D01*
X180217159Y-106020520D01*
X180221632Y-105961349D01*
X180222769Y-105872182D01*
X180220822Y-105788664D01*
X180211105Y-105709095D01*
X180191047Y-105658808D01*
X180158240Y-105632513D01*
X180110280Y-105624923D01*
X180092016Y-105626432D01*
X180040848Y-105654107D01*
X180007035Y-105716172D01*
X179990796Y-105812037D01*
X179793611Y-105812037D01*
X179793699Y-105802052D01*
X179803262Y-105707533D01*
X179821943Y-105632727D01*
X179845951Y-105582905D01*
X179913536Y-105505409D01*
X180005114Y-105457256D01*
X180117213Y-105440703D01*
X180147151Y-105441599D01*
X180235315Y-105459929D01*
X180307733Y-105506104D01*
X180374192Y-105585648D01*
X180378147Y-105591548D01*
X180396040Y-105623288D01*
X180407678Y-105659163D01*
X180414371Y-105707906D01*
X180417426Y-105778249D01*
X180418106Y-105872182D01*
X180418154Y-105878923D01*
G37*
X172172794Y-105902376D02*
X172172413Y-105954449D01*
X172167641Y-106057047D01*
X172155150Y-106132126D01*
X172132121Y-106187748D01*
X172095732Y-106231975D01*
X172043162Y-106272869D01*
X172009714Y-106291466D01*
X171956098Y-106303991D01*
X171880780Y-106303003D01*
X171838672Y-106299035D01*
X171787879Y-106286920D01*
X171747280Y-106260585D01*
X171700049Y-106211514D01*
X171693738Y-106204346D01*
X171651277Y-106149189D01*
X171631018Y-106101150D01*
X171625846Y-106044184D01*
X171625846Y-105960471D01*
X171684346Y-105982552D01*
X171726994Y-106008364D01*
X171764064Y-106068928D01*
X171771803Y-106088320D01*
X171815074Y-106143235D01*
X171873976Y-106170879D01*
X171938111Y-106168393D01*
X171997077Y-106132923D01*
X172017342Y-106110805D01*
X172035720Y-106077436D01*
X172029971Y-106047117D01*
X171996887Y-106015913D01*
X171933261Y-105979887D01*
X171835885Y-105935103D01*
X171635615Y-105847445D01*
X171630301Y-105760607D01*
X171632299Y-105705296D01*
X171762783Y-105705296D01*
X171772688Y-105739538D01*
X171817756Y-105776096D01*
X171899557Y-105817692D01*
X171913092Y-105823718D01*
X171977818Y-105851753D01*
X172026247Y-105871472D01*
X172048751Y-105878923D01*
X172052161Y-105873438D01*
X172053529Y-105839948D01*
X172048651Y-105786116D01*
X172036364Y-105733473D01*
X171998041Y-105667151D01*
X171942720Y-105629780D01*
X171876640Y-105624721D01*
X171806040Y-105655339D01*
X171786474Y-105670648D01*
X171762783Y-105705296D01*
X171632299Y-105705296D01*
X171632647Y-105695663D01*
X171662186Y-105613590D01*
X171699472Y-105568361D01*
X171776776Y-105517838D01*
X171868478Y-105492316D01*
X171963274Y-105494336D01*
X172049859Y-105526440D01*
X172068920Y-105538767D01*
X172112640Y-105576912D01*
X172142540Y-105625167D01*
X172160968Y-105690710D01*
X172170270Y-105780720D01*
X172171499Y-105839948D01*
X172172794Y-105902376D01*
G36*
X172172794Y-105902376D02*
G01*
X172172413Y-105954449D01*
X172167641Y-106057047D01*
X172155150Y-106132126D01*
X172132121Y-106187748D01*
X172095732Y-106231975D01*
X172043162Y-106272869D01*
X172009714Y-106291466D01*
X171956098Y-106303991D01*
X171880780Y-106303003D01*
X171838672Y-106299035D01*
X171787879Y-106286920D01*
X171747280Y-106260585D01*
X171700049Y-106211514D01*
X171693738Y-106204346D01*
X171651277Y-106149189D01*
X171631018Y-106101150D01*
X171625846Y-106044184D01*
X171625846Y-105960471D01*
X171684346Y-105982552D01*
X171726994Y-106008364D01*
X171764064Y-106068928D01*
X171771803Y-106088320D01*
X171815074Y-106143235D01*
X171873976Y-106170879D01*
X171938111Y-106168393D01*
X171997077Y-106132923D01*
X172017342Y-106110805D01*
X172035720Y-106077436D01*
X172029971Y-106047117D01*
X171996887Y-106015913D01*
X171933261Y-105979887D01*
X171835885Y-105935103D01*
X171635615Y-105847445D01*
X171630301Y-105760607D01*
X171632299Y-105705296D01*
X171762783Y-105705296D01*
X171772688Y-105739538D01*
X171817756Y-105776096D01*
X171899557Y-105817692D01*
X171913092Y-105823718D01*
X171977818Y-105851753D01*
X172026247Y-105871472D01*
X172048751Y-105878923D01*
X172052161Y-105873438D01*
X172053529Y-105839948D01*
X172048651Y-105786116D01*
X172036364Y-105733473D01*
X171998041Y-105667151D01*
X171942720Y-105629780D01*
X171876640Y-105624721D01*
X171806040Y-105655339D01*
X171786474Y-105670648D01*
X171762783Y-105705296D01*
X171632299Y-105705296D01*
X171632647Y-105695663D01*
X171662186Y-105613590D01*
X171699472Y-105568361D01*
X171776776Y-105517838D01*
X171868478Y-105492316D01*
X171963274Y-105494336D01*
X172049859Y-105526440D01*
X172068920Y-105538767D01*
X172112640Y-105576912D01*
X172142540Y-105625167D01*
X172160968Y-105690710D01*
X172170270Y-105780720D01*
X172171499Y-105839948D01*
X172172794Y-105902376D01*
G37*
X174986401Y-105898462D02*
X174984839Y-105974652D01*
X174973810Y-106078507D01*
X174949814Y-106156333D01*
X174910043Y-106215760D01*
X174851688Y-106264418D01*
X174796100Y-106292546D01*
X174702751Y-106308199D01*
X174609530Y-106291084D01*
X174525272Y-106243388D01*
X174458818Y-106167294D01*
X174450793Y-106153262D01*
X174440196Y-106128679D01*
X174432335Y-106097309D01*
X174426807Y-106053769D01*
X174423206Y-105992678D01*
X174421128Y-105908655D01*
X174421064Y-105901200D01*
X174556615Y-105901200D01*
X174557077Y-105972316D01*
X174559999Y-106036641D01*
X174567221Y-106078166D01*
X174580561Y-106106067D01*
X174601836Y-106129517D01*
X174606821Y-106134025D01*
X174670863Y-106167295D01*
X174738625Y-106163890D01*
X174801734Y-106124042D01*
X174820526Y-106103398D01*
X174836254Y-106076029D01*
X174845039Y-106038192D01*
X174848859Y-105980355D01*
X174849692Y-105892986D01*
X174849281Y-105826319D01*
X174846434Y-105761245D01*
X174839256Y-105719251D01*
X174825889Y-105691063D01*
X174804472Y-105667406D01*
X174791890Y-105656753D01*
X174726699Y-105628057D01*
X174658400Y-105632575D01*
X174599098Y-105670144D01*
X174586333Y-105685040D01*
X174570764Y-105713089D01*
X174561762Y-105752258D01*
X174557617Y-105811858D01*
X174556615Y-105901200D01*
X174421064Y-105901200D01*
X174420167Y-105796320D01*
X174419919Y-105650289D01*
X174419846Y-105196963D01*
X174483346Y-105223564D01*
X174500136Y-105230845D01*
X174526859Y-105247287D01*
X174542156Y-105272187D01*
X174550563Y-105315732D01*
X174556615Y-105388106D01*
X174562144Y-105453089D01*
X174569450Y-105495750D01*
X174579918Y-105511670D01*
X174595692Y-105507400D01*
X174635890Y-105492397D01*
X174707728Y-105488678D01*
X174785010Y-105502572D01*
X174851688Y-105532505D01*
X174888371Y-105560211D01*
X174935472Y-105614269D01*
X174965638Y-105683577D01*
X174981678Y-105775765D01*
X174986191Y-105892986D01*
X174986401Y-105898462D01*
G36*
X174986401Y-105898462D02*
G01*
X174984839Y-105974652D01*
X174973810Y-106078507D01*
X174949814Y-106156333D01*
X174910043Y-106215760D01*
X174851688Y-106264418D01*
X174796100Y-106292546D01*
X174702751Y-106308199D01*
X174609530Y-106291084D01*
X174525272Y-106243388D01*
X174458818Y-106167294D01*
X174450793Y-106153262D01*
X174440196Y-106128679D01*
X174432335Y-106097309D01*
X174426807Y-106053769D01*
X174423206Y-105992678D01*
X174421128Y-105908655D01*
X174421064Y-105901200D01*
X174556615Y-105901200D01*
X174557077Y-105972316D01*
X174559999Y-106036641D01*
X174567221Y-106078166D01*
X174580561Y-106106067D01*
X174601836Y-106129517D01*
X174606821Y-106134025D01*
X174670863Y-106167295D01*
X174738625Y-106163890D01*
X174801734Y-106124042D01*
X174820526Y-106103398D01*
X174836254Y-106076029D01*
X174845039Y-106038192D01*
X174848859Y-105980355D01*
X174849692Y-105892986D01*
X174849281Y-105826319D01*
X174846434Y-105761245D01*
X174839256Y-105719251D01*
X174825889Y-105691063D01*
X174804472Y-105667406D01*
X174791890Y-105656753D01*
X174726699Y-105628057D01*
X174658400Y-105632575D01*
X174599098Y-105670144D01*
X174586333Y-105685040D01*
X174570764Y-105713089D01*
X174561762Y-105752258D01*
X174557617Y-105811858D01*
X174556615Y-105901200D01*
X174421064Y-105901200D01*
X174420167Y-105796320D01*
X174419919Y-105650289D01*
X174419846Y-105196963D01*
X174483346Y-105223564D01*
X174500136Y-105230845D01*
X174526859Y-105247287D01*
X174542156Y-105272187D01*
X174550563Y-105315732D01*
X174556615Y-105388106D01*
X174562144Y-105453089D01*
X174569450Y-105495750D01*
X174579918Y-105511670D01*
X174595692Y-105507400D01*
X174635890Y-105492397D01*
X174707728Y-105488678D01*
X174785010Y-105502572D01*
X174851688Y-105532505D01*
X174888371Y-105560211D01*
X174935472Y-105614269D01*
X174965638Y-105683577D01*
X174981678Y-105775765D01*
X174986191Y-105892986D01*
X174986401Y-105898462D01*
G37*
X178932787Y-105823536D02*
X178926574Y-105971643D01*
X178923066Y-106003021D01*
X178896927Y-106114705D01*
X178849694Y-106199642D01*
X178777862Y-106264741D01*
X178773802Y-106267428D01*
X178682487Y-106305634D01*
X178587144Y-106309034D01*
X178495274Y-106279939D01*
X178414379Y-106220660D01*
X178351962Y-106133510D01*
X178350914Y-106131409D01*
X178330173Y-106077289D01*
X178314980Y-106015781D01*
X178306921Y-105958039D01*
X178307582Y-105915215D01*
X178318548Y-105898462D01*
X178328290Y-105899480D01*
X178374877Y-105918009D01*
X178427682Y-105952081D01*
X178472603Y-105991522D01*
X178495535Y-106026155D01*
X178519373Y-106073133D01*
X178568230Y-106115862D01*
X178624963Y-106132923D01*
X178645758Y-106127990D01*
X178686804Y-106103157D01*
X178722557Y-106068685D01*
X178737846Y-106037411D01*
X178737842Y-106037295D01*
X178720495Y-106022933D01*
X178674247Y-105997025D01*
X178606067Y-105963210D01*
X178522923Y-105925129D01*
X178522466Y-105924927D01*
X178432138Y-105884709D01*
X178371592Y-105855733D01*
X178334888Y-105833474D01*
X178316086Y-105813407D01*
X178309246Y-105791009D01*
X178308429Y-105761756D01*
X178314113Y-105706363D01*
X178507000Y-105706363D01*
X178526911Y-105723777D01*
X178576521Y-105749872D01*
X178577976Y-105750610D01*
X178636506Y-105778483D01*
X178688868Y-105800719D01*
X178722086Y-105810126D01*
X178735410Y-105797552D01*
X178737846Y-105754468D01*
X178727724Y-105700847D01*
X178692631Y-105652119D01*
X178641823Y-105626856D01*
X178585181Y-105629406D01*
X178532584Y-105664120D01*
X178511910Y-105688107D01*
X178507000Y-105706363D01*
X178314113Y-105706363D01*
X178315622Y-105691654D01*
X178351184Y-105596412D01*
X178410714Y-105521567D01*
X178487746Y-105469745D01*
X178575815Y-105443573D01*
X178668454Y-105445676D01*
X178759198Y-105478681D01*
X178841579Y-105545215D01*
X178887222Y-105611055D01*
X178920008Y-105705036D01*
X178925339Y-105754468D01*
X178932787Y-105823536D01*
G36*
X178932787Y-105823536D02*
G01*
X178926574Y-105971643D01*
X178923066Y-106003021D01*
X178896927Y-106114705D01*
X178849694Y-106199642D01*
X178777862Y-106264741D01*
X178773802Y-106267428D01*
X178682487Y-106305634D01*
X178587144Y-106309034D01*
X178495274Y-106279939D01*
X178414379Y-106220660D01*
X178351962Y-106133510D01*
X178350914Y-106131409D01*
X178330173Y-106077289D01*
X178314980Y-106015781D01*
X178306921Y-105958039D01*
X178307582Y-105915215D01*
X178318548Y-105898462D01*
X178328290Y-105899480D01*
X178374877Y-105918009D01*
X178427682Y-105952081D01*
X178472603Y-105991522D01*
X178495535Y-106026155D01*
X178519373Y-106073133D01*
X178568230Y-106115862D01*
X178624963Y-106132923D01*
X178645758Y-106127990D01*
X178686804Y-106103157D01*
X178722557Y-106068685D01*
X178737846Y-106037411D01*
X178737842Y-106037295D01*
X178720495Y-106022933D01*
X178674247Y-105997025D01*
X178606067Y-105963210D01*
X178522923Y-105925129D01*
X178522466Y-105924927D01*
X178432138Y-105884709D01*
X178371592Y-105855733D01*
X178334888Y-105833474D01*
X178316086Y-105813407D01*
X178309246Y-105791009D01*
X178308429Y-105761756D01*
X178314113Y-105706363D01*
X178507000Y-105706363D01*
X178526911Y-105723777D01*
X178576521Y-105749872D01*
X178577976Y-105750610D01*
X178636506Y-105778483D01*
X178688868Y-105800719D01*
X178722086Y-105810126D01*
X178735410Y-105797552D01*
X178737846Y-105754468D01*
X178727724Y-105700847D01*
X178692631Y-105652119D01*
X178641823Y-105626856D01*
X178585181Y-105629406D01*
X178532584Y-105664120D01*
X178511910Y-105688107D01*
X178507000Y-105706363D01*
X178314113Y-105706363D01*
X178315622Y-105691654D01*
X178351184Y-105596412D01*
X178410714Y-105521567D01*
X178487746Y-105469745D01*
X178575815Y-105443573D01*
X178668454Y-105445676D01*
X178759198Y-105478681D01*
X178841579Y-105545215D01*
X178887222Y-105611055D01*
X178920008Y-105705036D01*
X178925339Y-105754468D01*
X178932787Y-105823536D01*
G37*
X176142458Y-105509228D02*
X176209622Y-105548389D01*
X176239169Y-105578902D01*
X176295948Y-105670110D01*
X176315077Y-105769548D01*
X176315077Y-105837960D01*
X176252191Y-105811518D01*
X176208700Y-105784837D01*
X176174426Y-105729446D01*
X176170907Y-105718024D01*
X176133028Y-105659838D01*
X176075936Y-105628407D01*
X176010383Y-105627058D01*
X175947117Y-105659116D01*
X175937672Y-105667383D01*
X175906087Y-105703311D01*
X175900871Y-105734635D01*
X175924765Y-105765391D01*
X175980510Y-105799617D01*
X176070846Y-105841350D01*
X176076956Y-105843993D01*
X176177241Y-105890755D01*
X176245735Y-105932181D01*
X176287899Y-105973542D01*
X176309193Y-106020111D01*
X176315077Y-106077160D01*
X176307366Y-106140408D01*
X176268430Y-106221364D01*
X176199932Y-106279522D01*
X176150388Y-106296983D01*
X176080469Y-106306537D01*
X176012575Y-106304496D01*
X175964093Y-106290082D01*
X175958943Y-106286493D01*
X175945267Y-106261416D01*
X175954757Y-106217218D01*
X175971246Y-106182527D01*
X175997687Y-106168084D01*
X176047834Y-106168803D01*
X176117453Y-106164660D01*
X176162943Y-106136054D01*
X176178308Y-106083104D01*
X176178294Y-106081582D01*
X176168983Y-106050845D01*
X176137311Y-106022643D01*
X176075731Y-105990136D01*
X175991986Y-105950998D01*
X175936518Y-105929706D01*
X175904497Y-105931079D01*
X175889534Y-105959203D01*
X175885242Y-106018170D01*
X175885231Y-106112068D01*
X175884752Y-106170031D01*
X175882556Y-106241612D01*
X175878986Y-106290606D01*
X175874491Y-106308769D01*
X175873290Y-106308646D01*
X175847319Y-106298802D01*
X175804305Y-106278028D01*
X175744859Y-106247287D01*
X175751923Y-105970298D01*
X175752414Y-105951928D01*
X175758025Y-105822992D01*
X175767938Y-105725814D01*
X175784175Y-105653925D01*
X175808759Y-105600852D01*
X175843715Y-105560127D01*
X175891064Y-105525279D01*
X175891940Y-105524733D01*
X175968499Y-105496303D01*
X176057044Y-105491500D01*
X176142458Y-105509228D01*
G36*
X176142458Y-105509228D02*
G01*
X176209622Y-105548389D01*
X176239169Y-105578902D01*
X176295948Y-105670110D01*
X176315077Y-105769548D01*
X176315077Y-105837960D01*
X176252191Y-105811518D01*
X176208700Y-105784837D01*
X176174426Y-105729446D01*
X176170907Y-105718024D01*
X176133028Y-105659838D01*
X176075936Y-105628407D01*
X176010383Y-105627058D01*
X175947117Y-105659116D01*
X175937672Y-105667383D01*
X175906087Y-105703311D01*
X175900871Y-105734635D01*
X175924765Y-105765391D01*
X175980510Y-105799617D01*
X176070846Y-105841350D01*
X176076956Y-105843993D01*
X176177241Y-105890755D01*
X176245735Y-105932181D01*
X176287899Y-105973542D01*
X176309193Y-106020111D01*
X176315077Y-106077160D01*
X176307366Y-106140408D01*
X176268430Y-106221364D01*
X176199932Y-106279522D01*
X176150388Y-106296983D01*
X176080469Y-106306537D01*
X176012575Y-106304496D01*
X175964093Y-106290082D01*
X175958943Y-106286493D01*
X175945267Y-106261416D01*
X175954757Y-106217218D01*
X175971246Y-106182527D01*
X175997687Y-106168084D01*
X176047834Y-106168803D01*
X176117453Y-106164660D01*
X176162943Y-106136054D01*
X176178308Y-106083104D01*
X176178294Y-106081582D01*
X176168983Y-106050845D01*
X176137311Y-106022643D01*
X176075731Y-105990136D01*
X175991986Y-105950998D01*
X175936518Y-105929706D01*
X175904497Y-105931079D01*
X175889534Y-105959203D01*
X175885242Y-106018170D01*
X175885231Y-106112068D01*
X175884752Y-106170031D01*
X175882556Y-106241612D01*
X175878986Y-106290606D01*
X175874491Y-106308769D01*
X175873290Y-106308646D01*
X175847319Y-106298802D01*
X175804305Y-106278028D01*
X175744859Y-106247287D01*
X175751923Y-105970298D01*
X175752414Y-105951928D01*
X175758025Y-105822992D01*
X175767938Y-105725814D01*
X175784175Y-105653925D01*
X175808759Y-105600852D01*
X175843715Y-105560127D01*
X175891064Y-105525279D01*
X175891940Y-105524733D01*
X175968499Y-105496303D01*
X176057044Y-105491500D01*
X176142458Y-105509228D01*
G37*
X173285936Y-105489911D02*
X173327807Y-105500547D01*
X173366791Y-105527062D01*
X173416965Y-105576420D01*
X173449232Y-105611279D01*
X173482844Y-105656534D01*
X173498003Y-105698951D01*
X173501539Y-105752768D01*
X173501539Y-105840850D01*
X173441470Y-105809787D01*
X173393867Y-105771936D01*
X173361261Y-105720950D01*
X173355661Y-105707088D01*
X173312992Y-105653358D01*
X173253707Y-105626417D01*
X173189061Y-105629039D01*
X173130308Y-105664000D01*
X173105450Y-105692394D01*
X173090970Y-105728718D01*
X173106470Y-105761046D01*
X173154667Y-105793565D01*
X173238274Y-105830461D01*
X173250962Y-105835557D01*
X173327078Y-105868907D01*
X173392396Y-105901793D01*
X173433953Y-105927769D01*
X173475576Y-105974167D01*
X173503247Y-106048211D01*
X173500310Y-106127670D01*
X173467571Y-106202868D01*
X173405841Y-106264131D01*
X173355858Y-106290210D01*
X173259303Y-106308470D01*
X173205647Y-106306007D01*
X173155976Y-106292687D01*
X173136919Y-106264739D01*
X173144045Y-106218710D01*
X173146118Y-106212624D01*
X173162556Y-106180349D01*
X173189926Y-106168133D01*
X173242068Y-106168950D01*
X173278884Y-106170061D01*
X173321961Y-106160528D01*
X173351475Y-106132026D01*
X173368286Y-106096935D01*
X173370161Y-106060175D01*
X173370074Y-106059961D01*
X173348279Y-106040098D01*
X173301632Y-106011192D01*
X173241278Y-105978886D01*
X173178360Y-105948823D01*
X173124023Y-105926646D01*
X173089410Y-105918000D01*
X173084260Y-105926467D01*
X173077778Y-105966309D01*
X173073339Y-106031371D01*
X173071692Y-106113385D01*
X173071309Y-106170153D01*
X173069505Y-106241648D01*
X173066558Y-106290610D01*
X173062843Y-106308769D01*
X173043424Y-106302667D01*
X173004227Y-106286095D01*
X172954462Y-106263420D01*
X172954462Y-105972509D01*
X172954780Y-105897940D01*
X172957789Y-105784701D01*
X172965454Y-105700692D01*
X172979562Y-105639520D01*
X173001899Y-105594795D01*
X173034253Y-105560124D01*
X173078410Y-105529117D01*
X173134667Y-105503528D01*
X173238540Y-105488154D01*
X173285936Y-105489911D01*
G36*
X173285936Y-105489911D02*
G01*
X173327807Y-105500547D01*
X173366791Y-105527062D01*
X173416965Y-105576420D01*
X173449232Y-105611279D01*
X173482844Y-105656534D01*
X173498003Y-105698951D01*
X173501539Y-105752768D01*
X173501539Y-105840850D01*
X173441470Y-105809787D01*
X173393867Y-105771936D01*
X173361261Y-105720950D01*
X173355661Y-105707088D01*
X173312992Y-105653358D01*
X173253707Y-105626417D01*
X173189061Y-105629039D01*
X173130308Y-105664000D01*
X173105450Y-105692394D01*
X173090970Y-105728718D01*
X173106470Y-105761046D01*
X173154667Y-105793565D01*
X173238274Y-105830461D01*
X173250962Y-105835557D01*
X173327078Y-105868907D01*
X173392396Y-105901793D01*
X173433953Y-105927769D01*
X173475576Y-105974167D01*
X173503247Y-106048211D01*
X173500310Y-106127670D01*
X173467571Y-106202868D01*
X173405841Y-106264131D01*
X173355858Y-106290210D01*
X173259303Y-106308470D01*
X173205647Y-106306007D01*
X173155976Y-106292687D01*
X173136919Y-106264739D01*
X173144045Y-106218710D01*
X173146118Y-106212624D01*
X173162556Y-106180349D01*
X173189926Y-106168133D01*
X173242068Y-106168950D01*
X173278884Y-106170061D01*
X173321961Y-106160528D01*
X173351475Y-106132026D01*
X173368286Y-106096935D01*
X173370161Y-106060175D01*
X173370074Y-106059961D01*
X173348279Y-106040098D01*
X173301632Y-106011192D01*
X173241278Y-105978886D01*
X173178360Y-105948823D01*
X173124023Y-105926646D01*
X173089410Y-105918000D01*
X173084260Y-105926467D01*
X173077778Y-105966309D01*
X173073339Y-106031371D01*
X173071692Y-106113385D01*
X173071309Y-106170153D01*
X173069505Y-106241648D01*
X173066558Y-106290610D01*
X173062843Y-106308769D01*
X173043424Y-106302667D01*
X173004227Y-106286095D01*
X172954462Y-106263420D01*
X172954462Y-105972509D01*
X172954780Y-105897940D01*
X172957789Y-105784701D01*
X172965454Y-105700692D01*
X172979562Y-105639520D01*
X173001899Y-105594795D01*
X173034253Y-105560124D01*
X173078410Y-105529117D01*
X173134667Y-105503528D01*
X173238540Y-105488154D01*
X173285936Y-105489911D01*
G37*
X179669828Y-105968205D02*
X179671763Y-106118269D01*
X179672300Y-106161802D01*
X179674019Y-106307344D01*
X179674365Y-106418711D01*
X179672277Y-106499804D01*
X179666698Y-106554522D01*
X179656567Y-106586761D01*
X179640826Y-106600422D01*
X179618417Y-106599403D01*
X179588280Y-106587603D01*
X179549355Y-106568920D01*
X179541038Y-106564933D01*
X179506402Y-106545419D01*
X179488314Y-106522202D01*
X179481392Y-106483492D01*
X179480256Y-106417497D01*
X179480205Y-106299000D01*
X179358141Y-106299000D01*
X179283055Y-106295712D01*
X179224015Y-106282377D01*
X179174986Y-106255423D01*
X179171330Y-106252788D01*
X179121581Y-106208286D01*
X179086959Y-106154523D01*
X179065123Y-106084154D01*
X179053737Y-105989830D01*
X179050959Y-105883271D01*
X179245846Y-105883271D01*
X179245880Y-105901131D01*
X179247735Y-105981748D01*
X179253693Y-106034447D01*
X179265506Y-106068668D01*
X179284923Y-106093846D01*
X179286133Y-106095049D01*
X179333858Y-106127628D01*
X179380110Y-106124417D01*
X179432350Y-106084965D01*
X179445128Y-106071482D01*
X179463949Y-106043837D01*
X179474562Y-106007880D01*
X179479252Y-105953364D01*
X179480308Y-105870042D01*
X179479394Y-105819598D01*
X179469477Y-105727857D01*
X179446842Y-105667752D01*
X179409238Y-105634900D01*
X179354416Y-105624923D01*
X179331317Y-105627050D01*
X179291350Y-105648147D01*
X179264926Y-105695161D01*
X179250330Y-105772175D01*
X179245846Y-105883271D01*
X179050959Y-105883271D01*
X179050462Y-105864206D01*
X179051187Y-105772536D01*
X179054490Y-105703098D01*
X179061828Y-105654945D01*
X179074655Y-105618866D01*
X179094423Y-105585648D01*
X179112569Y-105560261D01*
X179178461Y-105491727D01*
X179253114Y-105454505D01*
X179346904Y-105442722D01*
X179454240Y-105454467D01*
X179547031Y-105496595D01*
X179620421Y-105570898D01*
X179625954Y-105578764D01*
X179638857Y-105599668D01*
X179648742Y-105623555D01*
X179656093Y-105655582D01*
X179661394Y-105700905D01*
X179665127Y-105764679D01*
X179667778Y-105852060D01*
X179668096Y-105870042D01*
X179669828Y-105968205D01*
G36*
X179669828Y-105968205D02*
G01*
X179671763Y-106118269D01*
X179672300Y-106161802D01*
X179674019Y-106307344D01*
X179674365Y-106418711D01*
X179672277Y-106499804D01*
X179666698Y-106554522D01*
X179656567Y-106586761D01*
X179640826Y-106600422D01*
X179618417Y-106599403D01*
X179588280Y-106587603D01*
X179549355Y-106568920D01*
X179541038Y-106564933D01*
X179506402Y-106545419D01*
X179488314Y-106522202D01*
X179481392Y-106483492D01*
X179480256Y-106417497D01*
X179480205Y-106299000D01*
X179358141Y-106299000D01*
X179283055Y-106295712D01*
X179224015Y-106282377D01*
X179174986Y-106255423D01*
X179171330Y-106252788D01*
X179121581Y-106208286D01*
X179086959Y-106154523D01*
X179065123Y-106084154D01*
X179053737Y-105989830D01*
X179050959Y-105883271D01*
X179245846Y-105883271D01*
X179245880Y-105901131D01*
X179247735Y-105981748D01*
X179253693Y-106034447D01*
X179265506Y-106068668D01*
X179284923Y-106093846D01*
X179286133Y-106095049D01*
X179333858Y-106127628D01*
X179380110Y-106124417D01*
X179432350Y-106084965D01*
X179445128Y-106071482D01*
X179463949Y-106043837D01*
X179474562Y-106007880D01*
X179479252Y-105953364D01*
X179480308Y-105870042D01*
X179479394Y-105819598D01*
X179469477Y-105727857D01*
X179446842Y-105667752D01*
X179409238Y-105634900D01*
X179354416Y-105624923D01*
X179331317Y-105627050D01*
X179291350Y-105648147D01*
X179264926Y-105695161D01*
X179250330Y-105772175D01*
X179245846Y-105883271D01*
X179050959Y-105883271D01*
X179050462Y-105864206D01*
X179051187Y-105772536D01*
X179054490Y-105703098D01*
X179061828Y-105654945D01*
X179074655Y-105618866D01*
X179094423Y-105585648D01*
X179112569Y-105560261D01*
X179178461Y-105491727D01*
X179253114Y-105454505D01*
X179346904Y-105442722D01*
X179454240Y-105454467D01*
X179547031Y-105496595D01*
X179620421Y-105570898D01*
X179625954Y-105578764D01*
X179638857Y-105599668D01*
X179648742Y-105623555D01*
X179656093Y-105655582D01*
X179661394Y-105700905D01*
X179665127Y-105764679D01*
X179667778Y-105852060D01*
X179668096Y-105870042D01*
X179669828Y-105968205D01*
G37*
X176039575Y-99157693D02*
X176175371Y-99157807D01*
X176277576Y-99158472D01*
X176351122Y-99160182D01*
X176400942Y-99163429D01*
X176431967Y-99168706D01*
X176449129Y-99176507D01*
X176457361Y-99187325D01*
X176461594Y-99201654D01*
X176461716Y-99202168D01*
X176468672Y-99235851D01*
X176481320Y-99300917D01*
X176498360Y-99390542D01*
X176518496Y-99497904D01*
X176540429Y-99616178D01*
X176542218Y-99625856D01*
X176564083Y-99740650D01*
X176584430Y-99841480D01*
X176601934Y-99922217D01*
X176615271Y-99976734D01*
X176623116Y-99998901D01*
X176623158Y-99998936D01*
X176647884Y-100011200D01*
X176698631Y-100031576D01*
X176764462Y-100055674D01*
X176768169Y-100056983D01*
X176852331Y-100088791D01*
X176950230Y-100128685D01*
X177041435Y-100168353D01*
X177191407Y-100236420D01*
X177523499Y-100009639D01*
X177546889Y-99993688D01*
X177647080Y-99925890D01*
X177736480Y-99866208D01*
X177809745Y-99818156D01*
X177861527Y-99785250D01*
X177886480Y-99771004D01*
X177903577Y-99774270D01*
X177942395Y-99799571D01*
X178002385Y-99849675D01*
X178085210Y-99925989D01*
X178192535Y-100029922D01*
X178202139Y-100039382D01*
X178287302Y-100124145D01*
X178362949Y-100200937D01*
X178424449Y-100264947D01*
X178467173Y-100311361D01*
X178486489Y-100335369D01*
X178486552Y-100335485D01*
X178489006Y-100353763D01*
X178479956Y-100383411D01*
X178457119Y-100428486D01*
X178418213Y-100493044D01*
X178360954Y-100581140D01*
X178283059Y-100696830D01*
X178269785Y-100716357D01*
X178202652Y-100815278D01*
X178143410Y-100902848D01*
X178095588Y-100973831D01*
X178062715Y-101022991D01*
X178048318Y-101045095D01*
X178047232Y-101049777D01*
X178054044Y-101084710D01*
X178074450Y-101141753D01*
X178105123Y-101211172D01*
X178146808Y-101301959D01*
X178193352Y-101409686D01*
X178232877Y-101507192D01*
X178242676Y-101532430D01*
X178268340Y-101596870D01*
X178287193Y-101641763D01*
X178295710Y-101658616D01*
X178305111Y-101659875D01*
X178347363Y-101667159D01*
X178416521Y-101679739D01*
X178505387Y-101696246D01*
X178606768Y-101715312D01*
X178713467Y-101735569D01*
X178818288Y-101755647D01*
X178914036Y-101774179D01*
X178993516Y-101789795D01*
X179049530Y-101801127D01*
X179074885Y-101806807D01*
X179079088Y-101808408D01*
X179089334Y-101817045D01*
X179096957Y-101835433D01*
X179102338Y-101868460D01*
X179105859Y-101921013D01*
X179107901Y-101997979D01*
X179108847Y-102104246D01*
X179109077Y-102244701D01*
X179109077Y-102671845D01*
X179006500Y-102692091D01*
X178994092Y-102694518D01*
X178928199Y-102707088D01*
X178837084Y-102724170D01*
X178731104Y-102743829D01*
X178620615Y-102764132D01*
X178577105Y-102772299D01*
X178479882Y-102792167D01*
X178398858Y-102810954D01*
X178341477Y-102826859D01*
X178315187Y-102838079D01*
X178303273Y-102856411D01*
X178281583Y-102904916D01*
X178259395Y-102967692D01*
X178251585Y-102991200D01*
X178222835Y-103068366D01*
X178185752Y-103159694D01*
X178146375Y-103250093D01*
X178125315Y-103297310D01*
X178095311Y-103367837D01*
X178074692Y-103420655D01*
X178067026Y-103446912D01*
X178067452Y-103448894D01*
X178081993Y-103476751D01*
X178114783Y-103530510D01*
X178162493Y-103604963D01*
X178221798Y-103694897D01*
X178289369Y-103795104D01*
X178511713Y-104121416D01*
X178219601Y-104414016D01*
X178191349Y-104442171D01*
X178104961Y-104526449D01*
X178027756Y-104599128D01*
X177964258Y-104656112D01*
X177918990Y-104693307D01*
X177896474Y-104706616D01*
X177872023Y-104696490D01*
X177820819Y-104667421D01*
X177748747Y-104622896D01*
X177661460Y-104566411D01*
X177564612Y-104501462D01*
X177469486Y-104437314D01*
X177383669Y-104380827D01*
X177313652Y-104336184D01*
X177264876Y-104306855D01*
X177242783Y-104296308D01*
X177241488Y-104296404D01*
X177212139Y-104306802D01*
X177160093Y-104331012D01*
X177095708Y-104364249D01*
X177095032Y-104364613D01*
X177009521Y-104407441D01*
X176950926Y-104428365D01*
X176914571Y-104428423D01*
X176895775Y-104408654D01*
X176887819Y-104389195D01*
X176866347Y-104337080D01*
X176833273Y-104256964D01*
X176790356Y-104153107D01*
X176739356Y-104029767D01*
X176682033Y-103891201D01*
X176620146Y-103741670D01*
X176564052Y-103605636D01*
X176506977Y-103466050D01*
X176456479Y-103341315D01*
X176414254Y-103235672D01*
X176381995Y-103153365D01*
X176361397Y-103098635D01*
X176354154Y-103075726D01*
X176367986Y-103054718D01*
X176406412Y-103019642D01*
X176460807Y-102978887D01*
X176591395Y-102872267D01*
X176708260Y-102736025D01*
X176793780Y-102586118D01*
X176847431Y-102426971D01*
X176868684Y-102263012D01*
X176857014Y-102098667D01*
X176811894Y-101938361D01*
X176732797Y-101786520D01*
X176619197Y-101647572D01*
X176559965Y-101593460D01*
X176418054Y-101497782D01*
X176266206Y-101435405D01*
X176108861Y-101404844D01*
X175950456Y-101404615D01*
X175795429Y-101433232D01*
X175648220Y-101489210D01*
X175513266Y-101571064D01*
X175395005Y-101677309D01*
X175297877Y-101806459D01*
X175226318Y-101957031D01*
X175184769Y-102127539D01*
X175177143Y-102209722D01*
X175187634Y-102387775D01*
X175234882Y-102556704D01*
X175317489Y-102713522D01*
X175434059Y-102855245D01*
X175583193Y-102978887D01*
X175635561Y-103017982D01*
X175674832Y-103053443D01*
X175689846Y-103075692D01*
X175683859Y-103095088D01*
X175664432Y-103147059D01*
X175633194Y-103227002D01*
X175591839Y-103330673D01*
X175542061Y-103453832D01*
X175485553Y-103592234D01*
X175424009Y-103741637D01*
X175368008Y-103877020D01*
X175310184Y-104016852D01*
X175258500Y-104141872D01*
X175214718Y-104247822D01*
X175180597Y-104330441D01*
X175157898Y-104385472D01*
X175148380Y-104408654D01*
X175148269Y-104408928D01*
X175129228Y-104428503D01*
X175092694Y-104428279D01*
X175033954Y-104407210D01*
X174948292Y-104364249D01*
X174941549Y-104360631D01*
X174877938Y-104328087D01*
X174827707Y-104305050D01*
X174801218Y-104296308D01*
X174779506Y-104306639D01*
X174730984Y-104335788D01*
X174661163Y-104380287D01*
X174575484Y-104436668D01*
X174479388Y-104501462D01*
X174384706Y-104564984D01*
X174297132Y-104621705D01*
X174224642Y-104666547D01*
X174172889Y-104696016D01*
X174147526Y-104706616D01*
X174143206Y-104705270D01*
X174113092Y-104684056D01*
X174061640Y-104640237D01*
X173993375Y-104577909D01*
X173912820Y-104501170D01*
X173824500Y-104414116D01*
X173532488Y-104121617D01*
X173987360Y-103452525D01*
X173918208Y-103302916D01*
X173918003Y-103302473D01*
X173876477Y-103207101D01*
X173834044Y-103100896D01*
X173799858Y-103006769D01*
X173794684Y-102991588D01*
X173768601Y-102921109D01*
X173745081Y-102866342D01*
X173728677Y-102838079D01*
X173721996Y-102834088D01*
X173681892Y-102820697D01*
X173613795Y-102803373D01*
X173525145Y-102783917D01*
X173423385Y-102764132D01*
X173392904Y-102758551D01*
X173282628Y-102738233D01*
X173179731Y-102719095D01*
X173094569Y-102703070D01*
X173037500Y-102692091D01*
X172934923Y-102671845D01*
X172934923Y-102244701D01*
X172934946Y-102192180D01*
X172935379Y-102064047D01*
X172936659Y-101968420D01*
X172939168Y-101900411D01*
X172943286Y-101855133D01*
X172949395Y-101827697D01*
X172957878Y-101813218D01*
X172969115Y-101806807D01*
X172979994Y-101804209D01*
X173024347Y-101795022D01*
X173095106Y-101780991D01*
X173185074Y-101763486D01*
X173287056Y-101743874D01*
X173393857Y-101723525D01*
X173498281Y-101703807D01*
X173593132Y-101686089D01*
X173671214Y-101671738D01*
X173725332Y-101662124D01*
X173748291Y-101658616D01*
X173749842Y-101656497D01*
X173762325Y-101629006D01*
X173783927Y-101576406D01*
X173811123Y-101507192D01*
X173848866Y-101413937D01*
X173895328Y-101306159D01*
X173938878Y-101211172D01*
X173948858Y-101189851D01*
X173976862Y-101123086D01*
X173993641Y-101071590D01*
X173995854Y-101045095D01*
X173994713Y-101043218D01*
X173976584Y-101015565D01*
X173940644Y-100961849D01*
X173890418Y-100887303D01*
X173829430Y-100797162D01*
X173761205Y-100696657D01*
X173684330Y-100582470D01*
X173626663Y-100493770D01*
X173587426Y-100428721D01*
X173564350Y-100383295D01*
X173555166Y-100353463D01*
X173557604Y-100335195D01*
X173558424Y-100333825D01*
X173580477Y-100307205D01*
X173625436Y-100258697D01*
X173688673Y-100193108D01*
X173765559Y-100115247D01*
X173851465Y-100029922D01*
X173940579Y-99943334D01*
X174027872Y-99861947D01*
X174092018Y-99807035D01*
X174134679Y-99777190D01*
X174157521Y-99771004D01*
X174160505Y-99772394D01*
X174191936Y-99791127D01*
X174248997Y-99827733D01*
X174326343Y-99878697D01*
X174418626Y-99940504D01*
X174520502Y-100009639D01*
X174852593Y-100236420D01*
X175002566Y-100168353D01*
X175006923Y-100166381D01*
X175099000Y-100126491D01*
X175196683Y-100086818D01*
X175279539Y-100055674D01*
X175279905Y-100055545D01*
X175345685Y-100031456D01*
X175396323Y-100011110D01*
X175420884Y-99998901D01*
X175421282Y-99998458D01*
X175429619Y-99973456D01*
X175443341Y-99916598D01*
X175461123Y-99834014D01*
X175481641Y-99731831D01*
X175503571Y-99616178D01*
X175504336Y-99612033D01*
X175526229Y-99494019D01*
X175546281Y-99387151D01*
X175563192Y-99298252D01*
X175575667Y-99234145D01*
X175582406Y-99201654D01*
X175582837Y-99199853D01*
X175587273Y-99185944D01*
X175596263Y-99175489D01*
X175614737Y-99167996D01*
X175647628Y-99162972D01*
X175699868Y-99159922D01*
X175776388Y-99158355D01*
X175882122Y-99157776D01*
X176022000Y-99157692D01*
X176039575Y-99157693D01*
G36*
X176039575Y-99157693D02*
G01*
X176175371Y-99157807D01*
X176277576Y-99158472D01*
X176351122Y-99160182D01*
X176400942Y-99163429D01*
X176431967Y-99168706D01*
X176449129Y-99176507D01*
X176457361Y-99187325D01*
X176461594Y-99201654D01*
X176461716Y-99202168D01*
X176468672Y-99235851D01*
X176481320Y-99300917D01*
X176498360Y-99390542D01*
X176518496Y-99497904D01*
X176540429Y-99616178D01*
X176542218Y-99625856D01*
X176564083Y-99740650D01*
X176584430Y-99841480D01*
X176601934Y-99922217D01*
X176615271Y-99976734D01*
X176623116Y-99998901D01*
X176623158Y-99998936D01*
X176647884Y-100011200D01*
X176698631Y-100031576D01*
X176764462Y-100055674D01*
X176768169Y-100056983D01*
X176852331Y-100088791D01*
X176950230Y-100128685D01*
X177041435Y-100168353D01*
X177191407Y-100236420D01*
X177523499Y-100009639D01*
X177546889Y-99993688D01*
X177647080Y-99925890D01*
X177736480Y-99866208D01*
X177809745Y-99818156D01*
X177861527Y-99785250D01*
X177886480Y-99771004D01*
X177903577Y-99774270D01*
X177942395Y-99799571D01*
X178002385Y-99849675D01*
X178085210Y-99925989D01*
X178192535Y-100029922D01*
X178202139Y-100039382D01*
X178287302Y-100124145D01*
X178362949Y-100200937D01*
X178424449Y-100264947D01*
X178467173Y-100311361D01*
X178486489Y-100335369D01*
X178486552Y-100335485D01*
X178489006Y-100353763D01*
X178479956Y-100383411D01*
X178457119Y-100428486D01*
X178418213Y-100493044D01*
X178360954Y-100581140D01*
X178283059Y-100696830D01*
X178269785Y-100716357D01*
X178202652Y-100815278D01*
X178143410Y-100902848D01*
X178095588Y-100973831D01*
X178062715Y-101022991D01*
X178048318Y-101045095D01*
X178047232Y-101049777D01*
X178054044Y-101084710D01*
X178074450Y-101141753D01*
X178105123Y-101211172D01*
X178146808Y-101301959D01*
X178193352Y-101409686D01*
X178232877Y-101507192D01*
X178242676Y-101532430D01*
X178268340Y-101596870D01*
X178287193Y-101641763D01*
X178295710Y-101658616D01*
X178305111Y-101659875D01*
X178347363Y-101667159D01*
X178416521Y-101679739D01*
X178505387Y-101696246D01*
X178606768Y-101715312D01*
X178713467Y-101735569D01*
X178818288Y-101755647D01*
X178914036Y-101774179D01*
X178993516Y-101789795D01*
X179049530Y-101801127D01*
X179074885Y-101806807D01*
X179079088Y-101808408D01*
X179089334Y-101817045D01*
X179096957Y-101835433D01*
X179102338Y-101868460D01*
X179105859Y-101921013D01*
X179107901Y-101997979D01*
X179108847Y-102104246D01*
X179109077Y-102244701D01*
X179109077Y-102671845D01*
X179006500Y-102692091D01*
X178994092Y-102694518D01*
X178928199Y-102707088D01*
X178837084Y-102724170D01*
X178731104Y-102743829D01*
X178620615Y-102764132D01*
X178577105Y-102772299D01*
X178479882Y-102792167D01*
X178398858Y-102810954D01*
X178341477Y-102826859D01*
X178315187Y-102838079D01*
X178303273Y-102856411D01*
X178281583Y-102904916D01*
X178259395Y-102967692D01*
X178251585Y-102991200D01*
X178222835Y-103068366D01*
X178185752Y-103159694D01*
X178146375Y-103250093D01*
X178125315Y-103297310D01*
X178095311Y-103367837D01*
X178074692Y-103420655D01*
X178067026Y-103446912D01*
X178067452Y-103448894D01*
X178081993Y-103476751D01*
X178114783Y-103530510D01*
X178162493Y-103604963D01*
X178221798Y-103694897D01*
X178289369Y-103795104D01*
X178511713Y-104121416D01*
X178219601Y-104414016D01*
X178191349Y-104442171D01*
X178104961Y-104526449D01*
X178027756Y-104599128D01*
X177964258Y-104656112D01*
X177918990Y-104693307D01*
X177896474Y-104706616D01*
X177872023Y-104696490D01*
X177820819Y-104667421D01*
X177748747Y-104622896D01*
X177661460Y-104566411D01*
X177564612Y-104501462D01*
X177469486Y-104437314D01*
X177383669Y-104380827D01*
X177313652Y-104336184D01*
X177264876Y-104306855D01*
X177242783Y-104296308D01*
X177241488Y-104296404D01*
X177212139Y-104306802D01*
X177160093Y-104331012D01*
X177095708Y-104364249D01*
X177095032Y-104364613D01*
X177009521Y-104407441D01*
X176950926Y-104428365D01*
X176914571Y-104428423D01*
X176895775Y-104408654D01*
X176887819Y-104389195D01*
X176866347Y-104337080D01*
X176833273Y-104256964D01*
X176790356Y-104153107D01*
X176739356Y-104029767D01*
X176682033Y-103891201D01*
X176620146Y-103741670D01*
X176564052Y-103605636D01*
X176506977Y-103466050D01*
X176456479Y-103341315D01*
X176414254Y-103235672D01*
X176381995Y-103153365D01*
X176361397Y-103098635D01*
X176354154Y-103075726D01*
X176367986Y-103054718D01*
X176406412Y-103019642D01*
X176460807Y-102978887D01*
X176591395Y-102872267D01*
X176708260Y-102736025D01*
X176793780Y-102586118D01*
X176847431Y-102426971D01*
X176868684Y-102263012D01*
X176857014Y-102098667D01*
X176811894Y-101938361D01*
X176732797Y-101786520D01*
X176619197Y-101647572D01*
X176559965Y-101593460D01*
X176418054Y-101497782D01*
X176266206Y-101435405D01*
X176108861Y-101404844D01*
X175950456Y-101404615D01*
X175795429Y-101433232D01*
X175648220Y-101489210D01*
X175513266Y-101571064D01*
X175395005Y-101677309D01*
X175297877Y-101806459D01*
X175226318Y-101957031D01*
X175184769Y-102127539D01*
X175177143Y-102209722D01*
X175187634Y-102387775D01*
X175234882Y-102556704D01*
X175317489Y-102713522D01*
X175434059Y-102855245D01*
X175583193Y-102978887D01*
X175635561Y-103017982D01*
X175674832Y-103053443D01*
X175689846Y-103075692D01*
X175683859Y-103095088D01*
X175664432Y-103147059D01*
X175633194Y-103227002D01*
X175591839Y-103330673D01*
X175542061Y-103453832D01*
X175485553Y-103592234D01*
X175424009Y-103741637D01*
X175368008Y-103877020D01*
X175310184Y-104016852D01*
X175258500Y-104141872D01*
X175214718Y-104247822D01*
X175180597Y-104330441D01*
X175157898Y-104385472D01*
X175148380Y-104408654D01*
X175148269Y-104408928D01*
X175129228Y-104428503D01*
X175092694Y-104428279D01*
X175033954Y-104407210D01*
X174948292Y-104364249D01*
X174941549Y-104360631D01*
X174877938Y-104328087D01*
X174827707Y-104305050D01*
X174801218Y-104296308D01*
X174779506Y-104306639D01*
X174730984Y-104335788D01*
X174661163Y-104380287D01*
X174575484Y-104436668D01*
X174479388Y-104501462D01*
X174384706Y-104564984D01*
X174297132Y-104621705D01*
X174224642Y-104666547D01*
X174172889Y-104696016D01*
X174147526Y-104706616D01*
X174143206Y-104705270D01*
X174113092Y-104684056D01*
X174061640Y-104640237D01*
X173993375Y-104577909D01*
X173912820Y-104501170D01*
X173824500Y-104414116D01*
X173532488Y-104121617D01*
X173987360Y-103452525D01*
X173918208Y-103302916D01*
X173918003Y-103302473D01*
X173876477Y-103207101D01*
X173834044Y-103100896D01*
X173799858Y-103006769D01*
X173794684Y-102991588D01*
X173768601Y-102921109D01*
X173745081Y-102866342D01*
X173728677Y-102838079D01*
X173721996Y-102834088D01*
X173681892Y-102820697D01*
X173613795Y-102803373D01*
X173525145Y-102783917D01*
X173423385Y-102764132D01*
X173392904Y-102758551D01*
X173282628Y-102738233D01*
X173179731Y-102719095D01*
X173094569Y-102703070D01*
X173037500Y-102692091D01*
X172934923Y-102671845D01*
X172934923Y-102244701D01*
X172934946Y-102192180D01*
X172935379Y-102064047D01*
X172936659Y-101968420D01*
X172939168Y-101900411D01*
X172943286Y-101855133D01*
X172949395Y-101827697D01*
X172957878Y-101813218D01*
X172969115Y-101806807D01*
X172979994Y-101804209D01*
X173024347Y-101795022D01*
X173095106Y-101780991D01*
X173185074Y-101763486D01*
X173287056Y-101743874D01*
X173393857Y-101723525D01*
X173498281Y-101703807D01*
X173593132Y-101686089D01*
X173671214Y-101671738D01*
X173725332Y-101662124D01*
X173748291Y-101658616D01*
X173749842Y-101656497D01*
X173762325Y-101629006D01*
X173783927Y-101576406D01*
X173811123Y-101507192D01*
X173848866Y-101413937D01*
X173895328Y-101306159D01*
X173938878Y-101211172D01*
X173948858Y-101189851D01*
X173976862Y-101123086D01*
X173993641Y-101071590D01*
X173995854Y-101045095D01*
X173994713Y-101043218D01*
X173976584Y-101015565D01*
X173940644Y-100961849D01*
X173890418Y-100887303D01*
X173829430Y-100797162D01*
X173761205Y-100696657D01*
X173684330Y-100582470D01*
X173626663Y-100493770D01*
X173587426Y-100428721D01*
X173564350Y-100383295D01*
X173555166Y-100353463D01*
X173557604Y-100335195D01*
X173558424Y-100333825D01*
X173580477Y-100307205D01*
X173625436Y-100258697D01*
X173688673Y-100193108D01*
X173765559Y-100115247D01*
X173851465Y-100029922D01*
X173940579Y-99943334D01*
X174027872Y-99861947D01*
X174092018Y-99807035D01*
X174134679Y-99777190D01*
X174157521Y-99771004D01*
X174160505Y-99772394D01*
X174191936Y-99791127D01*
X174248997Y-99827733D01*
X174326343Y-99878697D01*
X174418626Y-99940504D01*
X174520502Y-100009639D01*
X174852593Y-100236420D01*
X175002566Y-100168353D01*
X175006923Y-100166381D01*
X175099000Y-100126491D01*
X175196683Y-100086818D01*
X175279539Y-100055674D01*
X175279905Y-100055545D01*
X175345685Y-100031456D01*
X175396323Y-100011110D01*
X175420884Y-99998901D01*
X175421282Y-99998458D01*
X175429619Y-99973456D01*
X175443341Y-99916598D01*
X175461123Y-99834014D01*
X175481641Y-99731831D01*
X175503571Y-99616178D01*
X175504336Y-99612033D01*
X175526229Y-99494019D01*
X175546281Y-99387151D01*
X175563192Y-99298252D01*
X175575667Y-99234145D01*
X175582406Y-99201654D01*
X175582837Y-99199853D01*
X175587273Y-99185944D01*
X175596263Y-99175489D01*
X175614737Y-99167996D01*
X175647628Y-99162972D01*
X175699868Y-99159922D01*
X175776388Y-99158355D01*
X175882122Y-99157776D01*
X176022000Y-99157692D01*
X176039575Y-99157693D01*
G37*
%LPC*%
D13*
X135734703Y-50038000D02*
G75*
G02*
X132844897Y-50038000I-1444903J0D01*
G01*
X132844897Y-50038000D02*
G75*
G02*
X135734703Y-50038000I1444903J0D01*
G01*
X135556903Y-104947806D02*
G75*
G02*
X132667097Y-104947806I-1444903J0D01*
G01*
X132667097Y-104947806D02*
G75*
G02*
X135556903Y-104947806I1444903J0D01*
G01*
X185086903Y-104902000D02*
G75*
G02*
X182197097Y-104902000I-1444903J0D01*
G01*
X182197097Y-104902000D02*
G75*
G02*
X185086903Y-104902000I1444903J0D01*
G01*
X185112303Y-50038000D02*
G75*
G02*
X182222497Y-50038000I-1444903J0D01*
G01*
X182222497Y-50038000D02*
G75*
G02*
X185112303Y-50038000I1444903J0D01*
G01*
D14*
X162433000Y-63754000D03*
D15*
X162433000Y-66294000D03*
X162433000Y-68834000D03*
X162433000Y-71374000D03*
X162433000Y-73914000D03*
X162433000Y-76454000D03*
D14*
X152273000Y-63754000D03*
D15*
X152273000Y-66294000D03*
X152273000Y-68834000D03*
X152273000Y-71374000D03*
X152273000Y-73914000D03*
X152273000Y-76454000D03*
D14*
X162433000Y-80010000D03*
D15*
X162433000Y-82550000D03*
X162433000Y-85090000D03*
X162433000Y-87630000D03*
X162433000Y-90170000D03*
X162433000Y-92710000D03*
D16*
X182880000Y-58039000D03*
X182880000Y-97409000D03*
D17*
X172085000Y-88392000D03*
D18*
X175133000Y-86614000D03*
X172085000Y-84836000D03*
X175133000Y-83058000D03*
X172085000Y-81280000D03*
X175133000Y-79502000D03*
X172085000Y-77724000D03*
X175133000Y-75946000D03*
X172085000Y-74168000D03*
X175133000Y-72390000D03*
X172085000Y-70612000D03*
X175133000Y-68834000D03*
X172085000Y-67056000D03*
D14*
X163779200Y-53975000D03*
D15*
X163779200Y-56515000D03*
D19*
X141502000Y-73938000D03*
D20*
X141502000Y-76438000D03*
X141502000Y-78438000D03*
X141502000Y-80938000D03*
X143002000Y-81438000D03*
X143002000Y-79438000D03*
X143002000Y-77438000D03*
X143002000Y-75438000D03*
X143002000Y-73438000D03*
D21*
X139502000Y-70868000D03*
X139502000Y-84008000D03*
D14*
X141935200Y-53975000D03*
D15*
X141935200Y-56515000D03*
D14*
X152273000Y-80010000D03*
D15*
X152273000Y-82550000D03*
X152273000Y-85090000D03*
X152273000Y-87630000D03*
X152273000Y-90170000D03*
X152273000Y-92710000D03*
%LPD*%
M02*
