G04 #@! TF.GenerationSoftware,KiCad,Pcbnew,9.0.5*
G04 #@! TF.CreationDate,2025-11-16T23:30:58+01:00*
G04 #@! TF.ProjectId,MiSTer_A8SIO,4d695354-6572-45f4-9138-53494f2e6b69,1.2*
G04 #@! TF.SameCoordinates,Original*
G04 #@! TF.FileFunction,Soldermask,Top*
G04 #@! TF.FilePolarity,Negative*
%FSLAX46Y46*%
G04 Gerber Fmt 4.6, Leading zero omitted, Abs format (unit mm)*
G04 Created by KiCad (PCBNEW 9.0.5) date 2025-11-16 23:30:58*
%MOMM*%
%LPD*%
G01*
G04 APERTURE LIST*
G04 Aperture macros list*
%AMRoundRect*
0 Rectangle with rounded corners*
0 $1 Rounding radius*
0 $2 $3 $4 $5 $6 $7 $8 $9 X,Y pos of 4 corners*
0 Add a 4 corners polygon primitive as box body*
4,1,4,$2,$3,$4,$5,$6,$7,$8,$9,$2,$3,0*
0 Add four circle primitives for the rounded corners*
1,1,$1+$1,$2,$3*
1,1,$1+$1,$4,$5*
1,1,$1+$1,$6,$7*
1,1,$1+$1,$8,$9*
0 Add four rect primitives between the rounded corners*
20,1,$1+$1,$2,$3,$4,$5,0*
20,1,$1+$1,$4,$5,$6,$7,0*
20,1,$1+$1,$6,$7,$8,$9,0*
20,1,$1+$1,$8,$9,$2,$3,0*%
G04 Aperture macros list end*
%ADD10C,2.889806*%
%ADD11RoundRect,0.250000X0.475000X-0.337500X0.475000X0.337500X-0.475000X0.337500X-0.475000X-0.337500X0*%
%ADD12RoundRect,0.250000X0.350000X0.450000X-0.350000X0.450000X-0.350000X-0.450000X0.350000X-0.450000X0*%
%ADD13RoundRect,0.375000X-0.375000X0.625000X-0.375000X-0.625000X0.375000X-0.625000X0.375000X0.625000X0*%
%ADD14RoundRect,0.500000X-1.400000X0.500000X-1.400000X-0.500000X1.400000X-0.500000X1.400000X0.500000X0*%
%ADD15R,1.700000X1.700000*%
%ADD16O,1.700000X1.700000*%
%ADD17RoundRect,0.250000X0.450000X-0.325000X0.450000X0.325000X-0.450000X0.325000X-0.450000X-0.325000X0*%
%ADD18C,3.302000*%
%ADD19RoundRect,0.635000X-0.635000X0.635000X-0.635000X-0.635000X0.635000X-0.635000X0.635000X0.635000X0*%
%ADD20C,2.540000*%
%ADD21RoundRect,0.250000X-0.350000X-0.450000X0.350000X-0.450000X0.350000X0.450000X-0.350000X0.450000X0*%
%ADD22RoundRect,0.150000X-0.587500X-0.150000X0.587500X-0.150000X0.587500X0.150000X-0.587500X0.150000X0*%
%ADD23RoundRect,0.250000X-0.475000X0.337500X-0.475000X-0.337500X0.475000X-0.337500X0.475000X0.337500X0*%
%ADD24RoundRect,0.250000X-0.350000X0.350000X-0.350000X-0.350000X0.350000X-0.350000X0.350000X0.350000X0*%
%ADD25C,1.200000*%
%ADD26C,3.300000*%
G04 APERTURE END LIST*
D10*
X135734703Y-50038000D02*
G75*
G02*
X132844897Y-50038000I-1444903J0D01*
G01*
X132844897Y-50038000D02*
G75*
G02*
X135734703Y-50038000I1444903J0D01*
G01*
X185112303Y-50038000D02*
G75*
G02*
X182222497Y-50038000I-1444903J0D01*
G01*
X182222497Y-50038000D02*
G75*
G02*
X185112303Y-50038000I1444903J0D01*
G01*
X135556903Y-104947806D02*
G75*
G02*
X132667097Y-104947806I-1444903J0D01*
G01*
X132667097Y-104947806D02*
G75*
G02*
X135556903Y-104947806I1444903J0D01*
G01*
X185086903Y-104902000D02*
G75*
G02*
X182197097Y-104902000I-1444903J0D01*
G01*
X182197097Y-104902000D02*
G75*
G02*
X185086903Y-104902000I1444903J0D01*
G01*
D11*
X158876000Y-56110000D03*
X158876000Y-54035000D03*
D12*
X154591500Y-98879900D03*
X152591500Y-98879900D03*
D13*
X155335000Y-51866000D03*
X153035000Y-51866000D03*
X150735000Y-51866000D03*
D14*
X153035000Y-58166000D03*
D15*
X162433000Y-63754000D03*
D16*
X162433000Y-66294000D03*
X162433000Y-68834000D03*
X162433000Y-71374000D03*
X162433000Y-73914000D03*
X162433000Y-76454000D03*
D15*
X152273000Y-63754000D03*
D16*
X152273000Y-66294000D03*
X152273000Y-68834000D03*
X152273000Y-71374000D03*
X152273000Y-73914000D03*
X152273000Y-76454000D03*
D15*
X162433000Y-80010000D03*
D16*
X162433000Y-82550000D03*
X162433000Y-85090000D03*
X162433000Y-87630000D03*
X162433000Y-90170000D03*
X162433000Y-92710000D03*
D17*
X164411900Y-101064300D03*
X164411900Y-99014300D03*
D18*
X182880000Y-58039000D03*
X182880000Y-97409000D03*
D19*
X172085000Y-88392000D03*
D20*
X175133000Y-86614000D03*
X172085000Y-84836000D03*
X175133000Y-83058000D03*
X172085000Y-81280000D03*
X175133000Y-79502000D03*
X172085000Y-77724000D03*
X175133000Y-75946000D03*
X172085000Y-74168000D03*
X175133000Y-72390000D03*
X172085000Y-70612000D03*
X175133000Y-68834000D03*
X172085000Y-67056000D03*
D21*
X152591500Y-101419900D03*
X154591500Y-101419900D03*
D15*
X163779200Y-53975000D03*
D16*
X163779200Y-56515000D03*
D22*
X158191200Y-99278400D03*
X158191200Y-101178400D03*
X160066200Y-100228400D03*
D23*
X147192000Y-53781000D03*
X147192000Y-55856000D03*
D24*
X141502000Y-73938000D03*
D25*
X141502000Y-76438000D03*
X141502000Y-78438000D03*
X141502000Y-80938000D03*
X143002000Y-81438000D03*
X143002000Y-79438000D03*
X143002000Y-77438000D03*
X143002000Y-75438000D03*
X143002000Y-73438000D03*
D26*
X139502000Y-70868000D03*
X139502000Y-84008000D03*
D15*
X141935200Y-53975000D03*
D16*
X141935200Y-56515000D03*
D15*
X152273000Y-80010000D03*
D16*
X152273000Y-82550000D03*
X152273000Y-85090000D03*
X152273000Y-87630000D03*
X152273000Y-90170000D03*
X152273000Y-92710000D03*
M02*
